<svg width="285" height="92" viewBox="0 0 285 92" xmlns="http://www.w3.org/2000/svg"><g fill="none" fill-rule="evenodd"><path d="M16.942 6C10.91 6 6 11.095 6 17.358v59.284C6 82.905 10.91 88 16.942 88h57.116C80.09 88 85 82.905 85 76.642V17.358C85 11.095 80.09 6 74.058 6H16.942zm57.29 86H16.767C8.625 92 2 85.147 2 76.723V17.278C2 8.854 8.625 2 16.768 2H74.23C82.376 2 89 8.854 89 17.278v59.445C89 85.147 82.375 92 74.23 92z" fill="#FFF"/><path d="M88 75.15C88 82.245 82.245 88 75.148 88H17.85C10.755 88 5 82.246 5 75.15V17.85C5 10.754 10.754 5 17.85 5H75.15C82.245 5 88 10.754 88 17.852V75.15" fill="#003451"/><path d="M17.598 6.716c-6 0-10.882 4.882-10.882 10.883V74.4c0 6 4.882 10.882 10.882 10.882H74.4c6.002 0 10.884-4.882 10.884-10.882V17.6c0-6.002-4.882-10.884-10.883-10.884H17.6zM74.4 89H17.6C9.548 89 3 82.452 3 74.402V17.6C3 9.55 9.548 3 17.598 3H74.4C82.45 3 89 9.55 89 17.6V74.4C89 82.452 82.45 89 74.4 89z" fill="#FFF"/><path d="M17 32l15-8.5L17 15v17" fill="#FFF"/><path d="M37 69l15-8.5L37 52v17" fill="#00A3DB"/><path d="M47 35.283C33.37 35.283 22.283 46.37 22.283 60c0 13.63 11.088 24.716 24.717 24.716 13.63 0 24.717-11.087 24.717-24.716 0-13.63-11.088-24.717-24.717-24.717zM47 89c-15.99 0-29-13.01-29-29s13.01-29 29-29 29 13.01 29 29-13.01 29-29 29z" fill="#FFF"/><path d="M63 60c0 8.836-7.163 16-16 16-8.836 0-16-7.164-16-16s7.164-16 16-16c8.837 0 16 7.164 16 16" fill="#00A3DB"/><path d="M48 45.78c-8.35 0-15.14 6.603-15.14 14.72S39.65 75.22 48 75.22c8.35 0 15.14-6.603 15.14-14.72S56.35 45.78 48 45.78M48 78c-9.924 0-18-7.85-18-17.5S38.076 43 48 43c9.925 0 18 7.85 18 17.5S57.925 78 48 78" fill="#FFF"/><path d="M88 75.15C88 82.245 82.245 88 75.148 88H17.85C10.755 88 5 82.246 5 75.15V17.85C5 10.754 10.754 5 17.85 5H75.15C82.245 5 88 10.754 88 17.852V75.15" fill="#003451"/><path d="M17.598 6.716c-6 0-10.882 4.882-10.882 10.883V74.4c0 6 4.882 10.882 10.882 10.882H74.4c6.002 0 10.884-4.882 10.884-10.882V17.6c0-6.002-4.882-10.884-10.883-10.884H17.6zM74.4 89H17.6C9.548 89 3 82.452 3 74.402V17.6C3 9.55 9.548 3 17.598 3H74.4C82.45 3 89 9.55 89 17.6V74.4C89 82.452 82.45 89 74.4 89z" fill="#FFF"/><path d="M18 32l15-8.5L18 15v17" fill="#FFF"/><path d="M37 69l15-8.5L37 52v17" fill="#00A3DB"/><path d="M47 35.283C33.37 35.283 22.284 46.37 22.284 60c0 13.63 11.087 24.716 24.716 24.716 13.63 0 24.717-11.087 24.717-24.716 0-13.63-11.088-24.717-24.717-24.717zM47 89c-15.99 0-29-13.01-29-29s13.01-29 29-29 29 13.01 29 29-13.01 29-29 29z" fill="#FFF"/><path d="M62 60c0 8.836-7.163 16-16 16s-16-7.164-16-16 7.163-16 16-16 16 7.164 16 16" fill="#00A9DC"/><path d="M61.417 64.987L54.927 61 37 71.648c5.722 5.803 15 5.803 20.72 0 2.748-2.787 4.17-6.404 4.28-10.054-.064 1.126-.252 2.264-.583 3.393M61.976 61c.104-1.75.21-3.81-.434-5.538-1.716-4.617-6.217-8.477-11.077-9.87-4.877-1.396-9.91-.247-13.565 2.646-.31.245-.61.504-.9.773l18.95 11.99 7.026-3.576c.11.373-.334.05-.258.43.21 1.038.29 2.093.258 3.146z" fill="#008EBE"/><path d="M61.002 64H61c.513-1.237.788-2.54.788-3.888 0-.717-.078-1.423-.23-2.112.19.77.28 1.55.278 2.328 0 .148-.004.295-.01.443-.09 1.073-.356 2.155-.824 3.23" fill="#63AEC6"/><path d="M62.34 65L55 61l7.34 4c.375-1.133.588-2.274.66-3.404-.072 1.13-.285 2.27-.66 3.404" fill="#0083AF"/><path d="M62.703 58.203c-.086-.403-.19-1.21-.313-1.61l-7.487 4.394 7.487 4.672c.373-1.15.53-2.963.602-4.11.037-1.12-.055-2.242-.29-3.347z" fill="#007298"/><path d="M15.223 3C8.483 3 3 8.483 3 15.223v61.554C3 83.517 8.484 89 15.223 89h61.554C83.517 89 89 83.516 89 76.777V15.223C89 8.483 83.516 3 76.777 3H15.223zm61.443 89H15.334C6.88 92 0 85.122 0 76.667V15.334C0 6.88 6.88 0 15.334 0h61.332C85.12 0 92 6.88 92 15.334v61.333C92 85.122 85.12 92 76.666 92z" fill="#2D3030"/><path d="M47 45.78c-8.35 0-15.14 6.603-15.14 14.72S38.65 75.22 47 75.22c8.348 0 15.14-6.603 15.14-14.72S55.35 45.78 47 45.78M47 78c-9.926 0-18-7.85-18-17.5S37.074 43 47 43c9.925 0 18 7.85 18 17.5S56.925 78 47 78" fill="#FFF"/><path d="M106.197 38.215l2.17-2.994c1.482 1.613 3.883 3.06 6.943 3.06 3.16 0 4.377-1.546 4.377-3.027 0-4.605-12.766-1.743-12.766-9.804 0-3.653 3.16-6.45 7.995-6.45 3.39 0 6.187 1.12 8.192 3.093l-2.17 2.863c-1.744-1.744-4.08-2.533-6.383-2.533-2.237 0-3.685 1.118-3.685 2.73 0 4.113 12.764 1.58 12.764 9.74 0 3.65-2.598 6.81-8.488 6.81-4.046 0-6.975-1.448-8.95-3.488M126.202 30.35c0-6.776 5.034-11.35 11.515-11.35 4.41 0 7.172 2.27 8.785 4.903l-3.257 1.71c-1.053-1.842-3.19-3.19-5.528-3.19-4.343 0-7.566 3.29-7.566 7.928 0 4.574 3.224 7.93 7.567 7.93 2.337 0 4.475-1.38 5.528-3.19l3.29 1.644c-1.678 2.633-4.41 4.968-8.818 4.968-6.48 0-11.515-4.606-11.515-11.35M167.132 30.35c0-4.54-2.862-7.927-7.27-7.927-4.443 0-7.273 3.388-7.273 7.928 0 4.51 2.83 7.93 7.27 7.93 4.41 0 7.272-3.42 7.272-7.93zm-18.49 0c0-6.546 4.64-11.35 11.22-11.35 6.547 0 11.218 4.804 11.218 11.35 0 6.55-4.67 11.352-11.22 11.352-6.58 0-11.22-4.803-11.22-11.35zM179.175 41.307V22.75h-6.646v-3.388h17.14v3.39h-6.646v18.555h-3.85M192.665 41.307V19.362h3.85v18.556h9.673v3.39h-13.523M218.33 23.212l-3.95 10.463h7.898l-3.95-10.463zm6.646 18.095l-1.613-4.244h-10.068l-1.612 4.244h-4.376l8.62-21.945h4.803l8.62 21.945h-4.374zM247.02 41.307l-11.45-15.693v15.693h-3.85V19.362h3.95l11.218 15.2v-15.2h3.85v21.945h-3.72M271.104 30.318c0-4.21-2.63-7.567-7.5-7.567h-4.344V37.92h4.31c4.77 0 7.534-3.42 7.534-7.6zm-15.694 10.99V19.36h8.16c6.876 0 11.482 4.54 11.482 10.956 0 6.483-4.606 10.99-11.45 10.99h-8.192z" fill="#0087B4"/><path d="M124.49 63.254c0-4.54-2.863-7.93-7.27-7.93-4.442 0-7.273 3.39-7.273 7.93 0 4.507 2.83 7.93 7.272 7.93 4.407 0 7.27-3.423 7.27-7.93zm-18.49 0c0-6.548 4.638-11.35 11.22-11.35 6.547 0 11.22 4.802 11.22 11.35s-4.673 11.35-11.22 11.35c-6.582 0-11.22-4.802-11.22-11.35zM147.424 74.21l-11.45-15.693V74.21h-3.85V52.265h3.95l11.218 15.2v-15.2h3.85V74.21h-3.718M162.888 71.118l2.17-2.994c1.482 1.612 3.884 3.06 6.943 3.06 3.16 0 4.378-1.546 4.378-3.028 0-4.606-12.766-1.743-12.766-9.804 0-3.652 3.16-6.45 7.995-6.45 3.39 0 6.185 1.12 8.193 3.094l-2.172 2.863c-1.744-1.746-4.08-2.535-6.383-2.535-2.237 0-3.685 1.12-3.685 2.73 0 4.113 12.766 1.58 12.766 9.74 0 3.65-2.6 6.81-8.488 6.81-4.048 0-6.976-1.447-8.95-3.487M182.892 63.254c0-6.777 5.034-11.35 11.516-11.35 4.41 0 7.173 2.27 8.784 4.902l-3.256 1.71c-1.053-1.84-3.19-3.19-5.528-3.19-4.343 0-7.567 3.29-7.567 7.928 0 4.573 3.225 7.93 7.568 7.93 2.337 0 4.475-1.382 5.528-3.192l3.29 1.646c-1.678 2.63-4.41 4.966-8.818 4.966-6.482 0-11.516-4.605-11.516-11.35M219.184 59.11c0-2.107-1.58-3.456-3.75-3.456h-5.298v6.975h5.297c2.172 0 3.75-1.383 3.75-3.52zm-.362 15.1l-4.836-8.192h-3.85v8.192h-3.85V52.265h9.64c4.343 0 7.206 2.797 7.206 6.877 0 3.88-2.567 6.02-5.23 6.448l5.394 8.62h-4.474zM226.983 74.21V52.265h15.036v3.39h-11.187v5.66h10.955V64.7h-10.955v6.12h11.186v3.388h-15.037M245.968 74.21V52.265h15.036v3.39h-11.187v5.66h10.956V64.7h-10.956v6.12h11.187v3.388h-15.036M280.25 74.21l-11.448-15.693V74.21h-3.85V52.265h3.95l11.218 15.2v-15.2h3.85V74.21h-3.72" fill="#003451"/></g></svg>