<svg width="228" height="166" viewBox="0 0 228 166" xmlns="http://www.w3.org/2000/svg" xmlns:xlink="http://www.w3.org/1999/xlink"><title>header-right</title><defs><path id="a" d="M18.688 51.692c0 11.537-2.166 22.757-6.34 32.788.014.013 6.34 20.94 6.34 32.34 0 19.766-6.772 37.944-18.103 52.38 42.193-4.963 74.94-40.83 74.94-84.356 0-43.17-32.204-78.775-73.9-84.213 10.71 14.22 17.063 31.908 17.063 51.062z"/><path id="c" d="M.022 85.068c0 11.536 2.31 22.53 6.476 32.56 11.557-27.796 37.442-48.146 68.448-51.79 15.552-19.814 39.71-32.574 66.86-32.574 3.76 0 7.446.268 11.07.742C137.37 13.43 112.73.112 84.975.112 38.062.112.023 38.152.023 85.068z"/><path id="e" d="M.536 32.75c3.293-.37 6.635-.59 10.03-.59 35.387 0 65.878 23.292 78.673 52.663 4.165-10.03 6.29-21.306 6.29-32.843 0-19.167-6.353-36.843-17.065-51.06-3.623-.475-7.308-.743-11.07-.743C40.248.177 16.09 12.937.536 32.75z"/><path id="g" d="M.022 33.103c0 46.93 38.04 84.95 84.955 84.95 27.15 0 51.31-12.755 66.86-32.57-3.286.386-6.634.606-10.03.606-27.74 0-51.42-13.758-66.93-34.335C44.333 47.775 17.925 28.05 6.498.535 2.333 10.568.023 21.568.023 33.104z"/><path id="i" d="M10.567 52.938c-3.747 0-6.47-.667-10.1-1.128.324.46.31.447.502.667.164.213.343.406.488.598 15.51 19.91 38.754 33.014 65.938 33.014 3.404 0 6.745-.22 10.03-.606C88.757 71.047 95.53 52.87 95.53 33.104c0-11.4-2.25-22.42-6.32-32.355C76.3 31.205 45.734 52.937 10.568 52.937z"/><path id="k" d="M.64.546L.646.55C.646.546.642.542.642.536L.64.546z"/><path id="l" d="M.84 52.135c11.19 26.95 36.85 46.606 66.618 51.116.612.104 1.217.118 1.83.18-10.7-14.204-18.09-31.536-18.09-50.704 0-19.752 6.773-37.93 18.09-52.38C38.28 4.008 12.395 24.338.837 52.135z"/><path id="n" d="M18.73 1.56C7.413 16.013.64 34.19.64 53.957c0 19.154 7.372 36.472 18.076 50.683 3.465.796 7.72 1.113 10.045 1.113 35.167 0 65.733-21.72 78.65-52.175l-88.694 51.06V1.59l88.695 51.99C94.64 22.798 64.148.968 28.76.968c-3.39 0-6.737.22-10.03.593z"/></defs><g style="mix-blend-mode:lighten" fill="none" fill-rule="evenodd"><g transform="translate(151.67 -2.087)"><mask id="b" fill="#fff"><use xlink:href="#a"/></mask><path d="M-12.237 182.016h100.57v-194.2h-100.57v194.2z" fill="#272252" mask="url(#b)"/></g><g transform="translate(.42 -35.463)"><mask id="d" fill="#fff"><use xlink:href="#c"/></mask><use xlink:href="#c"/><path d="M-12.794 130.457h178.498V-12.71H-12.794v143.167z" fill="#392352" mask="url(#d)"/></g><g transform="translate(74.83 -2.376)"><mask id="f" fill="#fff"><use xlink:href="#e"/></mask><path d="M-12.272 97.645h120.616V-12.632H-12.272V97.645z" fill="#231A4D" mask="url(#f)"/></g><g transform="translate(.42 81.63)"><mask id="h" fill="#fff"><use xlink:href="#g"/></mask><path d="M-12.794 130.88h177.46V-12.285h-177.46V130.88z" fill="#1F0D41" mask="url(#h)"/></g><g transform="translate(74.83 81.63)"><mask id="j" fill="#fff"><use xlink:href="#i"/></mask><path d="M-12.348 98.905h120.7V-12.06h-120.7V98.906z" fill="#241348" mask="url(#j)"/></g><g transform="translate(6.078 30.03)"><mask id="m" fill="#fff"><use xlink:href="#l"/></mask><path d="M-11.976 116.26h94.092V-12.464h-94.092V116.26z" fill="#311649" mask="url(#m)"/></g><g transform="translate(56.636 28.815)"><mask id="o" fill="#fff"><use xlink:href="#n"/></mask><path d="M-12.174 118.568h132.408V-11.86H-12.174v130.428z" fill="#1F0D41" mask="url(#o)"/></g></g></svg>