<svg xmlns="http://www.w3.org/2000/svg" xmlns:xlink="http://www.w3.org/1999/xlink" width="16" height="24" viewBox="0 0 16 24"><title>Padlock</title><defs><path id="a" d="M.667.806h14.75v22.126H.667z"/></defs><clipPath id="b"><use xlink:href="#a" overflow="visible"/></clipPath><g clip-path="url(#b)"><defs><path id="c" d="M.667 10.06h14.75v6.438c0 3.554-2.88 6.434-6.427 6.434H7.093c-3.55.002-6.427-2.887-6.427-6.434V10.06z"/></defs><clipPath id="d"><use xlink:href="#c" overflow="visible"/></clipPath><g clip-path="url(#d)"><defs><path id="e" d="M.667.806h14.75v22.126H.667z"/></defs><clipPath id="f"><use xlink:href="#e" overflow="visible"/></clipPath><path clip-path="url(#f)" fill="#FFF" d="M-3.943 5.45h23.97v22.092h-23.97z"/></g><g><defs><path id="g" d="M.667.806h14.75v22.126H.667z"/></defs><clipPath id="h"><use xlink:href="#g" overflow="visible"/></clipPath><g clip-path="url(#h)"><defs><path id="i" d="M.667.806h14.75v22.126H.667z"/></defs><clipPath id="j"><use xlink:href="#i" overflow="visible"/></clipPath><path clip-path="url(#j)" fill="none" stroke="#FFF" stroke-width="2.766" stroke-miterlimit="10" d="M12.7 11.23H3.384V6.94c0-2.37 1.92-4.292 4.29-4.292h.736c2.37 0 4.29 1.925 4.29 4.292v4.29z"/></g></g></g></svg>