<?xml version="1.0" encoding="UTF-8" standalone="no"?>
<svg width="318px" height="115px" viewBox="0 0 318 115" version="1.1" xmlns="http://www.w3.org/2000/svg" xmlns:xlink="http://www.w3.org/1999/xlink">
    <!-- Generator: Sketch 3.6.1 (26313) - http://www.bohemiancoding.com/sketch -->
    <title>los-logo</title>
    <desc>Created with Sketch.</desc>
    <defs></defs>
    <g id="Page-1" stroke="none" stroke-width="1" fill="none" fill-rule="evenodd">
        <g id="los-logo">
            <g transform="translate(2.000000, 3.000000)">
                <path d="M295.097786,44.8530191 L297.295259,41.8225803 C298.793463,43.4544797 301.224296,44.9194619 304.320367,44.9194619 C307.516913,44.9194619 308.748535,43.3540052 308.748535,41.8558017 C308.748535,37.195084 295.830277,40.091827 295.830277,31.9347608 C295.830277,28.239084 299.026823,25.4095941 303.9209,25.4095941 C307.349996,25.4095941 310.179486,26.5407418 312.211662,28.5388868 L310.013379,31.4356298 C308.249404,29.6708448 305.885014,28.8719109 303.554655,28.8719109 C301.290739,28.8719109 299.825757,30.0030587 299.825757,31.6349581 C299.825757,35.7965446 312.744015,33.2328258 312.744015,41.4911767 C312.744015,45.185233 310.113853,48.3817787 304.15426,48.3817787 C300.059117,48.3817787 297.095931,46.9167965 295.097786,44.8530191" id="Fill-22-Copy" fill="#6BB74C"></path>
                <path d="M297.586221,81.4000868 L286.000059,65.5186429 L286.000059,81.4000868 L282.104244,81.4000868 L282.104244,59.1928044 L286.099723,59.1928044 L297.453335,74.574307 L297.453335,59.1928044 L301.34834,59.1928044 L301.34834,81.4000868 L297.586221,81.4000868" id="Fill-30-Copy" fill="#FFFFFF"></path>
                <path d="M15.4187754,66.3157234 L5.14121235,56.0373501 C4.68907736,55.5852151 4.43951181,54.983989 4.43951181,54.3438696 C4.43951181,53.7029399 4.68907736,53.1009035 5.14121235,52.6487685 L15.4187754,42.3712055 L15.4187754,36.0931734 L2.00300661,49.5089422 C0.711423868,50.8005249 0,52.5166932 0,54.3438696 C0,56.1702356 0.711423868,57.8864039 2.00219633,59.1771764 L15.4187754,72.5937554 L15.4187754,66.3157234" id="Fill-33-Copy" fill="#FFFFFF"></path>
                <path d="M92.7475702,15.0147601 L17.902214,15.0147601 L17.902214,89.8601163 L27.4959026,89.8601163 L27.4959026,103.667249 L51.40963,89.8601163 L92.7475702,89.8601163 L92.7475702,15.0147601" id="Fill-3-Copy" fill="#4DAF46"></path>
                <path d="M45.9105166,39.5581181 L69.2092431,53.0095391 L45.9105166,66.4617703 L45.9105166,39.5581181" id="Fill-4-Copy" fill="#FFFFFF"></path>
                <path d="M92.7475702,15.0147601 L17.902214,15.0147601 L17.902214,89.8601163 L27.4959026,89.8601163 L27.4959026,103.667249 L51.40963,89.8601163 L92.7475702,89.8601163 L92.7475702,15.0147601" id="Fill-5-Copy" fill="#4DAF46"></path>
                <path d="M45.9105166,39.5581181 L69.2092431,53.0095391 L45.9105166,66.4617703 L45.9105166,39.5581181" id="Fill-6-Copy" fill="#FFFFFF"></path>
                <path d="M92.7475702,15.0147601 L17.902214,15.0147601 L17.902214,89.8601163 L27.4959026,89.8601163 L27.4959026,103.667249 L51.40963,89.8601163 L92.7475702,89.8601163 L92.7475702,15.0147601" id="Fill-7-Copy" fill="#4DAF46"></path>
                <path d="M27.4959026,89.8601163 L17.902214,89.8601163 L17.902214,15.0147601 L60.7237728,15.0147601 L27.4959026,89.8601163" id="Fill-8-Copy" fill="#448242"></path>
                <path d="M45.9105166,39.5581181 L69.2092431,53.0087288 L45.9105166,66.4617703 L45.9105166,39.5581181" id="Fill-9-Copy" fill="#FFFFFF"></path>
                <path d="M15.3500004,12.6700001 L15.3500004,92.2068608 L24.8586726,92.2068613 L24.8586726,108.154777 L52.3134322,92.2068613 L95.5000019,92.2068608 L95.5000019,12.6700001 L15.3500004,12.6700001 Z" id="Fill-10-Copy" fill="#102E09"></path>
                <path d="M92.7475702,15.0147601 L17.902214,15.0147601 L17.902214,89.8601163 L27.4959026,89.8601163 L27.4959026,103.667249 L51.4104403,89.8601163 L92.7475702,89.8601163 L92.7475702,15.0147601" id="Fill-10-Copy" fill="#6BB74C"></path>
                <path d="M92.7475702,15.0147601 L17.902214,15.0147601 L17.902214,89.8601163 L27.4959026,89.8601163 L27.4959026,103.667249 L92.7265029,41.6526413 L92.7475702,15.0147601" id="Fill-11-Copy" fill="#588D49"></path>
                <path d="M60.7237728,15.0147601 L17.902214,15.0147601 L17.902214,89.8601163 L27.4959026,89.8601163" id="Fill-12-Copy" fill="#43693C"></path>
                <path d="M46.4880074,40.7130996 L69.7867339,54.1637103 L46.4880074,67.6159416 L46.4880074,40.7130996" id="Fill-13-Copy" fill="#FFFFFF"></path>
                <path d="M107.122802,49.6624697 L95.5747232,38.1143911 L95.5747232,44.3924232 L103.983786,52.8014857 C104.436731,53.2536207 104.685486,53.8556571 104.685486,54.4965868 C104.685486,55.1367062 104.436731,55.7379323 103.983786,56.1908776 L95.5747232,64.5999401 L95.5747232,70.8779721 L107.121992,59.3298936 C108.413574,58.0391211 109.124998,56.3229528 109.124998,54.4965868 C109.124998,52.6694104 108.413574,50.9532422 107.122802,49.6624697" id="Fill-31-Copy" fill="#FFFFFF"></path>
                <path d="M121.850554,47.9056219 L121.850554,25.6983395 L125.745559,25.6983395 L125.745559,44.4765264 L135.533714,44.4765264 L135.533714,47.9056219 L121.850554,47.9056219" id="Fill-14-Copy" fill="#6BB74C"></path>
                <path d="M147.730042,29.5941549 L143.734562,40.1820543 L151.725521,40.1820543 L147.730042,29.5941549 L147.730042,29.5941549 Z M154.455347,47.9056219 L152.823448,43.6111498 L142.635825,43.6111498 L141.004736,47.9056219 L136.576568,47.9056219 L145.300019,25.6983395 L150.160875,25.6983395 L158.883515,47.9056219 L154.455347,47.9056219 L154.455347,47.9056219 Z" id="Fill-15-Copy" fill="#6BB74C"></path>
                <path d="M176.890649,47.9056219 L165.303677,32.0241779 L165.303677,47.9056219 L161.408672,47.9056219 L161.408672,25.6983395 L165.404151,25.6983395 L176.757763,41.0806524 L176.757763,25.6983395 L180.652768,25.6983395 L180.652768,47.9056219 L176.890649,47.9056219" id="Fill-16-Copy" fill="#6BB74C"></path>
                <path d="M184.508303,36.8952813 C184.508303,29.9033945 189.702183,25.4095941 196.160907,25.4095941 C200.4886,25.4095941 203.319711,27.4733715 205.084496,30.0030587 L201.921172,31.8350967 C200.722771,30.1699759 198.624962,28.8719109 196.160907,28.8719109 C191.76596,28.8719109 188.502972,32.2013422 188.502972,36.8952813 C188.502972,41.5235878 191.76596,44.9194619 196.160907,44.9194619 C198.424823,44.9194619 200.422968,43.887168 201.42204,42.9221272 L201.42204,39.4922215 L194.763178,39.4922215 L194.763178,36.0623157 L205.283014,36.0623157 L205.283014,44.3530777 C203.119572,46.783911 199.99028,48.4158104 196.160907,48.4158104 C189.702183,48.4158104 184.508303,43.8539466 184.508303,36.8952813" id="Fill-17-Copy" fill="#6BB74C"></path>
                <path d="M139.983997,70.1026214 C139.983997,65.5075362 137.087254,62.0784408 132.626675,62.0784408 C128.132064,62.0784408 125.267732,65.5075362 125.267732,70.1026214 C125.267732,74.6636748 128.132064,78.1259917 132.626675,78.1259917 C137.087254,78.1259917 139.983997,74.6636748 139.983997,70.1026214 L139.983997,70.1026214 Z M121.273063,70.1026214 C121.273063,63.4761699 125.967002,58.6153137 132.626675,58.6153137 C139.251506,58.6153137 143.979476,63.4761699 143.979476,70.1026214 C143.979476,76.7274523 139.251506,81.5883085 132.626675,81.5883085 C125.967002,81.5883085 121.273063,76.7274523 121.273063,70.1026214 L121.273063,70.1026214 Z" id="Fill-23-Copy" fill="#FFFFFF"></path>
                <path d="M163.03087,81.4000868 L151.445519,65.5186429 L151.445519,81.4000868 L147.548893,81.4000868 L147.548893,59.1928044 L151.545183,59.1928044 L162.897984,74.574307 L162.897984,59.1928044 L166.79299,59.1928044 L166.79299,81.4000868 L163.03087,81.4000868" id="Fill-24-Copy" fill="#FFFFFF"></path>
                <path d="M178.733395,78.0595489 L180.930868,75.0299204 C182.429882,76.6618198 184.859905,78.1259917 187.955976,78.1259917 C191.151712,78.1259917 192.384144,76.5613453 192.384144,75.0639521 C192.384144,70.4016139 179.466696,73.2983568 179.466696,65.142101 C179.466696,61.4456138 182.662432,58.6153137 187.55732,58.6153137 C190.985605,58.6153137 193.815905,59.7472717 195.847271,61.7454166 L193.649798,64.6421596 C191.884203,62.8773746 189.520623,62.0784408 187.189453,62.0784408 C184.926348,62.0784408 183.461366,63.2112091 183.461366,64.8422982 C183.461366,69.0038847 196.379624,66.4401659 196.379624,74.6968962 C196.379624,78.3925731 193.749462,81.5883085 187.789059,81.5883085 C183.693915,81.5883085 180.730729,80.1241366 178.733395,78.0595489" id="Fill-25-Copy" fill="#FFFFFF"></path>
                <path d="M209.340406,39.1165391 L209.340406,25.6983395 L213.301854,25.6983395 L213.301854,39.0160646 C213.301854,42.5464448 215.266777,44.842772 218.961644,44.842772 C222.658131,44.842772 224.622244,42.5464448 224.622244,39.0160646 L224.622244,25.6983395 L228.584503,25.6983395 L228.584503,39.1165391 C228.584503,44.609412 225.421178,48.3050888 218.961644,48.3050888 C212.536141,48.3050888 209.340406,44.609412 209.340406,39.1165391" id="Fill-18-Copy" fill="#6BB74C"></path>
                <path d="M240.993991,29.5941549 L236.998512,40.1820543 L244.989471,40.1820543 L240.993991,29.5941549 L240.993991,29.5941549 Z M247.720107,47.9056219 L246.087397,43.6111498 L235.900585,43.6111498 L234.268686,47.9056219 L229.841328,47.9056219 L238.563968,25.6983395 L243.424014,25.6983395 L252.147465,47.9056219 L247.720107,47.9056219 L247.720107,47.9056219 Z" id="Fill-19-Copy" fill="#6BB74C"></path>
                <path d="M252.363469,36.8952813 C252.363469,29.9033945 257.558159,25.4095941 264.016883,25.4095941 C268.345387,25.4095941 271.175687,27.4733715 272.940472,30.0030587 L269.777148,31.8350967 C268.577937,30.1699759 266.480938,28.8719109 264.016883,28.8719109 C259.621937,28.8719109 256.358948,32.2013422 256.358948,36.8952813 C256.358948,41.5235878 259.621937,44.9194619 264.016883,44.9194619 C266.280799,44.9194619 268.278944,43.887168 269.278017,42.9221272 L269.278017,39.4922215 L262.618344,39.4922215 L262.618344,36.0623157 L273.139801,36.0623157 L273.139801,44.3530777 C270.975549,46.783911 267.845446,48.4158104 264.016883,48.4158104 C257.558159,48.4158104 252.363469,43.8539466 252.363469,36.8952813" id="Fill-20-Copy" fill="#6BB74C"></path>
                <path d="M277.195572,47.9056219 L277.195572,25.6983395 L292.410157,25.6983395 L292.410157,29.1282452 L281.090577,29.1282452 L281.090577,34.8552884 L292.177608,34.8552884 L292.177608,38.2835736 L281.090577,38.2835736 L281.090577,44.4765264 L292.410157,44.4765264 L292.410157,47.9056219 L277.195572,47.9056219" id="Fill-21-Copy" fill="#6BB74C"></path>
                <path d="M198.945572,70.1026214 C198.945572,63.2436202 204.038978,58.6153137 210.598176,58.6153137 C215.059566,58.6153137 217.856644,60.9132614 219.487734,63.5766443 L216.191524,65.3082079 C215.126819,63.4437588 212.962567,62.0784408 210.598176,62.0784408 C206.20323,62.0784408 202.940241,65.4078721 202.940241,70.1026214 C202.940241,74.7309279 206.20323,78.1259917 210.598176,78.1259917 C212.962567,78.1259917 215.126819,76.7274523 216.191524,74.8970348 L219.520955,76.5613453 C217.823423,79.2247283 215.059566,81.5883085 210.598176,81.5883085 C204.038978,81.5883085 198.945572,76.9275909 198.945572,70.1026214" id="Fill-26-Copy" fill="#FFFFFF"></path>
                <path d="M235.673838,66.1174381 C235.673838,63.9864076 234.07597,62.6218999 231.878497,62.6218999 L226.517699,62.6218999 L226.517699,69.6802294 L231.878497,69.6802294 C234.07597,69.6802294 235.673838,68.2825003 235.673838,66.1174381 L235.673838,66.1174381 Z M235.307592,81.4000868 L230.412704,73.1093249 L226.517699,73.1093249 L226.517699,81.4000868 L222.622694,81.4000868 L222.622694,59.1928044 L232.377628,59.1928044 C236.772574,59.1928044 239.669317,62.0231046 239.669317,66.1514698 C239.669317,70.0796963 237.072377,72.2439482 234.374962,72.6766365 L239.835424,81.4000868 L235.307592,81.4000868 L235.307592,81.4000868 Z" id="Fill-27-Copy" fill="#FFFFFF"></path>
                <path d="M243.701107,81.4000868 L243.701107,59.1928044 L258.917313,59.1928044 L258.917313,62.6218999 L247.596922,62.6218999 L247.596922,68.348943 L258.683953,68.348943 L258.683953,71.7780385 L247.596922,71.7780385 L247.596922,77.9701811 L258.917313,77.9701811 L258.917313,81.4000868 L243.701107,81.4000868" id="Fill-28-Copy" fill="#FFFFFF"></path>
                <path d="M262.758303,81.4000868 L262.758303,59.1928044 L277.973698,59.1928044 L277.973698,62.6218999 L266.654118,62.6218999 L266.654118,68.348943 L277.740338,68.348943 L277.740338,71.7780385 L266.654118,71.7780385 L266.654118,77.9701811 L277.973698,77.9701811 L277.973698,81.4000868 L262.758303,81.4000868" id="Fill-29-Copy" fill="#FFFFFF"></path>
                <path d="M45.5465945,12.5220324 L52.9274145,5.14121235 C53.3795495,4.68907736 53.9815859,4.43951181 54.6217053,4.43951181 C55.2618247,4.43951181 55.8638611,4.68907736 56.3159961,5.14202263 L63.6968161,12.5220324 L69.9748482,12.5220324 L59.4558224,2.00300661 C58.1642396,0.711423868 56.4472611,0 54.6217053,0 C52.7953392,0 51.079171,0.711423868 49.7883985,2.00300661 L39.2693727,12.5220324 L45.5465945,12.5220324" id="Fill-35-Copy" fill="#FFFFFF"></path>
                <path d="M67.4568899,92.398524 L56.0992266,103.755377 C55.1949567,104.660457 53.6165356,104.662078 52.7106451,103.755377 L45.2755364,96.3202683 L41.2905904,98.6133544 L49.5708188,106.894393 C50.8624015,108.185165 52.5785698,108.896589 54.4049359,108.896589 C56.2304916,108.896589 57.9474702,108.185976 59.2390529,106.894393 L73.734922,92.398524 L67.4568899,92.398524" id="Fill-36-Copy" fill="#FFFFFF"></path>
            </g>
        </g>
    </g>
</svg>