<svg width="196" height="113" viewBox="0 0 196 113" xmlns="http://www.w3.org/2000/svg" xmlns:xlink="http://www.w3.org/1999/xlink"><defs><path d="M.65 1.637L1.707 3.52c.847-.785 1.86-1.206 2.94-1.206 1.355 0 2.244.677 2.244 1.712v1.29C6.215 4.515 5.03 4.07 3.654 4.07c-1.628 0-3.535.888-3.535 3.3 0 2.287 1.907 3.386 3.535 3.386 1.333 0 2.54-.486 3.238-1.333v1.08H9.6V3.9C9.598.958 7.463.028 5.112.028 3.504.028 1.898.514.65 1.638zm2.157 5.778c0-.976.868-1.548 1.923-1.548.872 0 1.716.32 2.16.91v1.27c-.444.595-1.288.89-2.16.89-1.055 0-1.923-.552-1.923-1.522z" id="a"/><path id="c" d="M2.562.826V3.62H.87v2.35H2.56v5.312c0 1.838.996 2.813 2.877 2.813 1.122 0 1.842-.296 2.244-.654l-.572-2.054c-.147.17-.53.32-.93.32-.594 0-.932-.488-.932-1.14V5.968h2.075V3.62H5.25V.825H2.562z"/><path d="M.907 2.025c0 .89.72 1.61 1.586 1.61.887 0 1.608-.72 1.608-1.61C4.1 1.137 3.38.44 2.494.44 1.627.44.907 1.136.907 2.024zm.254 12.93H3.85V4.73H1.16v10.224z" id="e"/><path d="M.1 5.38c0 2.9 2.034 5.376 5.398 5.376 3.386 0 5.416-2.476 5.416-5.375 0-2.898-2.03-5.35-5.416-5.35C2.134.03.1 2.48.1 5.38zm2.794 0c0-1.586.93-2.963 2.604-2.963 1.692 0 2.624 1.377 2.624 2.964 0 1.608-.932 2.984-2.624 2.984-1.673 0-2.604-1.376-2.604-2.983z" id="g"/><path id="i" d="M3.153 1.596V.28H.466V10.5h2.687v-6.9c.466-.59 1.27-1.183 2.327-1.183 1.146 0 1.885.484 1.885 1.905v6.177h2.71V3.287c0-1.99-1.08-3.26-3.347-3.26-1.65 0-2.917.807-3.575 1.57z"/><path d="M1.268 1.637L2.326 3.52c.847-.785 1.862-1.206 2.942-1.206 1.353 0 2.24.677 2.24 1.712v1.29C6.833 4.515 5.65 4.07 4.274 4.07c-1.63 0-3.536.888-3.536 3.3 0 2.287 1.906 3.386 3.536 3.386 1.332 0 2.54-.486 3.236-1.333v1.08h2.708V3.9c0-2.942-2.14-3.872-4.486-3.872-1.61 0-3.213.486-4.464 1.61zm2.16 5.778c0-.976.866-1.548 1.922-1.548.868 0 1.718.32 2.16.91v1.27c-.442.595-1.292.89-2.16.89-1.056 0-1.923-.552-1.923-1.522z" id="k"/><path d="M.116 2.025c0 .89.72 1.61 1.588 1.61.89 0 1.607-.72 1.607-1.61C3.31 1.137 2.594.44 1.705.44.834.44.116 1.136.116 2.024zm.254 12.93h2.686V4.73H.37v10.224z" id="m"/><path d="M1.08.84v14.114h2.687v-1.312c.803 1.015 1.926 1.566 3.152 1.566 2.583 0 4.528-1.95 4.528-5.374 0-3.323-1.924-5.355-4.53-5.355-1.203 0-2.348.506-3.15 1.568V.84H1.08zm2.687 10.834V8.056c.465-.677 1.44-1.185 2.327-1.185 1.547 0 2.583 1.205 2.583 2.964 0 1.777-1.036 2.982-2.583 2.982-.887 0-1.862-.486-2.327-1.142z" id="o"/><path id="q" d="M3.708 1.656V.28H1.02V10.5H3.71v-6.75c.446-.656 1.63-1.163 2.518-1.163.32 0 .55.018.74.06V.03c-1.27 0-2.516.738-3.258 1.628z"/><path d="M.548 1.637l1.06 1.882c.845-.785 1.862-1.206 2.94-1.206 1.354 0 2.243.677 2.243 1.712v1.29C6.117 4.515 4.93 4.07 3.554 4.07 1.927 4.07.02 4.958.02 7.37c0 2.287 1.907 3.386 3.533 3.386 1.335 0 2.54-.486 3.238-1.333v1.08H9.5V3.9C9.5.958 7.36.028 5.016.028 3.407.028 1.8.514.548 1.638zm2.16 5.778c0-.976.868-1.548 1.927-1.548.868 0 1.714.32 2.156.91v1.27c-.44.595-1.287.89-2.155.89-1.06 0-1.927-.552-1.927-1.522z" id="s"/><path id="u" d="M3.487 1.656V.28H.8V10.5h2.687v-6.75c.445-.656 1.63-1.163 2.52-1.163.316 0 .55.018.74.06V.03c-1.27 0-2.518.738-3.26 1.628z"/><path id="w" d="M8.32.28L5.632 7.39 2.965.28H.088l4.146 10.35-.38.887c-.252.55-.72.742-1.417.742-.253 0-.614-.064-.85-.17L1.21 14.48c.315.106 1.016.167 1.31.167 1.757-.043 3.112-.55 3.873-2.476L11.2.28H8.32z"/><path d="M.298 5.78c0 2.9 2.033 5.373 5.398 5.373 3.384 0 5.415-2.474 5.415-5.374C11.11 2.88 9.08.43 5.697.43 2.33.43.298 2.88.298 5.78zm2.793 0c0-1.586.932-2.962 2.606-2.962 1.69 0 2.623 1.376 2.623 2.96 0 1.612-.933 2.987-2.624 2.987-1.674 0-2.605-1.375-2.605-2.986z" id="y"/><path id="A" d="M2.48 3.687v.424H.79v2.35h1.69v7.874h2.69V6.46H7.24V4.11H5.17v-.423c0-.99.507-1.48 1.268-1.48.487 0 .848.15 1.123.4L8.574.98C7.96.28 6.903.006 5.91.006c-2.053 0-3.43 1.374-3.43 3.68z"/><path id="C" d="M1.316 4.3c0 5.313 8.127 3.6 8.127 6.053 0 .826-.784 1.568-2.457 1.568-1.943 0-3.49-.89-4.485-1.926l-1.65 2.35c1.334 1.33 3.28 2.24 6.01 2.24 3.787 0 5.65-1.945 5.65-4.526 0-5.268-8.106-3.767-8.106-5.988 0-.848.72-1.398 1.99-1.398 1.44 0 2.962.487 4.107 1.544l1.672-2.243C10.776.683 8.912.007 6.67.007 3.346.007 1.316 1.95 1.316 4.3z"/><path id="E" d="M.482 5.78c0 3.153 2.286 5.373 5.418 5.373 2.094 0 3.365-.928 4.042-1.86l-1.757-1.65c-.49.698-1.227 1.122-2.158 1.122-1.632 0-2.773-1.206-2.773-2.986 0-1.78 1.14-2.962 2.773-2.962.93 0 1.67.38 2.158 1.102l1.757-1.652C9.265 1.338 7.994.428 5.9.428 2.768.43.482 2.65.482 5.78z"/><path d="M1.06 5.78c0 2.9 2.033 5.373 5.395 5.373 3.386 0 5.417-2.474 5.417-5.374 0-2.898-2.03-5.35-5.417-5.35C3.093.43 1.06 2.88 1.06 5.78zm2.792 0c0-1.586.932-2.962 2.603-2.962 1.694 0 2.626 1.376 2.626 2.96 0 1.612-.93 2.987-2.625 2.987-1.67 0-2.603-1.375-2.603-2.986z" id="G"/><path id="I" d="M1.79.262v2.79H.097v2.35H1.79v5.312c0 1.842.992 2.814 2.876 2.814 1.123 0 1.843-.298 2.243-.655l-.57-2.052c-.147.17-.53.318-.93.318-.594 0-.935-.488-.935-1.143V5.4h2.077V3.054H4.475V.263H1.79z"/><path d="M1.372 2.035l1.06 1.885c.845-.784 1.86-1.208 2.938-1.208 1.356 0 2.243.678 2.243 1.717v1.29c-.677-.804-1.86-1.25-3.238-1.25-1.628 0-3.535.89-3.535 3.3 0 2.286 1.907 3.383 3.535 3.383 1.334 0 2.54-.484 3.238-1.33v1.08h2.71v-6.6c0-2.945-2.137-3.874-4.488-3.874-1.608 0-3.215.485-4.463 1.605zM3.53 7.813c0-.974.867-1.545 1.926-1.545.87 0 1.714.316 2.157.91v1.27c-.443.593-1.288.89-2.157.89-1.06 0-1.926-.552-1.926-1.525z" id="K"/><path id="M" d="M3.25 1.994V.68H.56v10.223h2.69V4c.462-.588 1.268-1.18 2.325-1.18 1.142 0 1.883.487 1.883 1.904v6.18h2.71V3.687c0-1.99-1.078-3.26-3.343-3.26-1.652 0-2.92.805-3.575 1.566z"/><path d="M8.733.348v5.206c-.804-1.06-1.948-1.568-3.15-1.568-2.606 0-4.53 2.033-4.53 5.353 0 3.43 1.968 5.373 4.53 5.373 1.245 0 2.346-.55 3.15-1.564v1.312h2.71V.348h-2.71zm-4.91 8.99c0-1.754 1.06-2.96 2.602-2.96.89 0 1.865.488 2.308 1.163v3.62c-.443.677-1.418 1.165-2.308 1.165-1.543 0-2.602-1.206-2.602-2.986z" id="O"/><path d="M.78 4.706c0 2.236 1.525 3.763 3.66 3.763 1.153 0 2.117-.404 2.842-1.112l-.533-.726c-.578.59-1.393.92-2.223.92-1.54 0-2.475-1.128-2.564-2.476h5.78v-.282c0-2.147-1.277-3.836-3.44-3.836C2.26.958.78 2.633.78 4.706zm3.51-2.83c1.63 0 2.34 1.317 2.355 2.372H1.948c.062-1.085.817-2.37 2.343-2.37z" id="Q"/><path d="M.582 2.14l.518.773c.637-.696 1.334-.99 2.193-.99 1.037 0 1.807.546 1.807 1.495v1.288c-.578-.65-1.392-.964-2.37-.964-1.215 0-2.487.74-2.487 2.356 0 1.554 1.285 2.37 2.486 2.37.963 0 1.792-.34 2.37-.992v.814h1.112V3.372c0-1.733-1.246-2.414-2.77-2.414-1.17 0-2.09.385-2.86 1.183zM1.368 6.1c0-.9.724-1.555 1.778-1.555.768 0 1.526.296 1.954.873V6.78c-.428.592-1.186.89-1.954.89-1.054 0-1.778-.655-1.778-1.572z" id="S"/><path d="M.656.637v9.877h1.11V9.452c.53.724 1.408 1.243 2.414 1.243 1.867 0 3.186-1.422 3.186-3.748 0-2.295-1.305-3.763-3.186-3.763-.963 0-1.836.473-2.413 1.26V.637H.657zm1.11 7.94V5.33c.385-.62 1.258-1.153 2.146-1.153 1.44 0 2.3 1.185 2.3 2.77 0 1.584-.86 2.755-2.3 2.755-.888 0-1.76-.504-2.145-1.126z" id="U"/><path id="W" d="M.282.637v9.88h1.11v-5.23c.413-.575 1.244-1.11 2.103-1.11.977 0 1.614.357 1.614 1.628v4.71H6.22V5.468c0-1.558-.787-2.283-2.284-2.283-1.08 0-2.058.608-2.547 1.213V.637H.283z"/><path d="M.604 2.14l.518.773c.638-.696 1.333-.99 2.192-.99 1.037 0 1.808.546 1.808 1.495v1.288c-.578-.65-1.393-.964-2.37-.964-1.214 0-2.49.74-2.49 2.356 0 1.554 1.29 2.37 2.49 2.37.963 0 1.792-.34 2.37-.992v.814h1.11V3.372c0-1.733-1.245-2.414-2.77-2.414-1.17 0-2.09.385-2.858 1.183zM1.39 6.1c0-.9.725-1.555 1.775-1.555.772 0 1.527.296 1.957.873V6.78c-.43.592-1.185.89-1.957.89-1.05 0-1.776-.655-1.776-1.572z" id="Y"/><path id="aa" d="M1.79 2.277V1.135H.675V8.29H1.79V3.225c.322-.58 1.255-1.143 1.952-1.143.163 0 .296.016.43.034V.973c-.978 0-1.807.563-2.383 1.304z"/><path d="M1.058 2.14l.517.773c.64-.696 1.335-.99 2.195-.99 1.038 0 1.806.546 1.806 1.495v1.288c-.575-.65-1.392-.964-2.368-.964-1.216 0-2.49.74-2.49 2.356 0 1.554 1.288 2.37 2.49 2.37.96 0 1.793-.34 2.368-.992v.814h1.112V3.372c0-1.733-1.244-2.414-2.77-2.414-1.17 0-2.09.385-2.86 1.183zM1.844 6.1c0-.9.725-1.555 1.775-1.555.772 0 1.53.296 1.956.873V6.78c-.426.592-1.184.89-1.957.89-1.05 0-1.776-.655-1.776-1.572z" id="ac"/><path id="ae" d="M1.13 2.17V1.136H.018V8.29H1.13V3.06c.427-.574 1.242-1.11 2.118-1.11.962 0 1.612.387 1.612 1.66v4.68h1.098V3.268c0-1.554-.785-2.31-2.267-2.31-1.08 0-2.058.608-2.56 1.213z"/><path id="ag" d="M1.513 2.17V1.136H.4V8.29h1.113V3.06c.428-.574 1.242-1.11 2.118-1.11.962 0 1.614.387 1.614 1.66v4.68h1.098V3.268c0-1.554-.787-2.31-2.27-2.31-1.08 0-2.056.608-2.56 1.213z"/><path d="M1.094.147L3.597 2.28h.844L2.248.146H1.094zM.59 4.367l.517.772c.638-.697 1.335-.99 2.194-.99 1.037 0 1.81.545 1.81 1.494v1.288c-.58-.65-1.394-.964-2.372-.964-1.214 0-2.49.74-2.49 2.356 0 1.554 1.29 2.37 2.49 2.37.963 0 1.793-.34 2.37-.992v.814h1.11V5.598c0-1.733-1.243-2.414-2.77-2.414-1.17 0-2.09.385-2.857 1.183zm.785 3.957c0-.9.725-1.555 1.776-1.555.772 0 1.53.295 1.96.872v1.363c-.43.593-1.188.89-1.96.89-1.05 0-1.775-.654-1.775-1.57z" id="ai"/><path d="M.467 1.598c0 .418.343.74.756.74.416 0 .74-.322.74-.74 0-.413-.324-.753-.74-.753-.413 0-.756.34-.756.753zm.195 8.918h1.11V3.36H.662v7.156z" id="ak"/><path id="am" d="M.24 3.017c0 2.653 4.428 1.585 4.428 3.318 0 .71-.61 1.23-1.702 1.23-.98 0-1.883-.474-2.354-1.023l-.566.802C.77 8.097 1.75 8.47 2.936 8.47c1.834 0 2.8-.964 2.8-2.165 0-2.785-4.43-1.762-4.43-3.32 0-.635.608-1.124 1.584-1.124.934 0 1.707.388 2.135.908l.518-.772C4.98 1.416 4.12.958 2.89.958 1.188.958.24 1.89.24 3.018z"/><path d="M.45 4.706c0 2.236 1.524 3.763 3.656 3.763 1.156 0 2.12-.404 2.846-1.112l-.534-.726c-.577.59-1.394.92-2.223.92-1.54 0-2.474-1.128-2.562-2.476H7.41v-.282C7.41 2.647 6.136.958 3.97.958 1.928.958.45 2.633.45 4.706zm3.51-2.83c1.627 0 2.337 1.317 2.355 2.372H1.618c.06-1.085.815-2.37 2.34-2.37z" id="ao"/><path d="M1.363 2.14l.52.773c.638-.696 1.33-.99 2.192-.99 1.035 0 1.807.546 1.807 1.495v1.288c-.575-.65-1.392-.964-2.37-.964-1.214 0-2.49.74-2.49 2.356 0 1.554 1.29 2.37 2.49 2.37.96 0 1.795-.34 2.37-.992v.814h1.11V3.372c0-1.733-1.246-2.414-2.77-2.414-1.17 0-2.09.385-2.86 1.183zM2.148 6.1c0-.9.726-1.555 1.778-1.555.77 0 1.527.296 1.956.873V6.78c-.43.592-1.187.89-1.956.89-1.052 0-1.778-.655-1.778-1.572z" id="aq"/><path id="as" d="M1.434 2.17V1.136H.324V8.29h1.11V3.06c.43-.574 1.244-1.11 2.12-1.11.96 0 1.614.387 1.614 1.66v4.68H6.26V3.268c0-1.554-.783-2.31-2.264-2.31-1.082 0-2.06.608-2.562 1.213z"/><path id="au" d="M2.042.295v1.953H.857v.98h1.185v4.68c0 1.064.53 1.674 1.6 1.674.636 0 1.036-.195 1.318-.46l-.328-.845c-.146.162-.428.312-.754.312-.473 0-.712-.386-.712-.92V3.228h1.45v-.98h-1.45V.295H2.042z"/><path d="M.563 2.14l.517.773c.638-.696 1.334-.99 2.193-.99 1.037 0 1.807.546 1.807 1.495v1.288c-.577-.65-1.39-.964-2.37-.964-1.212 0-2.49.74-2.49 2.356 0 1.554 1.29 2.37 2.49 2.37.962 0 1.793-.34 2.37-.992v.814h1.113V3.372c0-1.733-1.246-2.414-2.77-2.414-1.17 0-2.09.385-2.86 1.183zM1.35 6.1c0-.9.724-1.555 1.775-1.555.77 0 1.53.296 1.955.873V6.78c-.425.592-1.186.89-1.955.89-1.05 0-1.776-.655-1.776-1.572z" id="aw"/><path id="ay" d="M1.46 2.035V.997H.348v7.155H1.46v-5.23c.43-.576 1.242-1.11 2.117-1.11.963 0 1.614.386 1.614 1.657V8.15H6.29V3.128c0-1.552-.784-2.31-2.268-2.31-1.08 0-2.058.606-2.56 1.217z"/><path d="M.416 2l.517.774c.637-.696 1.334-.99 2.193-.99 1.04 0 1.807.547 1.807 1.495v1.287c-.576-.65-1.39-.963-2.37-.963-1.213 0-2.486.74-2.486 2.353 0 1.56 1.285 2.373 2.486 2.373.963 0 1.794-.34 2.37-.99v.812h1.113v-4.92C6.046 1.5 4.8.82 3.276.82c-1.17 0-2.09.384-2.86 1.18zm.786 3.957c0-.902.723-1.553 1.777-1.553.77 0 1.527.297 1.953.874V6.64c-.426.593-1.184.89-1.954.89-1.055 0-1.778-.654-1.778-1.573z" id="aA"/><path id="aC" d="M.138.31v9.878h1.11V4.96c.416-.576 1.245-1.11 2.104-1.11.978 0 1.615.356 1.615 1.63v4.708h1.11V5.14c0-1.557-.784-2.284-2.282-2.284-1.08 0-2.057.605-2.547 1.215V.31H.138z"/><path d="M.173.31v9.878h1.11V9.125c.532.724 1.408 1.243 2.414 1.243 1.868 0 3.187-1.42 3.187-3.75 0-2.293-1.306-3.762-3.187-3.762-.962 0-1.835.474-2.413 1.262V.31H.174zm1.11 7.938V5.004c.386-.62 1.26-1.153 2.147-1.153 1.44 0 2.3 1.186 2.3 2.768 0 1.587-.86 2.76-2.3 2.76-.888 0-1.76-.507-2.146-1.13z" id="aE"/><path d="M.925 2l.52.774c.635-.696 1.333-.99 2.192-.99 1.035 0 1.807.547 1.807 1.495v1.287c-.577-.65-1.393-.963-2.37-.963-1.215 0-2.49.74-2.49 2.353 0 1.56 1.29 2.373 2.49 2.373.964 0 1.793-.34 2.37-.99v.812h1.11v-4.92C6.554 1.5 5.31.82 3.784.82c-1.17 0-2.09.384-2.86 1.18zm.785 3.957c0-.902.726-1.553 1.778-1.553.77 0 1.525.297 1.956.874V6.64c-.43.593-1.185.89-1.956.89-1.052 0-1.778-.654-1.778-1.573z" id="aG"/><path d="M128.147 1.947c0 .53.426.957.956.957.527 0 .954-.428.954-.957 0-.527-.427-.955-.954-.955-.53 0-.956.428-.956.955zm-99.35 0c0 .53.426.957.954.957.53 0 .96-.428.96-.957 0-.527-.43-.955-.96-.955-.527 0-.953.428-.953.955zm91.194-.88v9.8h1.542V5.9c.353-.47 1.03-.94 1.823-.94.867 0 1.426.323 1.426 1.44v4.468h1.544V5.84c0-1.453-.764-2.246-2.293-2.246-1.115 0-2.027.573-2.498 1.13V1.067h-1.54zm-19.443 0l-3.85 9.8h1.952l.72-1.894h4.498l.72 1.895h1.954l-3.85-9.802h-2.145zm1.072 1.718l1.763 4.674h-3.527l1.763-4.675zm-48.382 8.083h1.72V1.066h-1.72v9.802zM8.678 1.066l-2.66 6.73-2.676-6.73H.917v9.802h1.72V3.3l3.01 7.568h.737l3-7.568v7.568H11.1V1.066H8.677zM138.83 7.312c0 2.25 1.57 3.732 3.716 3.732 1.118 0 2.16-.366 2.883-1.043l-.707-1.013c-.512.515-1.323.794-2.026.794-1.338 0-2.132-.895-2.25-1.953h5.468v-.383c0-2.235-1.353-3.85-3.484-3.85-2.1 0-3.598 1.662-3.598 3.718zm3.586-2.454c1.394 0 1.97 1.03 2.013 1.866h-3.997c.058-.853.675-1.866 1.985-1.866zm-30.19 2.454c0 2.145 1.516 3.732 3.663 3.732 1.395 0 2.22-.602 2.717-1.263l-1.012-.955c-.398.56-.94.852-1.632.852-1.28 0-2.146-.983-2.146-2.365 0-1.38.866-2.35 2.146-2.35.69 0 1.234.262 1.632.82l1.012-.924c-.498-.676-1.322-1.264-2.716-1.264-2.146 0-3.66 1.574-3.66 3.718zM109.1 4.798V3.77h-1.545v7.098h1.545V6.034c.308-.515 1.175-.955 1.837-.955.19 0 .338.013.47.04V3.595c-.912 0-1.764.53-2.307 1.204zM85.26 7.312c0 2.25 1.575 3.732 3.72 3.732 1.117 0 2.16-.366 2.88-1.043l-.706-1.013c-.514.515-1.323.794-2.027.794-1.338 0-2.132-.895-2.25-1.953h5.468v-.383c0-2.235-1.352-3.85-3.484-3.85-2.1 0-3.6 1.662-3.6 3.718zm3.587-2.454c1.396 0 1.97 1.03 2.015 1.866h-3.998c.058-.853.675-1.866 1.983-1.866zm-12.124 2.38c0 2.337 1.337 3.646 3.144 3.646.927 0 1.736-.472 2.28-1.19v.806c0 1.514-1.09 1.986-2.104 1.986-.94 0-1.674-.252-2.263-.912l-.718 1.117c.88.794 1.777 1.06 2.98 1.06 1.736 0 3.647-.692 3.647-3.25V3.77h-1.543v.986c-.575-.765-1.384-1.162-2.28-1.162-1.836 0-3.144 1.335-3.144 3.644zm1.586 0c0-1.367.78-2.277 2.014-2.277.72 0 1.47.427 1.823.94v2.66c-.353.515-1.103.942-1.823.942-1.235 0-2.015-.896-2.015-2.264zm-9.112-2.5l.647 1.074c.602-.617 1.308-.91 2.1-.91.97 0 1.662.5 1.662 1.323v1.057c-.53-.602-1.338-.91-2.307-.91-1.16 0-2.455.677-2.455 2.322 0 1.558 1.308 2.35 2.455 2.35.94 0 1.778-.338 2.307-.956v.78h1.542V6.152c0-1.897-1.382-2.558-2.97-2.558-1.13 0-2.16.353-2.982 1.145zm1.19 3.97c0-.765.66-1.28 1.53-1.28.66 0 1.323.25 1.69.736v1.088c-.367.484-1.03.735-1.69.735-.87 0-1.53-.5-1.53-1.28zm-7.584-3.82c-.235-.764-.88-1.294-1.94-1.294-1.086 0-2.012.704-2.322 1.13v-.953H57v7.098h1.542V5.9c.325-.454.956-.94 1.648-.94.837 0 1.16.514 1.16 1.28v4.628h1.543V5.9c.308-.47.956-.94 1.646-.94.837 0 1.176.514 1.176 1.28v4.628h1.542V5.74c0-1.442-.75-2.146-2.043-2.146-1.072 0-2.014.66-2.41 1.294zm-22.368 2.35c0 2.337 1.338 3.646 3.146 3.646.926 0 1.734-.472 2.278-1.19v.806c0 1.514-1.088 1.986-2.102 1.986-.94 0-1.676-.252-2.263-.912l-.72 1.117c.882.794 1.777 1.06 2.983 1.06 1.735 0 3.644-.692 3.644-3.25V3.77H45.86v.986c-.573-.765-1.383-1.162-2.278-1.162-1.838 0-3.146 1.335-3.146 3.644zm1.587 0c0-1.367.78-2.277 2.015-2.277.72 0 1.468.427 1.822.94v2.66c-.354.515-1.103.942-1.822.942-1.236 0-2.015-.896-2.015-2.264zm-7.965-2.513V3.77h-1.543v7.098h1.543V5.9c.367-.47 1.044-.94 1.823-.94.868 0 1.44.353 1.44 1.47v4.438h1.544V5.87c0-1.454-.764-2.276-2.293-2.276-1.116 0-2.042.573-2.512 1.13zm-21.34 2.587c0 2.027 1.383 3.732 3.645 3.732 2.264 0 3.645-1.705 3.645-3.732 0-2.043-1.38-3.718-3.645-3.718-2.262 0-3.644 1.675-3.644 3.718zm1.603 0c0-1.25.735-2.35 2.043-2.35 1.322 0 2.044 1.1 2.044 2.35 0 1.265-.722 2.365-2.044 2.365-1.308 0-2.042-1.1-2.042-2.365zm122.32-3.54l-2.07 5.32-2.074-5.32h-1.66l2.896 7.096h1.66l2.895-7.097h-1.646zm-8.317 7.096h1.545V3.772h-1.545v7.096zm-99.35 0h1.543V3.772h-1.543v7.096zM26.357 3.77l-2.073 5.32-2.07-5.32H20.55l2.896 7.098h1.662l2.896-7.097h-1.647z" id="aI"/></defs><g fill="none" fill-rule="evenodd"><path d="M21.556 22.295L41.818 33.99V11.707L21.556.006v22.29zM.72 34.965l20.356 11.753 20.258-11.7-20.352-11.75L.722 34.965z" fill="#FFF"/><g transform="translate(62.328 15.582)"><mask id="b" fill="#fff"><use xlink:href="#a"/></mask><path d="M-1.716-1.805h13.148V12.59H-1.716V-1.805z" fill="#FFF" mask="url(#b)"/></g><g transform="translate(72.345 12.243)"><mask id="d" fill="#fff"><use xlink:href="#c"/></mask><path d="M-.965-1.007H9.517V15.93H-.965V-1.008z" fill="#FFF" mask="url(#d)"/></g><g transform="translate(80.136 11.13)"><mask id="f" fill="#fff"><use xlink:href="#e"/></mask><path d="M-.926-1.396h6.86v18.184h-6.86V-1.396z" fill="#FFF" mask="url(#f)"/></g><g transform="translate(85.7 15.582)"><mask id="h" fill="#fff"><use xlink:href="#g"/></mask><path d="M-1.733-1.804h14.48V12.59h-14.48V-1.804z" fill="#FFF" mask="url(#h)"/></g><g transform="translate(97.944 15.582)"><mask id="j" fill="#fff"><use xlink:href="#i"/></mask><path d="M-1.368-1.805h13.275v14.14H-1.368v-14.14z" fill="#FFF" mask="url(#j)"/></g><g transform="translate(109.073 15.582)"><mask id="l" fill="#fff"><use xlink:href="#k"/></mask><path d="M-1.096-1.805h13.15V12.59h-13.15V-1.805z" fill="#FFF" mask="url(#l)"/></g><path d="M121.743 26.084h2.685V11.97h-2.685v14.114zM132.086 11.97v14.115h8.997v-2.647h-5.973V11.97h-3.024z" fill="#FFF"/><g transform="translate(142.463 11.13)"><mask id="n" fill="#fff"><use xlink:href="#m"/></mask><path d="M-1.717-1.396h6.862v18.184h-6.862V-1.396z" fill="#FFF" mask="url(#n)"/></g><g transform="translate(146.915 11.13)"><mask id="p" fill="#fff"><use xlink:href="#o"/></mask><path d="M-.755-.995h14.037v18.037H-.755V-.995z" fill="#FFF" mask="url(#p)"/></g><g transform="translate(159.158 15.582)"><mask id="r" fill="#fff"><use xlink:href="#q"/></mask><path d="M-.812-1.805h9.614v14.14H-.812v-14.14z" fill="#FFF" mask="url(#r)"/></g><g transform="translate(166.95 15.582)"><mask id="t" fill="#fff"><use xlink:href="#s"/></mask><path d="M-1.814-1.805h13.148V12.59H-1.814V-1.805z" fill="#FFF" mask="url(#t)"/></g><g transform="translate(178.08 15.582)"><mask id="v" fill="#fff"><use xlink:href="#u"/></mask><path d="M-1.032-1.805h9.61v14.14h-9.61v-14.14z" fill="#FFF" mask="url(#v)"/></g><g transform="translate(184.757 15.582)"><mask id="x" fill="#fff"><use xlink:href="#w"/></mask><path d="M-1.746-1.554H13.03v18.04H-1.745v-18.04z" fill="#FFF" mask="url(#x)"/></g><g transform="translate(46.746 35.616)"><mask id="z" fill="#fff"><use xlink:href="#y"/></mask><path d="M-1.535-1.407h14.48V12.99h-14.48V-1.408z" fill="#FFF" mask="url(#z)"/></g><g transform="translate(57.876 32.277)"><mask id="B" fill="#fff"><use xlink:href="#A"/></mask><path d="M-1.044-1.828H10.41v17.994H-1.045V-1.828z" fill="#FFF" mask="url(#B)"/></g><g transform="translate(70.12 32.277)"><mask id="D" fill="#fff"><use xlink:href="#C"/></mask><path d="M-.984-1.828h15.328v18.246H-.984V-1.828z" fill="#FFF" mask="url(#D)"/></g><g transform="translate(83.475 35.616)"><mask id="F" fill="#fff"><use xlink:href="#E"/></mask><path d="M-1.352-1.407h13.127V12.99H-1.352V-1.408z" fill="#FFF" mask="url(#F)"/></g><g transform="translate(93.492 35.616)"><mask id="H" fill="#fff"><use xlink:href="#G"/></mask><path d="M-.774-1.407h14.48V12.99H-.773V-1.408z" fill="#FFF" mask="url(#H)"/></g><g transform="translate(105.734 33.39)"><mask id="J" fill="#fff"><use xlink:href="#I"/></mask><path d="M-1.737-1.573H8.745v16.935H-1.737V-1.573z" fill="#FFF" mask="url(#J)"/></g><path d="M114.034 46.74h2.686V32.624h-2.686V46.74z" fill="#FFF"/><g transform="translate(117.977 35.616)"><mask id="L" fill="#fff"><use xlink:href="#K"/></mask><path d="M-.993-1.407h13.148V12.99H-.993V-1.408z" fill="#FFF" mask="url(#L)"/></g><g transform="translate(130.22 35.616)"><mask id="N" fill="#fff"><use xlink:href="#M"/></mask><path d="M-1.273-1.407H12v14.144H-1.272V-1.407z" fill="#FFF" mask="url(#N)"/></g><g transform="translate(141.35 32.277)"><mask id="P" fill="#fff"><use xlink:href="#O"/></mask><path d="M-.784-1.486h14.06v18.034H-.785V-1.486z" fill="#FFF" mask="url(#P)"/></g><path d="M47.51 54.06v9.88h5.822v-1.095H48.74V54.06h-1.23z" fill="#FFF"/><g transform="translate(53.424 55.65)"><mask id="R" fill="#fff"><use xlink:href="#Q"/></mask><path d="M-1.054-.875h10.63v11.178h-10.63V-.875z" fill="#FFF" mask="url(#R)"/></g><g transform="translate(62.328 55.65)"><mask id="T" fill="#fff"><use xlink:href="#S"/></mask><path d="M-1.592-.875h9.637v11.177h-9.637V-.875z" fill="#FFF" mask="url(#T)"/></g><g transform="translate(70.12 53.424)"><mask id="V" fill="#fff"><use xlink:href="#U"/></mask><path d="M-1.18-1.198H9.2v13.726H-1.18V-1.198z" fill="#FFF" mask="url(#V)"/></g><g transform="translate(79.023 53.424)"><mask id="X" fill="#fff"><use xlink:href="#W"/></mask><path d="M-1.553-1.196h9.608V12.35h-9.608V-1.196z" fill="#FFF" mask="url(#X)"/></g><g transform="translate(86.814 55.65)"><mask id="Z" fill="#fff"><use xlink:href="#Y"/></mask><path d="M-1.572-.875h9.637v11.177h-9.637V-.875z" fill="#FFF" mask="url(#Z)"/></g><g transform="translate(94.605 55.65)"><mask id="ab" fill="#fff"><use xlink:href="#aa"/></mask><path d="M-1.158-.86h7.164v10.984h-7.164V-.86z" fill="#FFF" mask="url(#ab)"/></g><path d="M100.167 63.938h1.113v-9.88h-1.113v9.88z" fill="#FFF"/><g transform="translate(102.395 55.65)"><mask id="ad" fill="#fff"><use xlink:href="#ac"/></mask><path d="M-1.116-.875h9.638v11.177h-9.638V-.875z" fill="#FFF" mask="url(#ad)"/></g><g transform="translate(111.3 55.65)"><mask id="af" fill="#fff"><use xlink:href="#ae"/></mask><path d="M-1.815-.875h9.607v11h-9.607v-11z" fill="#FFF" mask="url(#af)"/></g><g transform="translate(119.09 55.65)"><mask id="ah" fill="#fff"><use xlink:href="#ag"/></mask><path d="M-1.434-.875h9.608v11h-9.608v-11z" fill="#FFF" mask="url(#ah)"/></g><path d="M138.49 54.06v7.718l-5.686-7.717h-1.26v9.88h1.23v-7.88l5.762 7.88h1.184v-9.88h-1.23z" fill="#FFF"/><g transform="translate(141.35 53.424)"><mask id="aj" fill="#fff"><use xlink:href="#ai"/></mask><path d="M-1.585-1.688h9.638v14.215h-9.638V-1.688z" fill="#FFF" mask="url(#aj)"/></g><g transform="translate(149.14 53.424)"><mask id="al" fill="#fff"><use xlink:href="#ak"/></mask><path d="M-1.366-.99H3.8v13.34h-5.166V-.99z" fill="#FFF" mask="url(#al)"/></g><g transform="translate(152.48 55.65)"><mask id="an" fill="#fff"><use xlink:href="#am"/></mask><path d="M-1.787-.875h9.355v11.178h-9.355V-.875z" fill="#FFF" mask="url(#an)"/></g><g transform="translate(159.158 55.65)"><mask id="ap" fill="#fff"><use xlink:href="#ao"/></mask><path d="M-1.386-.875h10.63v11.178h-10.63V-.875z" fill="#FFF" mask="url(#ap)"/></g><g transform="translate(166.95 55.65)"><mask id="ar" fill="#fff"><use xlink:href="#aq"/></mask><path d="M-.81-.875h9.635v11.177H-.81V-.875z" fill="#FFF" mask="url(#ar)"/></g><g transform="translate(175.853 55.65)"><mask id="at" fill="#fff"><use xlink:href="#as"/></mask><path d="M-1.51-.875h9.605v11H-1.51v-11z" fill="#FFF" mask="url(#at)"/></g><g transform="translate(182.53 54.537)"><mask id="av" fill="#fff"><use xlink:href="#au"/></mask><path d="M-.977-1.538h7.77v12.953h-7.77V-1.538z" fill="#FFF" mask="url(#av)"/></g><g transform="translate(188.096 55.65)"><mask id="ax" fill="#fff"><use xlink:href="#aw"/></mask><path d="M-1.613-.875h9.64v11.177h-9.64V-.875z" fill="#FFF" mask="url(#ax)"/></g><g transform="translate(46.746 71.232)"><mask id="az" fill="#fff"><use xlink:href="#ay"/></mask><path d="M-1.486-1.015h9.608v11h-9.608v-11z" fill="#FFF" mask="url(#az)"/></g><g transform="translate(54.537 71.232)"><mask id="aB" fill="#fff"><use xlink:href="#aA"/></mask><path d="M-1.757-1.015H7.88v11.178h-9.637V-1.015z" fill="#FFF" mask="url(#aB)"/></g><g transform="translate(66.78 69.006)"><mask id="aD" fill="#fff"><use xlink:href="#aC"/></mask><path d="M-1.696-1.525H7.91v13.548h-9.606V-1.525z" fill="#FFF" mask="url(#aD)"/></g><path d="M74.437 76.104h3.554v-.978h-3.553v.978zM82.522 69.316l-3.984 9.88h1.406l.872-2.206h4.92l.874 2.207h1.406l-3.97-9.88h-1.524zm.755 1.257l2.104 5.335h-4.193l2.09-5.335zM89.133 79.194h1.11v-9.88h-1.11v9.88z" fill="#FFF"/><g transform="translate(92.38 69.006)"><mask id="aF" fill="#fff"><use xlink:href="#aE"/></mask><path d="M-1.662-1.525h10.38v13.727h-10.38V-1.525z" fill="#FFF" mask="url(#aF)"/></g><g transform="translate(100.17 71.232)"><mask id="aH" fill="#fff"><use xlink:href="#aG"/></mask><path d="M-1.25-1.015h9.636v11.178H-1.25V-1.015z" fill="#FFF" mask="url(#aH)"/></g><path d="M57.543 11.97v8.866l-6.54-8.866h-3.088v14.115h3.003V16.88l6.73 9.205h2.9V11.97h-3.005z" fill="#FFF"/><path d="M47.107 90.02h145.865" stroke="#FFF" stroke-width=".659" stroke-linecap="square"/><g transform="translate(46.746 99.056)"><mask id="aJ" fill="#fff"><use xlink:href="#aI"/></mask><path d="M-.917-.84h148.665V15.58H-.917V-.84z" fill="#FFF" mask="url(#aJ)"/></g></g></svg>