<?xml version="1.0" encoding="UTF-8" standalone="no"?>
<svg width="228px" height="166px" viewBox="0 0 228 166" version="1.1" xmlns="http://www.w3.org/2000/svg" xmlns:xlink="http://www.w3.org/1999/xlink">
    <!-- Generator: Sketch 3.6.1 (26313) - http://www.bohemiancoding.com/sketch -->
    <title>header-right</title>
    <desc>Created with Sketch.</desc>
    <defs>
        <path id="path-1" d="M18.6875028,51.6922952 C18.6875028,63.2286846 16.5218516,74.4488201 12.3486762,84.4795663 C12.3624264,84.4933165 18.6875028,105.421069 18.6875028,116.819957 C18.6875028,136.585821 11.915546,154.76354 0.585409117,169.201215 C42.7777939,164.237405 75.5238145,128.370097 75.5238145,84.8439457 C75.5238145,41.6752992 43.3209254,6.06924399 1.62354666,0.631053294 C12.3349261,14.8487251 18.6875028,32.5383138 18.6875028,51.6922952 L18.6875028,51.6922952 Z"></path>
        <path id="path-3" d="M0.0216523057,85.0677105 C0.0216523057,96.6040998 2.33168021,107.597358 6.49798055,117.628104 C18.0549952,89.832143 43.9396829,69.4818972 74.9463075,65.8381032 C90.4977454,46.0241138 114.656787,33.2639596 141.80649,33.2639596 C145.567161,33.2639596 149.252205,33.5320879 152.875374,34.0064686 C137.372062,13.429345 112.731764,0.112309108 84.9770537,0.112309108 C38.0614869,0.112309108 0.0216523057,38.1521437 0.0216523057,85.0677105 L0.0216523057,85.0677105 Z"></path>
        <path id="path-5" d="M0.536256479,32.7507315 C3.82942126,32.379477 7.17071163,32.1594744 10.5670027,32.1594744 C45.9530552,32.1594744 76.4440485,55.4522558 89.2385781,84.8226106 C93.4048784,74.7918644 95.5292791,63.5167282 95.5292791,51.9803388 C95.5292791,32.8126072 89.1767024,15.1367687 78.465323,0.91909693 C74.8421542,0.444716199 71.1571097,0.17658796 67.3964392,0.17658796 C40.2467362,0.17658796 16.0876944,12.9367421 0.536256479,32.7507315 L0.536256479,32.7507315 Z"></path>
        <path id="path-7" d="M0.0216523057,33.1030976 C0.0216523057,80.0324146 38.0614869,118.051624 84.9770537,118.051624 C112.126757,118.051624 136.285799,105.298345 151.837236,85.4843555 C148.550947,85.8693601 145.202781,86.0893628 141.80649,86.0893628 C114.06553,86.0893628 90.387744,72.3323216 74.8775567,51.755198 C44.3315626,47.7745249 17.9243686,28.0499116 6.49798055,0.535829187 C2.33168021,10.5665754 0.0216523057,21.5667083 0.0216523057,33.1030976 L0.0216523057,33.1030976 Z"></path>
        <path id="path-9" d="M10.5670027,52.9377123 C6.8200824,52.9377123 4.0975495,52.2708292 0.467505648,51.8101986 C0.790634552,52.2708292 0.776884386,52.257079 0.969386711,52.4770817 C1.1343887,52.6902093 1.31314086,52.8827116 1.45751761,53.0752139 C16.967705,72.9854545 40.2123608,86.0893628 67.3964392,86.0893628 C70.7996053,86.0893628 74.1408957,85.8693601 77.4271854,85.4843555 C88.7573223,71.046681 95.5292791,52.8689614 95.5292791,33.1030976 C95.5292791,21.7042099 93.281127,10.6834518 89.2110778,0.748956762 C76.2996718,31.2055747 45.7330525,52.9377123 10.5670027,52.9377123 L10.5670027,52.9377123 Z"></path>
        <path id="path-11" d="M0.63998249,0.545726032 L0.645920596,0.549684769 C0.645920596,0.545726032 0.641961858,0.541767294 0.641961858,0.535829187 C0.63998249,0.541767294 0.63998249,0.541767294 0.63998249,0.545726032 L0.63998249,0.545726032 Z"></path>
        <path id="path-13" d="M0.838760133,52.1347819 C12.0313954,79.0851075 37.6892053,98.74097 67.458315,103.251024 C68.0701974,103.354151 68.6752047,103.367901 69.2870871,103.429777 C58.5894578,89.225855 51.1987435,71.8937706 51.1987435,52.726039 C51.1987435,32.9739254 57.9707004,14.7962058 69.2870871,0.344781209 C38.2804625,4.00920048 12.3957748,24.3388211 0.838760133,52.1347819 L0.838760133,52.1347819 Z"></path>
        <path id="path-15" d="M18.7297804,1.56064385 C7.41339365,16.0120684 0.641436837,34.1897881 0.641436837,53.9556519 C0.641436837,73.1096333 8.01152588,90.4279675 18.7160302,104.638764 C22.1810721,105.436274 26.4367485,105.752528 28.7605266,105.752528 C63.9265764,105.752528 94.4931957,84.0341402 107.411477,53.5775223 L18.7160302,104.638764 L18.7160302,1.58814419 L107.411477,53.5775223 C94.6375724,22.7977754 64.1465791,0.969386711 28.7605266,0.969386711 C25.3711106,0.969386711 22.0229452,1.18938937 18.7297804,1.56064385 L18.7297804,1.56064385 Z"></path>
    </defs>
    <g id="Page-1" stroke="none" stroke-width="1" fill="none" fill-rule="evenodd">
        <g id="1-MIE-Home" transform="translate(-964.000000, 0.000000)">
            <g id="header" transform="translate(-1.000000, -36.000000)">
                <g id="header-bg" transform="translate(903.000000, 0.000000)">
                    <g id="header-right" style="mix-blend-mode: lighten;" transform="translate(61.775986, 0.292726)">
                        <g id="Group-29" transform="translate(151.894914, 33.619806)">
                            <mask id="mask-2" fill="white">
                                <use xlink:href="#path-1"></use>
                            </mask>
                            <g id="Clip-28"></g>
                            <path d="M-12.2366208,182.01637 L88.3320942,182.01637 L88.3320942,-12.1841015 L-12.2366208,-12.1841015 L-12.2366208,182.01637 Z" id="Fill-27" fill="#272252" mask="url(#mask-2)"></path>
                        </g>
                        <g id="Group-32" transform="translate(0.643087, 0.244391)">
                            <mask id="mask-4" fill="white">
                                <use xlink:href="#path-3"></use>
                            </mask>
                            <use id="Clip-31" xlink:href="#path-3"></use>
                            <path d="M-12.7935025,130.457009 L165.704279,130.457009 L165.704279,-12.7097208 L-12.7935025,-12.7097208 L-12.7935025,130.457009 Z" id="Fill-30" fill="#392352" mask="url(#mask-4)"></path>
                        </g>
                        <g id="Group-35" transform="translate(75.053138, 33.331763)">
                            <mask id="mask-6" fill="white">
                                <use xlink:href="#path-5"></use>
                            </mask>
                            <g id="Clip-34"></g>
                            <path d="M-12.2720233,97.6446405 L108.344434,97.6446405 L108.344434,-12.6316918 L-12.2720233,-12.6316918 L-12.2720233,97.6446405 Z" id="Fill-33" fill="#231A4D" mask="url(#mask-6)"></path>
                        </g>
                        <g id="Group-38" transform="translate(0.643087, 117.336666)">
                            <mask id="mask-8" fill="white">
                                <use xlink:href="#path-7"></use>
                            </mask>
                            <g id="Clip-37"></g>
                            <path d="M-12.7935025,130.880529 L164.666141,130.880529 L164.666141,-12.2862007 L-12.7935025,-12.2862007 L-12.7935025,130.880529 Z" id="Fill-36" fill="#1F0D41" mask="url(#mask-8)"></path>
                        </g>
                        <g id="Group-41" transform="translate(75.053138, 117.336666)">
                            <mask id="mask-10" fill="white">
                                <use xlink:href="#path-9"></use>
                            </mask>
                            <g id="Clip-40"></g>
                            <path d="M-12.3476492,98.9045176 L108.351309,98.9045176 L108.351309,-12.059323 L-12.3476492,-12.059323 L-12.3476492,98.9045176 Z" id="Fill-39" fill="#241348" mask="url(#mask-10)"></path>
                        </g>
                        <g id="Group-45" transform="translate(163.459231, 117.336666)">
                            <mask id="mask-12" fill="white">
                                <use xlink:href="#path-11"></use>
                            </mask>
                            <g id="Clip-43"></g>
                        </g>
                        <g id="Group-48" transform="translate(6.302308, 65.737713)">
                            <mask id="mask-14" fill="white">
                                <use xlink:href="#path-13"></use>
                            </mask>
                            <g id="Clip-47"></g>
                            <path d="M-11.9763947,116.258682 L82.1159921,116.258682 L82.1159921,-12.4634985 L-11.9763947,-12.4634985 L-11.9763947,116.258682 Z" id="Fill-46" fill="#311649" mask="url(#mask-14)"></path>
                        </g>
                        <g id="Group-51" transform="translate(56.859614, 64.521850)">
                            <mask id="mask-16" fill="white">
                                <use xlink:href="#path-15"></use>
                            </mask>
                            <g id="Clip-50"></g>
                            <path d="M-12.173718,118.567682 L120.233507,118.567682 L120.233507,-11.8595183 L-12.173718,-11.8595183 L-12.173718,118.567682 Z" id="Fill-49" fill="#1F0D41" mask="url(#mask-16)"></path>
                        </g>
                    </g>
                </g>
            </g>
        </g>
    </g>
</svg>