<?xml version="1.0" encoding="utf-8"?>
<!-- Generator: Adobe Illustrator 16.0.4, SVG Export Plug-In . SVG Version: 6.00 Build 0)  -->
<!DOCTYPE svg PUBLIC "-//W3C//DTD SVG 1.1//EN" "http://www.w3.org/Graphics/SVG/1.1/DTD/svg11.dtd">
<svg version="1.1" id="Layer_1" xmlns="http://www.w3.org/2000/svg" xmlns:xlink="http://www.w3.org/1999/xlink" x="0px" y="0px"
	 width="16px" height="24px" viewBox="0 0 16 24" enable-background="new 0 0 16 24" xml:space="preserve">
<title>Padlock</title>
<desc>Created with Sketch.</desc>
<g>
	<g>
		<g>
			<defs>
				<rect id="SVGID_1_" x="0.667" y="0.806" width="14.75" height="22.126"/>
			</defs>
			<clipPath id="SVGID_2_">
				<use xlink:href="#SVGID_1_"  overflow="visible"/>
			</clipPath>
			<g clip-path="url(#SVGID_2_)">
				<g>
					<defs>
						<path id="SVGID_3_" d="M0.667,10.06h14.75v6.438c0,3.554-2.879,6.434-6.427,6.434H7.093c-3.549,0.002-6.427-2.887-6.427-6.434
							V10.06z"/>
					</defs>
					<clipPath id="SVGID_4_">
						<use xlink:href="#SVGID_3_"  overflow="visible"/>
					</clipPath>
					<g clip-path="url(#SVGID_4_)">
						<g>
							<defs>
								<rect id="SVGID_5_" x="0.667" y="0.806" width="14.75" height="22.126"/>
							</defs>
							<clipPath id="SVGID_6_">
								<use xlink:href="#SVGID_5_"  overflow="visible"/>
							</clipPath>
							<rect x="-3.943" y="5.451" clip-path="url(#SVGID_6_)" fill="#FFFFFF" width="23.969" height="22.091"/>
						</g>
					</g>
				</g>
				<g enable-background="new    ">
					<defs>
						<rect id="SVGID_7_" x="0.667" y="0.806" enable-background="new    " width="14.75" height="22.126"/>
					</defs>
					<clipPath id="SVGID_8_">
						<use xlink:href="#SVGID_7_"  overflow="visible"/>
					</clipPath>
					<g clip-path="url(#SVGID_8_)">
						<g>
							<defs>
								<rect id="SVGID_9_" x="0.667" y="0.806" width="14.75" height="22.126"/>
							</defs>
							<clipPath id="SVGID_10_">
								<use xlink:href="#SVGID_9_"  overflow="visible"/>
							</clipPath>
							<path clip-path="url(#SVGID_10_)" fill="none" stroke="#FFFFFF" stroke-width="2.7658" stroke-miterlimit="10" d="
								M12.7,11.23H3.384v-4.29c0-2.37,1.919-4.292,4.29-4.292H8.41c2.37,0,4.291,1.925,4.291,4.292L12.7,11.23L12.7,11.23z"/>
						</g>
					</g>
				</g>
			</g>
		</g>
	</g>
</g>
</svg>
