<?xml version="1.0" encoding="UTF-8" standalone="no"?>
<svg width="196px" height="113px" viewBox="0 0 196 113" version="1.1" xmlns="http://www.w3.org/2000/svg" xmlns:xlink="http://www.w3.org/1999/xlink">
    <defs>
        <path d="M0.649988701,1.63721469 L1.70733333,3.51928814 C2.55432203,2.73462712 3.56825989,2.31391525 4.64786441,2.31391525 L4.64786441,2.31391525 C6.00237853,2.31391525 6.89054802,2.99061582 6.89054802,4.02570056 L6.89054802,4.02570056 L6.89054802,5.31677401 C6.21384746,4.51430508 5.02962147,4.07022034 3.65284746,4.07022034 L3.65284746,4.07022034 C2.02453672,4.07022034 0.117977401,4.95838983 0.117977401,7.37024859 L0.117977401,7.37024859 C0.117977401,9.65745198 2.02453672,10.7559774 3.65284746,10.7559774 L3.65284746,10.7559774 C4.98621469,10.7559774 6.19158757,10.2695989 6.89054802,9.42261017 L6.89054802,9.42261017 L6.89054802,10.5022147 L9.59846328,10.5022147 L9.59846328,3.8999322 C9.59846328,0.958288136 7.46262712,0.0278248588 5.11198305,0.0278248588 L5.11198305,0.0278248588 C3.50370621,0.0278248588 1.89765537,0.51420339 0.649988701,1.63721469 L0.649988701,1.63721469 Z M2.80697175,7.41476836 C2.80697175,6.43867232 3.67510734,5.86659322 4.73022599,5.86659322 L4.73022599,5.86659322 C5.60170056,5.86659322 6.44646328,6.1860226 6.89054802,6.7770226 L6.89054802,6.7770226 L6.89054802,8.04694915 C6.44646328,8.64240113 5.60170056,8.93845763 4.73022599,8.93845763 L4.73022599,8.93845763 C3.67510734,8.93845763 2.80697175,8.38529944 2.80697175,7.41476836 L2.80697175,7.41476836 Z" id="path-1"></path>
        <path id="path-3" d="M2.56211299,0.825841808 L2.56211299,3.61945763 L0.869248588,3.61945763 L0.869248588,5.9689887 L2.56211299,5.9689887 L2.56211299,11.2824237 C2.56211299,13.1199774 3.55824294,14.0949605 5.43920339,14.0949605 L5.43920339,14.0949605 C6.56221469,14.0949605 7.28232203,13.798904 7.68411299,13.4405198 L7.68411299,13.4405198 L7.1120339,11.3859322 C6.96511864,11.5551073 6.58336158,11.7053616 6.18268362,11.7053616 L6.18268362,11.7053616 C5.58834463,11.7053616 5.24999435,11.2178701 5.24999435,10.5645424 L5.24999435,10.5645424 L5.24999435,5.9689887 L7.32461582,5.9689887 L7.32461582,3.61945763 L5.24999435,3.61945763 L5.24999435,0.825841808 L2.56211299,0.825841808 Z"></path>
        <path d="M0.907090395,2.02453672 C0.907090395,2.91381921 1.62719774,3.63392655 2.49310734,3.63392655 L2.49310734,3.63392655 C3.38016384,3.63392655 4.10138418,2.91381921 4.10138418,2.02453672 L4.10138418,2.02453672 C4.10138418,1.13748023 3.38016384,0.438519774 2.49310734,0.438519774 L2.49310734,0.438519774 C1.62719774,0.438519774 0.907090395,1.13748023 0.907090395,2.02453672 L0.907090395,2.02453672 Z M1.16085311,14.9541921 L3.84762147,14.9541921 L3.84762147,4.73133898 L1.16085311,4.73133898 L1.16085311,14.9541921 Z" id="path-5"></path>
        <path d="M0.101282486,5.38132768 C0.101282486,8.27956497 2.13361017,10.7559774 5.49819209,10.7559774 L5.49819209,10.7559774 C8.8839209,10.7559774 10.9140226,8.27956497 10.9140226,5.38132768 L10.9140226,5.38132768 C10.9140226,2.4819774 8.8839209,0.0289378531 5.49819209,0.0289378531 L5.49819209,0.0289378531 C2.13361017,0.0289378531 0.101282486,2.4819774 0.101282486,5.38132768 L0.101282486,5.38132768 Z M2.89378531,5.38132768 C2.89378531,3.79419774 3.82536158,2.41742373 5.49819209,2.41742373 L5.49819209,2.41742373 C7.1899435,2.41742373 8.12151977,3.79419774 8.12151977,5.38132768 L8.12151977,5.38132768 C8.12151977,6.98849153 7.1899435,8.36415254 5.49819209,8.36415254 L5.49819209,8.36415254 C3.82536158,8.36415254 2.89378531,6.98849153 2.89378531,5.38132768 L2.89378531,5.38132768 Z" id="path-7"></path>
        <path id="path-9" d="M3.15311299,1.5960339 L3.15311299,0.279361582 L0.466344633,0.279361582 L0.466344633,10.5022147 L3.15311299,10.5022147 L3.15311299,3.60276271 C3.61945763,3.01064972 4.42192655,2.41853672 5.48038418,2.41853672 L5.48038418,2.41853672 C6.62565537,2.41853672 7.36468362,2.90380226 7.36468362,4.32509605 L7.36468362,4.32509605 L7.36468362,10.5022147 L10.0737119,10.5022147 L10.0737119,3.28667232 C10.0737119,1.29663842 8.99410734,0.0278248588 6.72805085,0.0278248588 L6.72805085,0.0278248588 C5.07859322,0.0278248588 3.81089266,0.833632768 3.15311299,1.5960339 L3.15311299,1.5960339 Z"></path>
        <path d="M1.26770056,1.63721469 L2.32615819,3.51928814 C3.17314689,2.73462712 4.18819774,2.31391525 5.26780226,2.31391525 L5.26780226,2.31391525 C6.62120339,2.31391525 7.50937288,2.99061582 7.50937288,4.02570056 L7.50937288,4.02570056 L7.50937288,5.31677401 C6.83155932,4.51430508 5.64955932,4.07022034 4.27278531,4.07022034 L4.27278531,4.07022034 C2.64336158,4.07022034 0.73680226,4.95838983 0.73680226,7.37024859 L0.73680226,7.37024859 C0.73680226,9.65745198 2.64336158,10.7559774 4.27278531,10.7559774 L4.27278531,10.7559774 C5.60503955,10.7559774 6.81263842,10.2695989 7.50937288,9.42261017 L7.50937288,9.42261017 L7.50937288,10.5022147 L10.2184011,10.5022147 L10.2184011,3.8999322 C10.2184011,0.958288136 8.07922599,0.0278248588 5.7319209,0.0278248588 L5.7319209,0.0278248588 C4.12253107,0.0278248588 2.51870621,0.51420339 1.26770056,1.63721469 L1.26770056,1.63721469 Z M3.4269096,7.41476836 C3.4269096,6.43867232 4.2939322,5.86659322 5.35016384,5.86659322 L5.35016384,5.86659322 C6.21829944,5.86659322 7.06751412,6.1860226 7.50937288,6.7770226 L7.50937288,6.7770226 L7.50937288,8.04694915 C7.06751412,8.64240113 6.21829944,8.93845763 5.35016384,8.93845763 L5.35016384,8.93845763 C4.2939322,8.93845763 3.4269096,8.38529944 3.4269096,7.41476836 L3.4269096,7.41476836 Z" id="path-11"></path>
        <path d="M0.115751412,2.02453672 C0.115751412,2.91381921 0.834745763,3.63392655 1.70399435,3.63392655 L1.70399435,3.63392655 C2.59327684,3.63392655 3.31115819,2.91381921 3.31115819,2.02453672 L3.31115819,2.02453672 C3.31115819,1.13748023 2.59327684,0.438519774 1.70399435,0.438519774 L1.70399435,0.438519774 C0.834745763,0.438519774 0.115751412,1.13748023 0.115751412,2.02453672 L0.115751412,2.02453672 Z M0.369514124,14.9541921 L3.05628249,14.9541921 L3.05628249,4.73133898 L0.369514124,4.73133898 L0.369514124,14.9541921 Z" id="path-13"></path>
        <path d="M1.07960452,0.840310734 L1.07960452,14.9541921 L3.76748588,14.9541921 L3.76748588,13.6419718 C4.5699548,14.6570226 5.6929661,15.2079548 6.91948588,15.2079548 L6.91948588,15.2079548 C9.50274576,15.2079548 11.4482599,13.2591017 11.4482599,9.83441808 L11.4482599,9.83441808 C11.4482599,6.51101695 9.52389266,4.47868927 6.91948588,4.47868927 L6.91948588,4.47868927 C5.71522599,4.47868927 4.5699548,4.98621469 3.76748588,6.0480113 L3.76748588,6.0480113 L3.76748588,0.840310734 L1.07960452,0.840310734 Z M3.76748588,11.6741977 L3.76748588,8.05585311 C4.23160452,7.37915254 5.20658757,6.87051412 6.09364407,6.87051412 L6.09364407,6.87051412 C7.64070621,6.87051412 8.67690395,8.07477401 8.67690395,9.83441808 L8.67690395,9.83441808 C8.67690395,11.6107571 7.64070621,12.8161299 6.09364407,12.8161299 L6.09364407,12.8161299 C5.20658757,12.8161299 4.23160452,12.3297514 3.76748588,11.6741977 L3.76748588,11.6741977 Z" id="path-15"></path>
        <path id="path-17" d="M3.70849718,1.65613559 L3.70849718,0.279361582 L1.02061582,0.279361582 L1.02061582,10.5022147 L3.70849718,10.5022147 L3.70849718,3.75301695 C4.15369492,3.09635028 5.3379209,2.58882486 6.2260904,2.58882486 L6.2260904,2.58882486 C6.54551977,2.58882486 6.7770226,2.60774576 6.96734463,2.65115254 L6.96734463,2.65115254 L6.96734463,0.0278248588 C5.69630508,0.0278248588 4.44975141,0.765740113 3.70849718,1.65613559 L3.70849718,1.65613559 Z"></path>
        <path d="M0.54759322,1.63721469 L1.60716384,3.51928814 C2.45303955,2.73462712 3.47031638,2.31391525 4.54769492,2.31391525 L4.54769492,2.31391525 C5.90220904,2.31391525 6.79149153,2.99061582 6.79149153,4.02570056 L6.79149153,4.02570056 L6.79149153,5.31677401 C6.11590395,4.51430508 4.93056497,4.07022034 3.55267797,4.07022034 L3.55267797,4.07022034 C1.92659322,4.07022034 0.018920904,4.95838983 0.018920904,7.37024859 L0.018920904,7.37024859 C0.018920904,9.65745198 1.92659322,10.7559774 3.55267797,10.7559774 L3.55267797,10.7559774 C4.88827119,10.7559774 6.09253107,10.2695989 6.79149153,9.42261017 L6.79149153,9.42261017 L6.79149153,10.5022147 L9.50051977,10.5022147 L9.50051977,3.8999322 C9.50051977,0.958288136 7.36023164,0.0278248588 5.01515254,0.0278248588 L5.01515254,0.0278248588 C3.40687571,0.0278248588 1.79971186,0.51420339 0.54759322,1.63721469 L0.54759322,1.63721469 Z M2.70791525,7.41476836 C2.70791525,6.43867232 3.57605085,5.86659322 4.63450847,5.86659322 L4.63450847,5.86659322 C5.50264407,5.86659322 6.34851977,6.1860226 6.79149153,6.7770226 L6.79149153,6.7770226 L6.79149153,8.04694915 C6.34851977,8.64240113 5.50264407,8.93845763 4.63450847,8.93845763 L4.63450847,8.93845763 C3.57605085,8.93845763 2.70791525,8.38529944 2.70791525,7.41476836 L2.70791525,7.41476836 Z" id="path-19"></path>
        <path id="path-21" d="M3.4870113,1.65613559 L3.4870113,0.279361582 L0.800242938,0.279361582 L0.800242938,10.5022147 L3.4870113,10.5022147 L3.4870113,3.75301695 C3.93220904,3.09635028 5.11754802,2.58882486 6.0079435,2.58882486 L6.0079435,2.58882486 C6.3229209,2.58882486 6.55553672,2.60774576 6.74585876,2.65115254 L6.74585876,2.65115254 L6.74585876,0.0278248588 C5.4770452,0.0278248588 4.22937853,0.765740113 3.4870113,1.65613559 L3.4870113,1.65613559 Z"></path>
        <path id="path-23" d="M8.31963277,0.280474576 L5.63175141,7.39139548 L2.96501695,0.280474576 L0.0879265537,0.280474576 L4.23383051,10.630209 L3.85541243,11.5172655 C3.60164972,12.0681977 3.13419209,12.2585198 2.43745763,12.2585198 L2.43745763,12.2585198 C2.18369492,12.2585198 1.82308475,12.1961921 1.58824294,12.0893446 L1.58824294,12.0893446 L1.20982486,14.4822825 C1.52480226,14.5880169 2.2259887,14.6492316 2.51981921,14.6492316 L2.51981921,14.6492316 C4.27723729,14.6069379 5.63175141,14.1005254 6.39303955,12.1739322 L6.39303955,12.1739322 L11.1989492,0.280474576 L8.31963277,0.280474576 Z"></path>
        <path d="M0.298282486,5.77866667 C0.298282486,8.67912994 2.33061017,11.1533164 5.69630508,11.1533164 L5.69630508,11.1533164 C9.07980791,11.1533164 11.1110226,8.67912994 11.1110226,5.77866667 L11.1110226,5.77866667 C11.1110226,2.88154237 9.07980791,0.428502825 5.69630508,0.428502825 L5.69630508,0.428502825 C2.33061017,0.428502825 0.298282486,2.88154237 0.298282486,5.77866667 L0.298282486,5.77866667 Z M3.09078531,5.77866667 C3.09078531,4.19376271 4.02236158,2.81810169 5.69630508,2.81810169 L5.69630508,2.81810169 C7.3869435,2.81810169 8.31851977,4.19376271 8.31851977,5.77866667 L8.31851977,5.77866667 C8.31851977,7.39028249 7.3869435,8.76483051 5.69630508,8.76483051 L5.69630508,8.76483051 C4.02236158,8.76483051 3.09078531,7.39028249 3.09078531,5.77866667 L3.09078531,5.77866667 Z" id="path-25"></path>
        <path id="path-27" d="M2.48086441,3.68735028 L2.48086441,4.11140113 L0.789112994,4.11140113 L0.789112994,6.45981921 L2.48086441,6.45981921 L2.48086441,14.3342542 L5.16874576,14.3342542 L5.16874576,6.45981921 L7.24225424,6.45981921 L7.24225424,4.11140113 L5.16874576,4.11140113 L5.16874576,3.68735028 C5.16874576,2.69567232 5.67738418,2.20818079 6.43755932,2.20818079 L6.43755932,2.20818079 C6.92505085,2.20818079 7.28566102,2.35620904 7.56057062,2.60774576 L7.56057062,2.60774576 L8.57339548,0.979435028 C7.96013559,0.280474576 6.90279096,0.0066779661 5.91,0.0066779661 L5.91,0.0066779661 C3.85652542,0.0066779661 2.48086441,1.38122599 2.48086441,3.68735028 L2.48086441,3.68735028 Z"></path>
        <path id="path-29" d="M1.31555932,4.30061017 C1.31555932,9.6129322 9.44264407,7.8989209 9.44264407,10.3530734 L9.44264407,10.3530734 C9.44264407,11.1789153 8.65909605,11.9212825 6.98626554,11.9212825 L6.98626554,11.9212825 C5.0429774,11.9212825 3.49591525,11.029774 2.50089831,9.99357627 L2.50089831,9.99357627 L0.850327684,12.3431073 C2.18369492,13.6753616 4.13143503,14.583565 6.86049718,14.583565 L6.86049718,14.583565 C10.646904,14.583565 12.5100565,12.6391638 12.5100565,10.0581299 L12.5100565,10.0581299 C12.5100565,4.79032768 4.40411864,6.29064407 4.40411864,4.07022034 L4.40411864,4.07022034 C4.40411864,3.22211864 5.12533898,2.67229944 6.39415254,2.67229944 L6.39415254,2.67229944 C7.83325424,2.67229944 9.35583051,3.15867797 10.5011017,4.2160226 L10.5011017,4.2160226 L12.1717062,1.97333898 C10.7760113,0.682265537 8.91285876,0.0066779661 6.67017514,0.0066779661 L6.67017514,0.0066779661 C3.34566102,0.0066779661 1.31555932,1.9510791 1.31555932,4.30061017 L1.31555932,4.30061017 Z"></path>
        <path id="path-31" d="M0.481926554,5.77866667 C0.481926554,8.93289266 2.76801695,11.1533164 5.89998305,11.1533164 L5.89998305,11.1533164 C7.99352542,11.1533164 9.26456497,10.2250791 9.94237853,9.29238983 L9.94237853,9.29238983 L8.18496045,7.6429322 C7.69635593,8.34077966 6.95844068,8.76483051 6.02686441,8.76483051 L6.02686441,8.76483051 C4.39521469,8.76483051 3.25439548,7.55945763 3.25439548,5.77866667 L3.25439548,5.77866667 C3.25439548,4.00121469 4.39521469,2.81810169 6.02686441,2.81810169 L6.02686441,2.81810169 C6.95844068,2.81810169 7.69635593,3.19763277 8.18496045,3.9199661 L8.18496045,3.9199661 L9.94237853,2.26828249 C9.26456497,1.33670621 7.99352542,0.428502825 5.89998305,0.428502825 L5.89998305,0.428502825 C2.76801695,0.428502825 0.481926554,2.64781356 0.481926554,5.77866667 L0.481926554,5.77866667 Z"></path>
        <path d="M1.06068362,5.77866667 C1.06068362,8.67912994 3.0930113,11.1533164 6.45536723,11.1533164 L6.45536723,11.1533164 C9.84109605,11.1533164 11.8723107,8.67912994 11.8723107,5.77866667 L11.8723107,5.77866667 C11.8723107,2.88154237 9.84109605,0.428502825 6.45536723,0.428502825 L6.45536723,0.428502825 C3.0930113,0.428502825 1.06068362,2.88154237 1.06068362,5.77866667 L1.06068362,5.77866667 Z M3.85207345,5.77866667 C3.85207345,4.19376271 4.78364972,2.81810169 6.45536723,2.81810169 L6.45536723,2.81810169 C8.14934463,2.81810169 9.0809209,4.19376271 9.0809209,5.77866667 L9.0809209,5.77866667 C9.0809209,7.39028249 8.14934463,8.76483051 6.45536723,8.76483051 L6.45536723,8.76483051 C4.78364972,8.76483051 3.85207345,7.39028249 3.85207345,5.77866667 L3.85207345,5.77866667 Z" id="path-33"></path>
        <path id="path-35" d="M1.78969492,0.261553672 L1.78969492,3.0529435 L0.0968305085,3.0529435 L0.0968305085,5.40136158 L1.78969492,5.40136158 L1.78969492,10.7136836 C1.78969492,12.5556893 2.78248588,13.5284463 4.66567232,13.5284463 L4.66567232,13.5284463 C5.78868362,13.5284463 6.50879096,13.2301638 6.90946893,12.8728927 L6.90946893,12.8728927 L6.33850282,10.8205311 C6.19270056,10.9897062 5.80871751,11.1377345 5.40915254,11.1377345 L5.40915254,11.1377345 C4.81592655,11.1377345 4.47535028,10.6502429 4.47535028,9.99468927 L4.47535028,9.99468927 L4.47535028,5.40136158 L6.55219774,5.40136158 L6.55219774,3.0529435 L4.47535028,3.0529435 L4.47535028,0.261553672 L1.78969492,0.261553672 Z"></path>
        <path d="M1.37232203,2.03455367 L2.43077966,3.9199661 C3.27665537,3.13641808 4.29059322,2.71236723 5.37019774,2.71236723 L5.37019774,2.71236723 C6.72582486,2.71236723 7.61288136,3.39018079 7.61288136,4.42860452 L7.61288136,4.42860452 L7.61288136,5.71856497 C6.93618079,4.91609605 5.7530678,4.46867232 4.37518079,4.46867232 L4.37518079,4.46867232 C2.74687006,4.46867232 0.840310734,5.3590678 0.840310734,7.76870056 L0.840310734,7.76870056 C0.840310734,10.055904 2.74687006,11.1533164 4.37518079,11.1533164 L4.37518079,11.1533164 C5.70854802,11.1533164 6.91614689,10.6691638 7.61288136,9.82217514 L7.61288136,9.82217514 L7.61288136,10.9028927 L10.3219096,10.9028927 L10.3219096,4.30172316 C10.3219096,1.35785311 8.18607345,0.428502825 5.83542938,0.428502825 L5.83542938,0.428502825 C4.22715254,0.428502825 2.6199887,0.914881356 1.37232203,2.03455367 L1.37232203,2.03455367 Z M3.53041808,7.81322034 C3.53041808,6.83935028 4.39744068,6.26838418 5.45589831,6.26838418 L5.45589831,6.26838418 C6.32514689,6.26838418 7.1699096,6.58447458 7.61288136,7.17658757 L7.61288136,7.17658757 L7.61288136,8.44762712 C7.1699096,9.04085311 6.32514689,9.33913559 5.45589831,9.33913559 L5.45589831,9.33913559 C4.39744068,9.33913559 3.53041808,8.7859774 3.53041808,7.81322034 L3.53041808,7.81322034 Z" id="path-37"></path>
        <path id="path-39" d="M3.2499435,1.99448588 L3.2499435,0.680039548 L0.559836158,0.680039548 L0.559836158,10.9028927 L3.2499435,10.9028927 L3.2499435,4.00121469 C3.71183616,3.41244068 4.51764407,2.82032768 5.5749887,2.82032768 L5.5749887,2.82032768 C6.7169209,2.82032768 7.45817514,3.30670621 7.45817514,4.72354802 L7.45817514,4.72354802 L7.45817514,10.9028927 L10.1672034,10.9028927 L10.1672034,3.68846328 C10.1672034,1.69842938 9.08982486,0.428502825 6.82488136,0.428502825 L6.82488136,0.428502825 C5.17319774,0.428502825 3.90549718,1.23319774 3.2499435,1.99448588 L3.2499435,1.99448588 Z"></path>
        <path d="M8.73255367,0.348367232 L8.73255367,5.55384181 C7.92897175,4.49538418 6.78481356,3.98563277 5.58166667,3.98563277 L5.58166667,3.98563277 C2.97725989,3.98563277 1.05177966,6.01907345 1.05177966,9.33913559 L1.05177966,9.33913559 C1.05177966,12.7693842 3.02066667,14.7126723 5.58166667,14.7126723 L5.58166667,14.7126723 C6.82822034,14.7126723 7.92897175,14.1639661 8.73255367,13.1489153 L8.73255367,13.1489153 L8.73255367,14.4622486 L11.4415819,14.4622486 L11.4415819,0.348367232 L8.73255367,0.348367232 Z M3.82313559,9.33913559 C3.82313559,7.5839435 4.88159322,6.37857062 6.42531638,6.37857062 L6.42531638,6.37857062 C7.31459887,6.37857062 8.28958192,6.86606215 8.73255367,7.54053672 L8.73255367,7.54053672 L8.73255367,11.1588814 C8.28958192,11.8366949 7.31459887,12.3252994 6.42531638,12.3252994 L6.42531638,12.3252994 C4.88159322,12.3252994 3.82313559,11.1188136 3.82313559,9.33913559 L3.82313559,9.33913559 Z" id="path-41"></path>
        <path d="M0.779096045,4.70574011 C0.779096045,6.94174576 2.3050113,8.46877401 4.43862147,8.46877401 L4.43862147,8.46877401 C5.59279661,8.46877401 6.55664972,8.06587006 7.28232203,7.35800565 L7.28232203,7.35800565 L6.74919774,6.63233333 C6.17155367,7.22222034 5.35684181,7.55055367 4.52654802,7.55055367 L4.52654802,7.55055367 C2.98616384,7.55055367 2.05236158,6.42420339 1.96332203,5.07636723 L1.96332203,5.07636723 L7.7419887,5.07636723 L7.7419887,4.79366667 C7.7419887,2.64670056 6.46649718,0.958288136 4.30394915,0.958288136 L4.30394915,0.958288136 C2.26049153,0.958288136 0.779096045,2.63334463 0.779096045,4.70574011 L0.779096045,4.70574011 Z M4.29059322,1.87650847 C5.91890395,1.87650847 6.63122034,3.19318079 6.64457627,4.24829944 L6.64457627,4.24829944 L1.94774011,4.24829944 C2.0100678,3.16312994 2.76467797,1.87650847 4.29059322,1.87650847 L4.29059322,1.87650847 Z" id="path-43"></path>
        <path d="M0.582096045,2.14140113 L1.09963842,2.91270621 C1.73738418,2.21708475 2.43411864,1.92325424 3.29335028,1.92325424 L3.29335028,1.92325424 C4.32954802,1.92325424 5.09974011,2.46862147 5.09974011,3.41800565 L5.09974011,3.41800565 L5.09974011,4.70574011 C4.52209605,4.05575141 3.70849718,3.74188701 2.72906215,3.74188701 L2.72906215,3.74188701 C1.51478531,3.74188701 0.242632768,4.48202825 0.242632768,6.09809605 L0.242632768,6.09809605 C0.242632768,7.65183616 1.52814124,8.46877401 2.72906215,8.46877401 L2.72906215,8.46877401 C3.69291525,8.46877401 4.52209605,8.12708475 5.09974011,7.47598305 L5.09974011,7.47598305 L5.09974011,8.28958192 L6.21162147,8.28958192 L6.21162147,3.37237288 C6.21162147,1.63944068 4.96618079,0.958288136 3.44137853,0.958288136 L3.44137853,0.958288136 C2.27050847,0.958288136 1.35340113,1.34338418 0.582096045,2.14140113 L0.582096045,2.14140113 Z M1.36787006,6.09809605 C1.36787006,5.19657062 2.09242938,4.54324294 3.14643503,4.54324294 L3.14643503,4.54324294 C3.91440113,4.54324294 4.67235028,4.83929944 5.09974011,5.41583051 L5.09974011,5.41583051 L5.09974011,6.77924859 C4.67235028,7.37247458 3.91440113,7.66964407 3.14643503,7.66964407 L3.14643503,7.66964407 C2.09242938,7.66964407 1.36787006,7.01520339 1.36787006,6.09809605 L1.36787006,6.09809605 Z" id="path-45"></path>
        <path d="M0.655553672,0.636632768 L0.655553672,10.5144576 L1.76743503,10.5144576 L1.76743503,9.45154802 C2.29722034,10.1761073 3.17425989,10.6947627 4.18040678,10.6947627 L4.18040678,10.6947627 C6.04689831,10.6947627 7.36579661,9.27346893 7.36579661,6.94731073 L7.36579661,6.94731073 C7.36579661,4.65231638 6.06136723,3.18427684 4.18040678,3.18427684 L4.18040678,3.18427684 C3.21655367,3.18427684 2.3439661,3.65729944 1.76743503,4.44418644 L1.76743503,4.44418644 L1.76743503,0.636632768 L0.655553672,0.636632768 Z M1.76743503,8.57562147 L1.76743503,5.33012994 C2.15141808,4.71130508 3.02400565,4.1770678 3.91217514,4.1770678 L3.91217514,4.1770678 C5.35127684,4.1770678 6.21050847,5.36240678 6.21050847,6.94731073 L6.21050847,6.94731073 C6.21050847,8.53110169 5.35127684,9.70197175 3.91217514,9.70197175 L3.91217514,9.70197175 C3.02400565,9.70197175 2.15141808,9.19778531 1.76743503,8.57562147 L1.76743503,8.57562147 Z" id="path-47"></path>
        <path id="path-49" d="M0.281587571,0.636632768 L0.281587571,10.5155706 L1.39124294,10.5155706 L1.39124294,5.28561017 C1.80527684,4.71241808 2.63557062,4.1759548 3.49480226,4.1759548 L3.49480226,4.1759548 C4.4720113,4.1759548 5.10864407,4.53433898 5.10864407,5.80537853 L5.10864407,5.80537853 L5.10864407,10.5155706 L6.22163842,10.5155706 L6.22163842,5.46702825 C6.22163842,3.90883616 5.43475141,3.18427684 3.93777401,3.18427684 L3.93777401,3.18427684 C2.8570565,3.18427684 1.87984746,3.79197175 1.39124294,4.39744068 L1.39124294,4.39744068 L1.39124294,0.636632768 L0.281587571,0.636632768 Z"></path>
        <path d="M0.604355932,2.14140113 L1.12189831,2.91270621 C1.75964407,2.21708475 2.45526554,1.92325424 3.31449718,1.92325424 L3.31449718,1.92325424 C4.35069492,1.92325424 5.122,2.46862147 5.122,3.41800565 L5.122,3.41800565 L5.122,4.70574011 C4.54435593,4.05575141 3.72853107,3.74188701 2.75243503,3.74188701 L2.75243503,3.74188701 C1.53815819,3.74188701 0.262666667,4.48202825 0.262666667,6.09809605 L0.262666667,6.09809605 C0.262666667,7.65183616 1.55151412,8.46877401 2.75243503,8.46877401 L2.75243503,8.46877401 C3.71517514,8.46877401 4.54435593,8.12708475 5.122,7.47598305 L5.122,7.47598305 L5.122,8.28958192 L6.23165537,8.28958192 L6.23165537,3.37237288 C6.23165537,1.63944068 4.98732768,0.958288136 3.46252542,0.958288136 L3.46252542,0.958288136 C2.29276836,0.958288136 1.37232203,1.34338418 0.604355932,2.14140113 L0.604355932,2.14140113 Z M1.38901695,6.09809605 C1.38901695,5.19657062 2.11468927,4.54324294 3.16535593,4.54324294 L3.16535593,4.54324294 C3.93666102,4.54324294 4.69238418,4.83929944 5.122,5.41583051 L5.122,5.41583051 L5.122,6.77924859 C4.69238418,7.37247458 3.93666102,7.66964407 3.16535593,7.66964407 L3.16535593,7.66964407 C2.11468927,7.66964407 1.38901695,7.01520339 1.38901695,6.09809605 L1.38901695,6.09809605 Z" id="path-51"></path>
        <path id="path-53" d="M1.78858192,2.27718644 L1.78858192,1.13525424 L0.675587571,1.13525424 L0.675587571,8.28958192 L1.78858192,8.28958192 L1.78858192,3.22545763 C2.11246328,2.64558757 3.04515254,2.08241243 3.74188701,2.08241243 L3.74188701,2.08241243 C3.90549718,2.08241243 4.0379435,2.09799435 4.17150282,2.11580226 L4.17150282,2.11580226 L4.17150282,0.972757062 C3.19429379,0.972757062 2.36511299,1.5359322 1.78858192,2.27718644 L1.78858192,2.27718644 Z"></path>
        <path d="M1.05845763,2.14140113 L1.57488701,2.91270621 C2.21374576,2.21708475 2.91048023,1.92325424 3.76971186,1.92325424 L3.76971186,1.92325424 C4.80813559,1.92325424 5.57610169,2.46862147 5.57610169,3.41800565 L5.57610169,3.41800565 L5.57610169,4.70574011 C5.00068362,4.05575141 4.18374576,3.74188701 3.20764972,3.74188701 L3.20764972,3.74188701 C1.99225989,3.74188701 0.716768362,4.48202825 0.716768362,6.09809605 L0.716768362,6.09809605 C0.716768362,7.65183616 2.00561582,8.46877401 3.20764972,8.46877401 L3.20764972,8.46877401 C4.16927684,8.46877401 5.00068362,8.12708475 5.57610169,7.47598305 L5.57610169,7.47598305 L5.57610169,8.28958192 L6.68798305,8.28958192 L6.68798305,3.37237288 C6.68798305,1.63944068 5.44365537,0.958288136 3.91885311,0.958288136 L3.91885311,0.958288136 C2.74687006,0.958288136 1.82864972,1.34338418 1.05845763,2.14140113 L1.05845763,2.14140113 Z M1.84423164,6.09809605 C1.84423164,5.19657062 2.56879096,4.54324294 3.61945763,4.54324294 L3.61945763,4.54324294 C4.39187571,4.54324294 5.14982486,4.83929944 5.57610169,5.41583051 L5.57610169,5.41583051 L5.57610169,6.77924859 C5.14982486,7.37247458 4.39187571,7.66964407 3.61945763,7.66964407 L3.61945763,7.66964407 C2.56879096,7.66964407 1.84423164,7.01520339 1.84423164,6.09809605 L1.84423164,6.09809605 Z" id="path-55"></path>
        <path id="path-57" d="M1.12968927,2.17145198 L1.12968927,1.13525424 L0.0178079096,1.13525424 L0.0178079096,8.28958192 L1.12968927,8.28958192 L1.12968927,3.05962147 C1.5570791,2.48642938 2.37179096,1.9499661 3.24771751,1.9499661 L3.24771751,1.9499661 C4.21045763,1.9499661 4.86044633,2.33728814 4.86044633,3.60944068 L4.86044633,3.60944068 L4.86044633,8.28958192 L5.95785876,8.28958192 L5.95785876,3.26775141 C5.95785876,1.7140113 5.17319774,0.958288136 3.69068927,0.958288136 L3.69068927,0.958288136 C2.60885876,0.958288136 1.63164972,1.56598305 1.12968927,2.17145198 L1.12968927,2.17145198 Z"></path>
        <path id="path-59" d="M1.51255932,2.17145198 L1.51255932,1.13525424 L0.400677966,1.13525424 L0.400677966,8.28958192 L1.51255932,8.28958192 L1.51255932,3.05962147 C1.94106215,2.48642938 2.75466102,1.9499661 3.63058757,1.9499661 L3.63058757,1.9499661 C4.59221469,1.9499661 5.24442938,2.33728814 5.24442938,3.60944068 L5.24442938,3.60944068 L5.24442938,8.28958192 L6.34184181,8.28958192 L6.34184181,3.26775141 C6.34184181,1.7140113 5.5549548,0.958288136 4.07244633,0.958288136 L4.07244633,0.958288136 C2.99284181,0.958288136 2.01563277,1.56598305 1.51255932,2.17145198 L1.51255932,2.17145198 Z"></path>
        <path d="M1.09407345,0.146915254 L3.59719774,2.27941243 L4.44084746,2.27941243 L2.24713559,0.146915254 L1.09407345,0.146915254 Z M0.591,4.36738983 L1.10742938,5.13869492 C1.74517514,4.44307345 2.4419096,4.14924294 3.30114124,4.14924294 L3.30114124,4.14924294 C4.33733898,4.14924294 5.10864407,4.69461017 5.10864407,5.64399435 L5.10864407,5.64399435 L5.10864407,6.93172881 C4.531,6.28174011 3.71628814,5.96787571 2.7379661,5.96787571 L2.7379661,5.96787571 C1.52368927,5.96787571 0.24819774,6.70801695 0.24819774,8.32408475 L0.24819774,8.32408475 C0.24819774,9.87782486 1.53815819,10.6947627 2.7379661,10.6947627 L2.7379661,10.6947627 C3.70070621,10.6947627 4.531,10.3530734 5.10864407,9.70197175 L5.10864407,9.70197175 L5.10864407,10.5155706 L6.21829944,10.5155706 L6.21829944,5.59836158 C6.21829944,3.86542938 4.97508475,3.18427684 3.4480565,3.18427684 L3.4480565,3.18427684 C2.27829944,3.18427684 1.3589661,3.56937288 0.591,4.36738983 L0.591,4.36738983 Z M1.37454802,8.32408475 C1.37454802,7.42255932 2.10022034,6.76923164 3.15088701,6.76923164 L3.15088701,6.76923164 C3.92219209,6.76923164 4.67902825,7.06528814 5.10864407,7.64181921 L5.10864407,7.64181921 L5.10864407,9.00523729 C4.67902825,9.59846328 3.92219209,9.89563277 3.15088701,9.89563277 L3.15088701,9.89563277 C2.10022034,9.89563277 1.37454802,9.24119209 1.37454802,8.32408475 L1.37454802,8.32408475 Z" id="path-61"></path>
        <path d="M0.467457627,1.59825989 C0.467457627,2.01563277 0.810259887,2.33840113 1.22318079,2.33840113 L1.22318079,2.33840113 C1.63944068,2.33840113 1.96443503,2.01563277 1.96443503,1.59825989 L1.96443503,1.59825989 C1.96443503,1.18533898 1.63944068,0.844762712 1.22318079,0.844762712 L1.22318079,0.844762712 C0.810259887,0.844762712 0.467457627,1.18533898 0.467457627,1.59825989 L0.467457627,1.59825989 Z M0.662231638,10.5155706 L1.77188701,10.5155706 L1.77188701,3.36124294 L0.662231638,3.36124294 L0.662231638,10.5155706 Z" id="path-63"></path>
        <path id="path-65" d="M0.239293785,3.01732768 C0.239293785,5.66959322 4.66789831,4.60223164 4.66789831,6.33516384 L4.66789831,6.33516384 C4.66789831,7.04636723 4.0590904,7.56613559 2.96612994,7.56613559 L2.96612994,7.56613559 C1.98558192,7.56613559 1.0829435,7.09088701 0.612146893,6.54218079 L0.612146893,6.54218079 L0.0456327684,7.34353672 C0.771305085,8.0970339 1.75074011,8.46877401 2.9360791,8.46877401 L2.9360791,8.46877401 C4.77029379,8.46877401 5.73525989,7.5060339 5.73525989,6.30511299 L5.73525989,6.30511299 C5.73525989,3.52040113 1.30554237,4.54324294 1.30554237,2.98505085 L1.30554237,2.98505085 C1.30554237,2.34953107 1.91435028,1.86092655 2.89044633,1.86092655 L2.89044633,1.86092655 C3.82424859,1.86092655 4.59666667,2.24824859 5.02516949,2.76801695 L5.02516949,2.76801695 L5.54271186,1.99559887 C4.98064972,1.41572881 4.11919209,0.958288136 2.89044633,0.958288136 L2.89044633,0.958288136 C1.18756497,0.958288136 0.239293785,1.8909774 0.239293785,3.01732768 L0.239293785,3.01732768 Z"></path>
        <path d="M0.448536723,4.70574011 C0.448536723,6.94174576 1.97445198,8.46877401 4.10583616,8.46877401 L4.10583616,8.46877401 C5.26223729,8.46877401 6.2249774,8.06587006 6.95176271,7.35800565 L6.95176271,7.35800565 L6.41752542,6.63233333 C5.84099435,7.22222034 5.0240565,7.55055367 4.19487571,7.55055367 L4.19487571,7.55055367 C2.65560452,7.55055367 1.72068927,6.42420339 1.63276271,5.07636723 L1.63276271,5.07636723 L7.40920339,5.07636723 L7.40920339,4.79366667 C7.40920339,2.64670056 6.13705085,0.958288136 3.97227684,0.958288136 L3.97227684,0.958288136 C1.92770621,0.958288136 0.448536723,2.63334463 0.448536723,4.70574011 L0.448536723,4.70574011 Z M3.9589209,1.87650847 C5.58723164,1.87650847 6.29732203,3.19318079 6.31512994,4.24829944 L6.31512994,4.24829944 L1.61829379,4.24829944 C1.67728249,3.16312994 2.43300565,1.87650847 3.9589209,1.87650847 L3.9589209,1.87650847 Z" id="path-67"></path>
        <path d="M1.36341808,2.14140113 L1.88207345,2.91270621 C2.5209322,2.21708475 3.21321469,1.92325424 4.07467232,1.92325424 L4.07467232,1.92325424 C5.10975706,1.92325424 5.88217514,2.46862147 5.88217514,3.41800565 L5.88217514,3.41800565 L5.88217514,4.70574011 C5.30675706,4.05575141 4.48981921,3.74188701 3.51261017,3.74188701 L3.51261017,3.74188701 C2.29833333,3.74188701 1.02172881,4.48202825 1.02172881,6.09809605 L1.02172881,6.09809605 C1.02172881,7.65183616 2.31168927,8.46877401 3.51261017,8.46877401 L3.51261017,8.46877401 C4.47312429,8.46877401 5.30675706,8.12708475 5.88217514,7.47598305 L5.88217514,7.47598305 L5.88217514,8.28958192 L6.9929435,8.28958192 L6.9929435,3.37237288 C6.9929435,1.63944068 5.74638983,0.958288136 4.22270056,0.958288136 L4.22270056,0.958288136 C3.0529435,0.958288136 2.13138418,1.34338418 1.36341808,2.14140113 L1.36341808,2.14140113 Z M2.1480791,6.09809605 C2.1480791,5.19657062 2.87375141,4.54324294 3.92553107,4.54324294 L3.92553107,4.54324294 C4.69461017,4.54324294 5.45255932,4.83929944 5.88217514,5.41583051 L5.88217514,5.41583051 L5.88217514,6.77924859 C5.45255932,7.37247458 4.69461017,7.66964407 3.92553107,7.66964407 L3.92553107,7.66964407 C2.87375141,7.66964407 2.1480791,7.01520339 2.1480791,6.09809605 L2.1480791,6.09809605 Z" id="path-69"></path>
        <path id="path-71" d="M1.43353672,2.17145198 L1.43353672,1.13525424 L0.322768362,1.13525424 L0.322768362,8.28958192 L1.43353672,8.28958192 L1.43353672,3.05962147 C1.86315254,2.48642938 2.67786441,1.9499661 3.55267797,1.9499661 L3.55267797,1.9499661 C4.51319209,1.9499661 5.16763277,2.33728814 5.16763277,3.60944068 L5.16763277,3.60944068 L5.16763277,8.28958192 L6.26059322,8.28958192 L6.26059322,3.26775141 C6.26059322,1.7140113 5.4770452,0.958288136 3.99564972,0.958288136 L3.99564972,0.958288136 C2.91381921,0.958288136 1.93549718,1.56598305 1.43353672,2.17145198 L1.43353672,2.17145198 Z"></path>
        <path id="path-73" d="M2.04234463,0.294943503 L2.04234463,2.24824859 L0.85700565,2.24824859 L0.85700565,3.22768362 L2.04234463,3.22768362 L2.04234463,7.90782486 C2.04234463,8.97184746 2.57324294,9.58176836 3.64171751,9.58176836 L3.64171751,9.58176836 C4.27835028,9.58176836 4.67791525,9.38699435 4.95950282,9.12210169 L4.95950282,9.12210169 L4.63228249,8.27733898 C4.48648023,8.43872316 4.20377966,8.5889774 3.87767232,8.5889774 L3.87767232,8.5889774 C3.40464972,8.5889774 3.16646893,8.20388136 3.16646893,7.66964407 L3.16646893,7.66964407 L3.16646893,3.22768362 L4.61670056,3.22768362 L4.61670056,2.24824859 L3.16646893,2.24824859 L3.16646893,0.294943503 L2.04234463,0.294943503 Z"></path>
        <path d="M0.563175141,2.14140113 L1.07960452,2.91270621 C1.71846328,2.21708475 2.41408475,1.92325424 3.27331638,1.92325424 L3.27331638,1.92325424 C4.30951412,1.92325424 5.07970621,2.46862147 5.07970621,3.41800565 L5.07970621,3.41800565 L5.07970621,4.70574011 C4.50317514,4.05575141 3.68957627,3.74188701 2.71125424,3.74188701 L2.71125424,3.74188701 C1.4980904,3.74188701 0.221485876,4.48202825 0.221485876,6.09809605 L0.221485876,6.09809605 C0.221485876,7.65183616 1.51033333,8.46877401 2.71125424,8.46877401 L2.71125424,8.46877401 C3.67176836,8.46877401 4.50317514,8.12708475 5.07970621,7.47598305 L5.07970621,7.47598305 L5.07970621,8.28958192 L6.19270056,8.28958192 L6.19270056,3.37237288 C6.19270056,1.63944068 4.94725989,0.958288136 3.42245763,0.958288136 L3.42245763,0.958288136 C2.25158757,0.958288136 1.33225424,1.34338418 0.563175141,2.14140113 L0.563175141,2.14140113 Z M1.34894915,6.09809605 C1.34894915,5.19657062 2.07350847,4.54324294 3.12528814,4.54324294 L3.12528814,4.54324294 C3.89436723,4.54324294 4.65454237,4.83929944 5.07970621,5.41583051 L5.07970621,5.41583051 L5.07970621,6.77924859 C4.65454237,7.37247458 3.89436723,7.66964407 3.12528814,7.66964407 L3.12528814,7.66964407 C2.07350847,7.66964407 1.34894915,7.01520339 1.34894915,6.09809605 L1.34894915,6.09809605 Z" id="path-75"></path>
        <path id="path-77" d="M1.46024859,2.03455367 L1.46024859,0.997242938 L0.348367232,0.997242938 L0.348367232,8.15157062 L1.46024859,8.15157062 L1.46024859,2.92161017 C1.88875141,2.34619209 2.70235028,1.81084181 3.57716384,1.81084181 L3.57716384,1.81084181 C4.53990395,1.81084181 5.19100565,2.19816384 5.19100565,3.46920339 L5.19100565,3.46920339 L5.19100565,8.15157062 L6.28841808,8.15157062 L6.28841808,3.12751412 C6.28841808,1.576 5.50375706,0.819163842 4.02013559,0.819163842 L4.02013559,0.819163842 C2.93941808,0.819163842 1.96220904,1.42351977 1.46024859,2.03455367 L1.46024859,2.03455367 Z"></path>
        <path d="M0.416259887,2.00116384 L0.932689266,2.77358192 C1.57043503,2.07796045 2.26716949,1.78301695 3.12640113,1.78301695 L3.12640113,1.78301695 C4.16482486,1.78301695 4.93279096,2.33061017 4.93279096,3.27888136 L4.93279096,3.27888136 L4.93279096,4.56661582 C4.35737288,3.91551412 3.54266102,3.60387571 2.56322599,3.60387571 L2.56322599,3.60387571 C1.35006215,3.60387571 0.0767966102,4.34401695 0.0767966102,5.95674576 L0.0767966102,5.95674576 C0.0767966102,7.51605085 1.36230508,8.32964972 2.56322599,8.32964972 L2.56322599,8.32964972 C3.5259661,8.32964972 4.35737288,7.98907345 4.93279096,7.33908475 L4.93279096,7.33908475 L4.93279096,8.15157062 L6.04578531,8.15157062 L6.04578531,3.23324859 C6.04578531,1.50031638 4.79923164,0.819163842 3.27554237,0.819163842 L3.27554237,0.819163842 C2.10467232,0.819163842 1.18645198,1.20425989 0.416259887,2.00116384 L0.416259887,2.00116384 Z M1.2020339,5.95674576 C1.2020339,5.05522034 1.92548023,4.40411864 2.97948588,4.40411864 L2.97948588,4.40411864 C3.74856497,4.40411864 4.50651412,4.70128814 4.93279096,5.27781921 L4.93279096,5.27781921 L4.93279096,6.64012429 C4.50651412,7.23335028 3.74856497,7.52940678 2.97948588,7.52940678 L2.97948588,7.52940678 C1.92548023,7.52940678 1.2020339,6.8760791 1.2020339,5.95674576 L1.2020339,5.95674576 Z" id="path-79"></path>
        <path id="path-81" d="M0.138011299,0.310525424 L0.138011299,10.1883503 L1.24766667,10.1883503 L1.24766667,4.95950282 C1.66392655,4.38408475 2.49310734,3.84873446 3.35233898,3.84873446 L3.35233898,3.84873446 C4.32954802,3.84873446 4.96729379,4.20600565 4.96729379,5.47927119 L4.96729379,5.47927119 L4.96729379,10.1883503 L6.07694915,10.1883503 L6.07694915,5.13980791 C6.07694915,3.58272881 5.29340113,2.8559435 3.79531073,2.8559435 L3.79531073,2.8559435 C2.71570621,2.8559435 1.73849718,3.46141243 1.24766667,4.07133333 L1.24766667,4.07133333 L1.24766667,0.310525424 L0.138011299,0.310525424 Z"></path>
        <path d="M0.172514124,0.310525424 L0.172514124,10.1883503 L1.28439548,10.1883503 L1.28439548,9.12544068 C1.81529379,9.84888701 2.69122034,10.3675424 3.69736723,10.3675424 L3.69736723,10.3675424 C5.56497175,10.3675424 6.88387006,8.94736158 6.88387006,6.61786441 L6.88387006,6.61786441 C6.88387006,4.32509605 5.57832768,2.8559435 3.69736723,2.8559435 L3.69736723,2.8559435 C2.73462712,2.8559435 1.86203955,3.3300791 1.28439548,4.1180791 L1.28439548,4.1180791 L1.28439548,0.310525424 L0.172514124,0.310525424 Z M1.28439548,8.24840113 L1.28439548,5.0040226 C1.66949153,4.38408475 2.5420791,3.85096045 3.43024859,3.85096045 L3.43024859,3.85096045 C4.86935028,3.85096045 5.72858192,5.03629944 5.72858192,6.61786441 L5.72858192,6.61786441 C5.72858192,8.20499435 4.86935028,9.3769774 3.43024859,9.3769774 L3.43024859,9.3769774 C2.5420791,9.3769774 1.66949153,8.87056497 1.28439548,8.24840113 L1.28439548,8.24840113 Z" id="path-83"></path>
        <path d="M0.924898305,2.00116384 L1.44466667,2.77358192 C2.08018644,2.07796045 2.7780339,1.78301695 3.63726554,1.78301695 L3.63726554,1.78301695 C4.67235028,1.78301695 5.44365537,2.33061017 5.44365537,3.27888136 L5.44365537,3.27888136 L5.44365537,4.56661582 C4.86712429,3.91551412 4.05129944,3.60387571 3.0740904,3.60387571 L3.0740904,3.60387571 C1.85870056,3.60387571 0.584322034,4.34401695 0.584322034,5.95674576 L0.584322034,5.95674576 C0.584322034,7.51605085 1.87316949,8.32964972 3.0740904,8.32964972 L3.0740904,8.32964972 C4.0379435,8.32964972 4.86712429,7.98907345 5.44365537,7.33908475 L5.44365537,7.33908475 L5.44365537,8.15157062 L6.55442373,8.15157062 L6.55442373,3.23324859 C6.55442373,1.50031638 5.31009605,0.819163842 3.78418079,0.819163842 L3.78418079,0.819163842 C2.61442373,0.819163842 1.6939774,1.20425989 0.924898305,2.00116384 L0.924898305,2.00116384 Z M1.70955932,5.95674576 C1.70955932,5.05522034 2.43634463,4.40411864 3.48812429,4.40411864 L3.48812429,4.40411864 C4.25942938,4.40411864 5.01292655,4.70128814 5.44365537,5.27781921 L5.44365537,5.27781921 L5.44365537,6.64012429 C5.01292655,7.23335028 4.25942938,7.52940678 3.48812429,7.52940678 L3.48812429,7.52940678 C2.43634463,7.52940678 1.70955932,6.8760791 1.70955932,5.95674576 L1.70955932,5.95674576 Z" id="path-85"></path>
        <path d="M128.146831,1.94662712 C128.146831,2.47641243 128.573107,2.90380226 129.102893,2.90380226 L129.102893,2.90380226 C129.630452,2.90380226 130.056729,2.47641243 130.056729,1.94662712 L130.056729,1.94662712 C130.056729,1.42018079 129.630452,0.991677966 129.102893,0.991677966 L129.102893,0.991677966 C128.573107,0.991677966 128.146831,1.42018079 128.146831,1.94662712 L128.146831,1.94662712 Z M28.7965028,1.94662712 C28.7965028,2.47641243 29.2227797,2.90380226 29.751452,2.90380226 L29.751452,2.90380226 C30.2801243,2.90380226 30.7086271,2.47641243 30.7086271,1.94662712 L30.7086271,1.94662712 C30.7086271,1.42018079 30.2801243,0.991677966 29.751452,0.991677966 L29.751452,0.991677966 C29.2227797,0.991677966 28.7965028,1.42018079 28.7965028,1.94662712 L28.7965028,1.94662712 Z M119.990808,1.06624859 L119.990808,10.8683898 L121.532305,10.8683898 L121.532305,5.89998305 C121.885124,5.42918644 122.561825,4.96061582 123.35539,4.96061582 L123.35539,4.96061582 C124.222412,4.96061582 124.781136,5.28338418 124.781136,6.39971751 L124.781136,6.39971751 L124.781136,10.8683898 L126.323746,10.8683898 L126.323746,5.84099435 C126.323746,4.38742373 125.560232,3.59385876 124.030977,3.59385876 L124.030977,3.59385876 C122.914644,3.59385876 122.003102,4.16705085 121.532305,4.72466102 L121.532305,4.72466102 L121.532305,1.06624859 L119.990808,1.06624859 Z M100.546797,1.06624859 L96.6958362,10.8683898 L98.6491412,10.8683898 L99.3703616,8.97296045 L103.867972,8.97296045 L104.586966,10.8683898 L106.542497,10.8683898 L102.691537,1.06624859 L100.546797,1.06624859 Z M101.61861,2.78471186 L103.382706,7.45928814 L99.8556271,7.45928814 L101.61861,2.78471186 Z M53.2378588,10.8683898 L54.957435,10.8683898 L54.957435,1.06624859 L53.2378588,1.06624859 L53.2378588,10.8683898 Z M8.67690395,1.06624859 L6.01684746,7.79652542 L3.34232203,1.06624859 L0.917107345,1.06624859 L0.917107345,10.8683898 L2.63668362,10.8683898 L2.63668362,3.30002825 L5.64844633,10.8683898 L6.38413559,10.8683898 L9.38254237,3.30002825 L9.38254237,10.8683898 L11.1021186,10.8683898 L11.1021186,1.06624859 L8.67690395,1.06624859 Z M138.831576,7.31237288 C138.831576,9.56062147 140.403124,11.0442429 142.547864,11.0442429 L142.547864,11.0442429 C143.666424,11.0442429 144.709299,10.6780678 145.43052,10.0013672 L145.43052,10.0013672 L144.722655,8.98742938 C144.210678,9.50163277 143.400418,9.78099435 142.697006,9.78099435 L142.697006,9.78099435 C141.359186,9.78099435 140.564508,8.8850339 140.447644,7.82657627 L140.447644,7.82657627 L145.914672,7.82657627 L145.914672,7.44370621 C145.914672,5.20881356 144.562384,3.59385876 142.431,3.59385876 L142.431,3.59385876 C140.33078,3.59385876 138.831576,5.25555932 138.831576,7.31237288 L138.831576,7.31237288 Z M142.417644,4.85822034 C143.812226,4.85822034 144.386531,5.88662712 144.431051,6.72359887 L144.431051,6.72359887 L140.433175,6.72359887 C140.491051,5.8710452 141.10765,4.85822034 142.417644,4.85822034 L142.417644,4.85822034 Z M112.228785,7.31237288 C112.228785,9.45711299 113.743571,11.0442429 115.890537,11.0442429 L115.890537,11.0442429 C117.285119,11.0442429 118.108734,10.442113 118.607356,9.78099435 L118.607356,9.78099435 L117.594531,8.8249322 C117.197192,9.38476836 116.654051,9.67748588 115.962881,9.67748588 L115.962881,9.67748588 C114.682938,9.67748588 113.817028,8.69359887 113.817028,7.31237288 L113.817028,7.31237288 C113.817028,5.93114689 114.682938,4.96061582 115.962881,4.96061582 L115.962881,4.96061582 C116.654051,4.96061582 117.197192,5.22439548 117.594531,5.78311864 L117.594531,5.78311864 L118.607356,4.85822034 C118.108734,4.18151977 117.285119,3.59385876 115.890537,3.59385876 L115.890537,3.59385876 C113.743571,3.59385876 112.228785,5.16763277 112.228785,7.31237288 L112.228785,7.31237288 Z M109.100158,4.79811864 L109.100158,3.77082486 L107.555322,3.77082486 L107.555322,10.8683898 L109.100158,10.8683898 L109.100158,6.03354237 C109.408458,5.51933898 110.27548,5.07859322 110.936599,5.07859322 L110.936599,5.07859322 C111.126921,5.07859322 111.274949,5.09306215 111.406282,5.12088701 L111.406282,5.12088701 L111.406282,3.59385876 C110.49474,3.59385876 109.643299,4.12364407 109.100158,4.79811864 L109.100158,4.79811864 Z M85.2609322,7.31237288 C85.2609322,9.56062147 86.8347062,11.0442429 88.9805593,11.0442429 L88.9805593,11.0442429 C90.0968927,11.0442429 91.1408814,10.6780678 91.8609887,10.0013672 L91.8609887,10.0013672 L91.1542373,8.98742938 C90.6400339,9.50163277 89.830887,9.78099435 89.1274746,9.78099435 L89.1274746,9.78099435 C87.7885424,9.78099435 86.9949774,8.8850339 86.878113,7.82657627 L86.878113,7.82657627 L92.3451412,7.82657627 L92.3451412,7.44370621 C92.3451412,5.20881356 90.9928531,3.59385876 88.8614689,3.59385876 L88.8614689,3.59385876 C86.7601356,3.59385876 85.2609322,5.25555932 85.2609322,7.31237288 L85.2609322,7.31237288 Z M88.847,4.85822034 C90.2426949,4.85822034 90.815887,5.88662712 90.8615198,6.72359887 L90.8615198,6.72359887 L86.8636441,6.72359887 C86.9215198,5.8710452 87.5392316,4.85822034 88.847,4.85822034 L88.847,4.85822034 Z M76.7231525,7.23780226 C76.7231525,9.5750904 78.0598588,10.8839718 79.8673616,10.8839718 L79.8673616,10.8839718 C80.7944859,10.8839718 81.6025198,10.4120621 82.146774,9.6930678 L82.146774,9.6930678 L82.146774,10.4999887 C82.146774,12.013661 81.0571525,12.4855706 80.0432147,12.4855706 L80.0432147,12.4855706 C79.1038475,12.4855706 78.3692712,12.2340339 77.7804972,11.5740282 L77.7804972,11.5740282 L77.0615028,12.6914746 C77.9429944,13.4839266 78.8389548,13.7499322 80.0432147,13.7499322 L80.0432147,13.7499322 C81.7783729,13.7499322 83.6893842,13.0576497 83.6893842,10.4999887 L83.6893842,10.4999887 L83.6893842,3.77082486 L82.146774,3.77082486 L82.146774,4.75582486 C81.5724689,3.99119774 80.763322,3.59385876 79.8673616,3.59385876 L79.8673616,3.59385876 C78.0309209,3.59385876 76.7231525,4.92945198 76.7231525,7.23780226 L76.7231525,7.23780226 Z M78.3091695,7.23780226 C78.3091695,5.8710452 79.0893785,4.96061582 80.3236893,4.96061582 L80.3236893,4.96061582 C81.0437966,4.96061582 81.7939548,5.38689266 82.146774,5.89998305 L82.146774,5.89998305 L82.146774,8.56003955 C81.7939548,9.07535593 81.0437966,9.50163277 80.3236893,9.50163277 L80.3236893,9.50163277 C79.0893785,9.50163277 78.3091695,8.60567232 78.3091695,7.23780226 L78.3091695,7.23780226 Z M69.1981977,4.73912994 L69.8448475,5.8120565 C70.4469774,5.19545763 71.1526158,4.90162712 71.9461808,4.90162712 L71.9461808,4.90162712 C72.9155989,4.90162712 73.6067684,5.40136158 73.6067684,6.2249774 L73.6067684,6.2249774 L73.6067684,7.28232203 C73.078096,6.68019209 72.2689492,6.37189266 71.2995311,6.37189266 L71.2995311,6.37189266 C70.138678,6.37189266 68.8453785,7.04859322 68.8453785,8.69359887 L68.8453785,8.69359887 C68.8453785,10.251791 70.1531469,11.0442429 71.2995311,11.0442429 L71.2995311,11.0442429 C72.2400113,11.0442429 73.078096,10.7058927 73.6067684,10.0881808 L73.6067684,10.0881808 L73.6067684,10.8683898 L75.1493785,10.8683898 L75.1493785,6.15151977 C75.1493785,4.2549774 73.7681525,3.59385876 72.1810226,3.59385876 L72.1810226,3.59385876 C71.0491073,3.59385876 70.0207006,3.94667797 69.1981977,4.73912994 L69.1981977,4.73912994 Z M70.3879887,8.7080678 C70.3879887,7.94344068 71.0491073,7.42923729 71.9183559,7.42923729 L71.9183559,7.42923729 C72.5783616,7.42923729 73.2405932,7.67854802 73.6067684,8.16381356 L73.6067684,8.16381356 L73.6067684,9.25232203 C73.2405932,9.73647458 72.5783616,9.98689831 71.9183559,9.98689831 L71.9183559,9.98689831 C71.0491073,9.98689831 70.3879887,9.48716384 70.3879887,8.7080678 L70.3879887,8.7080678 Z M62.8040452,4.88827119 C62.5692034,4.12364407 61.9225537,3.59385876 60.865209,3.59385876 L60.865209,3.59385876 C59.7778136,3.59385876 58.8518023,4.29838418 58.5423898,4.72466102 L58.5423898,4.72466102 L58.5423898,3.77082486 L56.9986667,3.77082486 L56.9986667,10.8683898 L58.5423898,10.8683898 L58.5423898,5.89998305 C58.8673842,5.44588136 59.498452,4.96061582 60.1896215,4.96061582 L60.1896215,4.96061582 C61.0265932,4.96061582 61.3504746,5.47370621 61.3504746,6.23944633 L61.3504746,6.23944633 L61.3504746,10.8683898 L62.8930847,10.8683898 L62.8930847,5.89998305 C63.2013842,5.42918644 63.8491469,4.96061582 64.5392034,4.96061582 L64.5392034,4.96061582 C65.3772881,4.96061582 65.7156384,5.47370621 65.7156384,6.23944633 L65.7156384,6.23944633 L65.7156384,10.8683898 L67.2582486,10.8683898 L67.2582486,5.73971186 C67.2582486,4.29838418 66.5092034,3.59385876 65.214791,3.59385876 L65.214791,3.59385876 C64.1429774,3.59385876 63.2013842,4.2549774 62.8040452,4.88827119 L62.8040452,4.88827119 Z M40.4361977,7.23780226 C40.4361977,9.5750904 41.7740169,10.8839718 43.5815198,10.8839718 L43.5815198,10.8839718 C44.5075311,10.8839718 45.315565,10.4120621 45.8598192,9.6930678 L45.8598192,9.6930678 L45.8598192,10.4999887 C45.8598192,12.013661 44.7724237,12.4855706 43.7584859,12.4855706 L43.7584859,12.4855706 C42.8180056,12.4855706 42.0823164,12.2340339 41.4946554,11.5740282 L41.4946554,11.5740282 L40.774548,12.6914746 C41.6571525,13.4839266 42.552,13.7499322 43.7584859,13.7499322 L43.7584859,13.7499322 C45.4925311,13.7499322 47.4024294,13.0576497 47.4024294,10.4999887 L47.4024294,10.4999887 L47.4024294,3.77082486 L45.8598192,3.77082486 L45.8598192,4.75582486 C45.2866271,3.99119774 44.4774802,3.59385876 43.5815198,3.59385876 L43.5815198,3.59385876 C41.7439661,3.59385876 40.4361977,4.92945198 40.4361977,7.23780226 L40.4361977,7.23780226 Z M42.0233277,7.23780226 C42.0233277,5.8710452 42.8024237,4.96061582 44.0378475,4.96061582 L44.0378475,4.96061582 C44.7568418,4.96061582 45.505887,5.38689266 45.8598192,5.89998305 L45.8598192,5.89998305 L45.8598192,8.56003955 C45.505887,9.07535593 44.7568418,9.50163277 44.0378475,9.50163277 L44.0378475,9.50163277 C42.8024237,9.50163277 42.0233277,8.60567232 42.0233277,7.23780226 L42.0233277,7.23780226 Z M34.0576271,4.72466102 L34.0576271,3.77082486 L32.5150169,3.77082486 L32.5150169,10.8683898 L34.0576271,10.8683898 L34.0576271,5.89998305 C34.4249153,5.42918644 35.1016158,4.96061582 35.8807119,4.96061582 L35.8807119,4.96061582 C36.7477345,4.96061582 37.3209266,5.31343503 37.3209266,6.43088136 L37.3209266,6.43088136 L37.3209266,10.8683898 L38.8635367,10.8683898 L38.8635367,5.8710452 C38.8635367,4.41636158 38.1000226,3.59385876 36.5707684,3.59385876 L36.5707684,3.59385876 C35.454435,3.59385876 34.5284237,4.16705085 34.0576271,4.72466102 L34.0576271,4.72466102 Z M12.7192994,7.31237288 C12.7192994,9.33913559 14.1005254,11.0442429 16.3632429,11.0442429 L16.3632429,11.0442429 C18.6270734,11.0442429 20.0082994,9.33913559 20.0082994,7.31237288 L20.0082994,7.31237288 C20.0082994,5.26891525 18.6270734,3.59385876 16.3632429,3.59385876 L16.3632429,3.59385876 C14.1005254,3.59385876 12.7192994,5.26891525 12.7192994,7.31237288 L12.7192994,7.31237288 Z M14.3208983,7.31237288 C14.3208983,6.06248023 15.0554746,4.96061582 16.3632429,4.96061582 L16.3632429,4.96061582 C17.6854802,4.96061582 18.4067006,6.06248023 18.4067006,7.31237288 L18.4067006,7.31237288 C18.4067006,8.57673446 17.6854802,9.67748588 16.3632429,9.67748588 L16.3632429,9.67748588 C15.0554746,9.67748588 14.3208983,8.57673446 14.3208983,7.31237288 L14.3208983,7.31237288 Z M136.641203,3.77082486 L134.568808,9.09093785 L132.496412,3.77082486 L130.835825,3.77082486 L133.731836,10.8683898 L135.391311,10.8683898 L138.287322,3.77082486 L136.641203,3.77082486 Z M128.322684,10.8683898 L129.86752,10.8683898 L129.86752,3.77193785 L128.322684,3.77193785 L128.322684,10.8683898 Z M28.9734689,10.8683898 L30.5160791,10.8683898 L30.5160791,3.77193785 L28.9734689,3.77193785 L28.9734689,10.8683898 Z M26.3568192,3.77082486 L24.2844237,9.09093785 L22.2131412,3.77082486 L20.5514407,3.77082486 L23.446339,10.8683898 L25.1080395,10.8683898 L28.0040508,3.77082486 L26.3568192,3.77082486 Z" id="path-87"></path>
    </defs>
    <g id="Page-1" stroke="none" stroke-width="1" fill="none" fill-rule="evenodd">
        <g id="3-1366x768" transform="translate(-408.000000, -511.000000)">
            <g id="footer-partner-nls" transform="translate(408.000000, 511.000000)">
                <path d="M21.5563633,22.2951689 L41.8184254,33.9905136 L41.8184254,11.7061407 L21.5563633,0.0063440678 L21.5563633,22.2951689 Z" id="Fill-1" fill="#FFFFFF"></path>
                <path d="M0.72110904,34.9646062 L21.0755497,46.7178266 L41.3342729,35.0169169 L20.9820582,23.2681486 L0.72110904,34.9646062 Z" id="Fill-2" fill="#FFFFFF"></path>
                <g id="Group-5" transform="translate(62.327684, 15.581921)">
                    <mask id="mask-2"  fill="white">
                        <use xlink:href="#path-1"></use>
                    </mask>
                    <g id="Clip-4"></g>
                    <path d="M-1.71623729,-1.80527684 L11.431565,-1.80527684 L11.431565,12.5901921 L-1.71623729,12.5901921 L-1.71623729,-1.80527684 Z" id="Fill-3" fill="#FFFFFF" mask="url(#mask-2)"></path>
                </g>
                <g id="Group-8" transform="translate(72.344633, 12.242938)">
                    <mask id="mask-4"  fill="white">
                        <use xlink:href="#path-3"></use>
                    </mask>
                    <g id="Clip-7"></g>
                    <path d="M-0.964966102,-1.00725989 L9.51721469,-1.00725989 L9.51721469,15.9291751 L-0.964966102,15.9291751 L-0.964966102,-1.00725989 Z" id="Fill-6" fill="#FFFFFF" mask="url(#mask-4)"></path>
                </g>
                <g id="Group-11" transform="translate(80.135593, 11.129944)">
                    <mask id="mask-6"  fill="white">
                        <use xlink:href="#path-5"></use>
                    </mask>
                    <g id="Clip-10"></g>
                    <path d="M-0.926011299,-1.39569492 L5.93448588,-1.39569492 L5.93448588,16.7884068 L-0.926011299,16.7884068 L-0.926011299,-1.39569492 Z" id="Fill-9" fill="#FFFFFF" mask="url(#mask-6)"></path>
                </g>
                <g id="Group-14" transform="translate(85.700565, 15.581921)">
                    <mask id="mask-8"  fill="white">
                        <use xlink:href="#path-7"></use>
                    </mask>
                    <g id="Clip-13"></g>
                    <path d="M-1.7329322,-1.80416384 L12.7471243,-1.80416384 L12.7471243,12.5901921 L-1.7329322,12.5901921 L-1.7329322,-1.80416384 Z" id="Fill-12" fill="#FFFFFF" mask="url(#mask-8)"></path>
                </g>
                <g id="Group-17" transform="translate(97.943503, 15.581921)">
                    <mask id="mask-10"  fill="white">
                        <use xlink:href="#path-9"></use>
                    </mask>
                    <g id="Clip-16"></g>
                    <path d="M-1.36787006,-1.80527684 L11.9068136,-1.80527684 L11.9068136,12.3364294 L-1.36787006,12.3364294 L-1.36787006,-1.80527684 Z" id="Fill-15" fill="#FFFFFF" mask="url(#mask-10)"></path>
                </g>
                <g id="Group-20" transform="translate(109.073446, 15.581921)">
                    <mask id="mask-12"  fill="white">
                        <use xlink:href="#path-11"></use>
                    </mask>
                    <g id="Clip-19"></g>
                    <path d="M-1.09629944,-1.80527684 L12.0526158,-1.80527684 L12.0526158,12.5901921 L-1.09629944,12.5901921 L-1.09629944,-1.80527684 Z" id="Fill-18" fill="#FFFFFF" mask="url(#mask-12)"></path>
                </g>
                <path d="M121.742661,26.0841356 L124.428316,26.0841356 L124.428316,11.9691412 L121.742661,11.9691412 L121.742661,26.0841356 Z" id="Fill-21" fill="#FFFFFF"></path>
                <path d="M132.086385,11.9696977 L132.086385,26.0846921 L141.082719,26.0846921 L141.082719,23.4379915 L135.110391,23.4379915 L135.110391,11.9696977 L132.086385,11.9696977 Z" id="Fill-22" fill="#FFFFFF"></path>
                <g id="Group-25" transform="translate(142.463277, 11.129944)">
                    <mask id="mask-14"  fill="white">
                        <use xlink:href="#path-13"></use>
                    </mask>
                    <g id="Clip-24"></g>
                    <path d="M-1.71735028,-1.39569492 L5.14537288,-1.39569492 L5.14537288,16.7884068 L-1.71735028,16.7884068 L-1.71735028,-1.39569492 Z" id="Fill-23" fill="#FFFFFF" mask="url(#mask-14)"></path>
                </g>
                <g id="Group-28" transform="translate(146.915254, 11.129944)">
                    <mask id="mask-16"  fill="white">
                        <use xlink:href="#path-15"></use>
                    </mask>
                    <g id="Clip-27"></g>
                    <path d="M-0.754610169,-0.995016949 L13.2824746,-0.995016949 L13.2824746,17.0421695 L-0.754610169,17.0421695 L-0.754610169,-0.995016949 Z" id="Fill-26" fill="#FFFFFF" mask="url(#mask-16)"></path>
                </g>
                <g id="Group-31" transform="translate(159.158192, 15.581921)">
                    <mask id="mask-18"  fill="white">
                        <use xlink:href="#path-17"></use>
                    </mask>
                    <g id="Clip-30"></g>
                    <path d="M-0.812485876,-1.80527684 L8.80155932,-1.80527684 L8.80155932,12.3364294 L-0.812485876,12.3364294 L-0.812485876,-1.80527684 Z" id="Fill-29" fill="#FFFFFF" mask="url(#mask-18)"></path>
                </g>
                <g id="Group-34" transform="translate(166.949153, 15.581921)">
                    <mask id="mask-20"  fill="white">
                        <use xlink:href="#path-19"></use>
                    </mask>
                    <g id="Clip-33"></g>
                    <path d="M-1.81418079,-1.80527684 L11.3336215,-1.80527684 L11.3336215,12.5901921 L-1.81418079,12.5901921 L-1.81418079,-1.80527684 Z" id="Fill-32" fill="#FFFFFF" mask="url(#mask-20)"></path>
                </g>
                <g id="Group-37" transform="translate(178.079096, 15.581921)">
                    <mask id="mask-22"  fill="white">
                        <use xlink:href="#path-21"></use>
                    </mask>
                    <g id="Clip-36"></g>
                    <path d="M-1.03174576,-1.80527684 L8.57896045,-1.80527684 L8.57896045,12.3364294 L-1.03174576,12.3364294 L-1.03174576,-1.80527684 Z" id="Fill-35" fill="#FFFFFF" mask="url(#mask-22)"></path>
                </g>
                <g id="Group-40" transform="translate(184.757062, 15.581921)">
                    <mask id="mask-24"  fill="white">
                        <use xlink:href="#path-23"></use>
                    </mask>
                    <g id="Clip-39"></g>
                    <path d="M-1.74628814,-1.55374011 L13.0309379,-1.55374011 L13.0309379,16.4845593 L-1.74628814,16.4845593 L-1.74628814,-1.55374011 Z" id="Fill-38" fill="#FFFFFF" mask="url(#mask-24)"></path>
                </g>
                <g id="Group-43" transform="translate(46.745763, 35.615819)">
                    <mask id="mask-26"  fill="white">
                        <use xlink:href="#path-25"></use>
                    </mask>
                    <g id="Clip-42"></g>
                    <path d="M-1.53481921,-1.40682486 L12.9452373,-1.40682486 L12.9452373,12.9886441 L-1.53481921,12.9886441 L-1.53481921,-1.40682486 Z" id="Fill-41" fill="#FFFFFF" mask="url(#mask-26)"></path>
                </g>
                <g id="Group-46" transform="translate(57.875706, 32.276836)">
                    <mask id="mask-28"  fill="white">
                        <use xlink:href="#path-27"></use>
                    </mask>
                    <g id="Clip-45"></g>
                    <path d="M-1.0439887,-1.82753672 L10.4087232,-1.82753672 L10.4087232,16.1662429 L-1.0439887,16.1662429 L-1.0439887,-1.82753672 Z" id="Fill-44" fill="#FFFFFF" mask="url(#mask-28)"></path>
                </g>
                <g id="Group-49" transform="translate(70.118644, 32.276836)">
                    <mask id="mask-30"  fill="white">
                        <use xlink:href="#path-29"></use>
                    </mask>
                    <g id="Clip-48"></g>
                    <path d="M-0.983887006,-1.82753672 L14.3442712,-1.82753672 L14.3442712,16.4177797 L-0.983887006,16.4177797 L-0.983887006,-1.82753672 Z" id="Fill-47" fill="#FFFFFF" mask="url(#mask-30)"></path>
                </g>
                <g id="Group-52" transform="translate(83.474576, 35.615819)">
                    <mask id="mask-32"  fill="white">
                        <use xlink:href="#path-31"></use>
                    </mask>
                    <g id="Clip-51"></g>
                    <path d="M-1.35228814,-1.40682486 L11.7754802,-1.40682486 L11.7754802,12.9886441 L-1.35228814,12.9886441 L-1.35228814,-1.40682486 Z" id="Fill-50" fill="#FFFFFF" mask="url(#mask-32)"></path>
                </g>
                <g id="Group-55" transform="translate(93.491525, 35.615819)">
                    <mask id="mask-34"  fill="white">
                        <use xlink:href="#path-33"></use>
                    </mask>
                    <g id="Clip-54"></g>
                    <path d="M-0.773531073,-1.40682486 L13.7065254,-1.40682486 L13.7065254,12.9886441 L-0.773531073,12.9886441 L-0.773531073,-1.40682486 Z" id="Fill-53" fill="#FFFFFF" mask="url(#mask-34)"></path>
                </g>
                <g id="Group-58" transform="translate(105.734463, 33.389831)">
                    <mask id="mask-36"  fill="white">
                        <use xlink:href="#path-35"></use>
                    </mask>
                    <g id="Clip-57"></g>
                    <path d="M-1.73738418,-1.57266102 L8.74479661,-1.57266102 L8.74479661,15.361548 L-1.73738418,15.361548 L-1.73738418,-1.57266102 Z" id="Fill-56" fill="#FFFFFF" mask="url(#mask-36)"></path>
                </g>
                <path d="M114.034062,46.7390847 L116.719718,46.7390847 L116.719718,32.6252034 L114.034062,32.6252034 L114.034062,46.7390847 Z" id="Fill-59" fill="#FFFFFF"></path>
                <g id="Group-62" transform="translate(117.977401, 35.615819)">
                    <mask id="mask-38"  fill="white">
                        <use xlink:href="#path-37"></use>
                    </mask>
                    <g id="Clip-61"></g>
                    <path d="M-0.99279096,-1.40682486 L12.1550113,-1.40682486 L12.1550113,12.9886441 L-0.99279096,12.9886441 L-0.99279096,-1.40682486 Z" id="Fill-60" fill="#FFFFFF" mask="url(#mask-38)"></path>
                </g>
                <g id="Group-65" transform="translate(130.220339, 35.615819)">
                    <mask id="mask-40"  fill="white">
                        <use xlink:href="#path-39"></use>
                    </mask>
                    <g id="Clip-64"></g>
                    <path d="M-1.27326554,-1.40682486 L12.0014181,-1.40682486 L12.0014181,12.7371073 L-1.27326554,12.7371073 L-1.27326554,-1.40682486 Z" id="Fill-63" fill="#FFFFFF" mask="url(#mask-40)"></path>
                </g>
                <g id="Group-68" transform="translate(141.350282, 32.276836)">
                    <mask id="mask-42"  fill="white">
                        <use xlink:href="#path-41"></use>
                    </mask>
                    <g id="Clip-67"></g>
                    <path d="M-0.783548023,-1.48584746 L13.2746836,-1.48584746 L13.2746836,16.548 L-0.783548023,16.548 L-0.783548023,-1.48584746 Z" id="Fill-66" fill="#FFFFFF" mask="url(#mask-42)"></path>
                </g>
                <path d="M47.5102785,54.0609181 L47.5102785,63.9398559 L53.332352,63.9398559 L53.332352,62.8446695 L48.7390243,62.8446695 L48.7390243,54.0609181 L47.5102785,54.0609181 Z" id="Fill-69" fill="#FFFFFF"></path>
                <g id="Group-72" transform="translate(53.423729, 55.649718)">
                    <mask id="mask-44"  fill="white">
                        <use xlink:href="#path-43"></use>
                    </mask>
                    <g id="Clip-71"></g>
                    <path d="M-1.05400565,-0.874813559 L9.5750904,-0.874813559 L9.5750904,10.3029887 L-1.05400565,10.3029887 L-1.05400565,-0.874813559 Z" id="Fill-70" fill="#FFFFFF" mask="url(#mask-44)"></path>
                </g>
                <g id="Group-75" transform="translate(62.327684, 55.649718)">
                    <mask id="mask-46"  fill="white">
                        <use xlink:href="#path-45"></use>
                    </mask>
                    <g id="Clip-74"></g>
                    <path d="M-1.59158192,-0.874813559 L8.04472316,-0.874813559 L8.04472316,10.3018757 L-1.59158192,10.3018757 L-1.59158192,-0.874813559 Z" id="Fill-73" fill="#FFFFFF" mask="url(#mask-46)"></path>
                </g>
                <g id="Group-78" transform="translate(70.118644, 53.423729)">
                    <mask id="mask-48"  fill="white">
                        <use xlink:href="#path-47"></use>
                    </mask>
                    <g id="Clip-77"></g>
                    <path d="M-1.17866102,-1.19758192 L9.2000113,-1.19758192 L9.2000113,12.5278644 L-1.17866102,12.5278644 L-1.17866102,-1.19758192 Z" id="Fill-76" fill="#FFFFFF" mask="url(#mask-48)"></path>
                </g>
                <g id="Group-81" transform="translate(79.022599, 53.423729)">
                    <mask id="mask-50"  fill="white">
                        <use xlink:href="#path-49"></use>
                    </mask>
                    <g id="Clip-80"></g>
                    <path d="M-1.55262712,-1.19646893 L8.05474011,-1.19646893 L8.05474011,12.3497853 L-1.55262712,12.3497853 L-1.55262712,-1.19646893 Z" id="Fill-79" fill="#FFFFFF" mask="url(#mask-50)"></path>
                </g>
                <g id="Group-84" transform="translate(86.813559, 55.649718)">
                    <mask id="mask-52"  fill="white">
                        <use xlink:href="#path-51"></use>
                    </mask>
                    <g id="Clip-83"></g>
                    <path d="M-1.57154802,-0.874813559 L8.06475706,-0.874813559 L8.06475706,10.3018757 L-1.57154802,10.3018757 L-1.57154802,-0.874813559 Z" id="Fill-82" fill="#FFFFFF" mask="url(#mask-52)"></path>
                </g>
                <g id="Group-87" transform="translate(94.604520, 55.649718)">
                    <mask id="mask-54"  fill="white">
                        <use xlink:href="#path-53"></use>
                    </mask>
                    <g id="Clip-86"></g>
                    <path d="M-1.15751412,-0.860344633 L6.00571751,-0.860344633 L6.00571751,10.1237966 L-1.15751412,10.1237966 L-1.15751412,-0.860344633 Z" id="Fill-85" fill="#FFFFFF" mask="url(#mask-54)"></path>
                </g>
                <path d="M100.167266,63.9381864 L101.28026,63.9381864 L101.28026,54.0581356 L100.167266,54.0581356 L100.167266,63.9381864 Z" id="Fill-88" fill="#FFFFFF"></path>
                <g id="Group-91" transform="translate(102.395480, 55.649718)">
                    <mask id="mask-56"  fill="white">
                        <use xlink:href="#path-55"></use>
                    </mask>
                    <g id="Clip-90"></g>
                    <path d="M-1.11633333,-0.874813559 L8.52219774,-0.874813559 L8.52219774,10.3018757 L-1.11633333,10.3018757 L-1.11633333,-0.874813559 Z" id="Fill-89" fill="#FFFFFF" mask="url(#mask-56)"></path>
                </g>
                <g id="Group-94" transform="translate(111.299435, 55.649718)">
                    <mask id="mask-58"  fill="white">
                        <use xlink:href="#path-57"></use>
                    </mask>
                    <g id="Clip-93"></g>
                    <path d="M-1.81529379,-0.874813559 L7.79207345,-0.874813559 L7.79207345,10.1237966 L-1.81529379,10.1237966 L-1.81529379,-0.874813559 Z" id="Fill-92" fill="#FFFFFF" mask="url(#mask-58)"></path>
                </g>
                <g id="Group-97" transform="translate(119.090395, 55.649718)">
                    <mask id="mask-60"  fill="white">
                        <use xlink:href="#path-59"></use>
                    </mask>
                    <g id="Clip-96"></g>
                    <path d="M-1.43353672,-0.874813559 L8.17383051,-0.874813559 L8.17383051,10.1237966 L-1.43353672,10.1237966 L-1.43353672,-0.874813559 Z" id="Fill-95" fill="#FFFFFF" mask="url(#mask-60)"></path>
                </g>
                <path d="M138.490221,54.0609181 L138.490221,61.7784209 L132.803933,54.0609181 L131.54291,54.0609181 L131.54291,63.9398559 L132.773882,63.9398559 L132.773882,56.0609689 L138.535854,63.9398559 L139.72008,63.9398559 L139.72008,54.0609181 L138.490221,54.0609181 Z" id="Fill-98" fill="#FFFFFF"></path>
                <g id="Group-101" transform="translate(141.350282, 53.423729)">
                    <mask id="mask-62"  fill="white">
                        <use xlink:href="#path-61"></use>
                    </mask>
                    <g id="Clip-100"></g>
                    <path d="M-1.58490395,-1.68841243 L8.05251412,-1.68841243 L8.05251412,12.5267514 L-1.58490395,12.5267514 L-1.58490395,-1.68841243 Z" id="Fill-99" fill="#FFFFFF" mask="url(#mask-62)"></path>
                </g>
                <g id="Group-104" transform="translate(149.141243, 53.423729)">
                    <mask id="mask-64"  fill="white">
                        <use xlink:href="#path-63"></use>
                    </mask>
                    <g id="Clip-103"></g>
                    <path d="M-1.36564407,-0.989451977 L3.79864972,-0.989451977 L3.79864972,12.3486723 L-1.36564407,12.3486723 L-1.36564407,-0.989451977 Z" id="Fill-102" fill="#FFFFFF" mask="url(#mask-64)"></path>
                </g>
                <g id="Group-107" transform="translate(152.480226, 55.649718)">
                    <mask id="mask-66"  fill="white">
                        <use xlink:href="#path-65"></use>
                    </mask>
                    <g id="Clip-106"></g>
                    <path d="M-1.78746893,-0.874813559 L7.56836158,-0.874813559 L7.56836158,10.3029887 L-1.78746893,10.3029887 L-1.78746893,-0.874813559 Z" id="Fill-105" fill="#FFFFFF" mask="url(#mask-66)"></path>
                </g>
                <g id="Group-110" transform="translate(159.158192, 55.649718)">
                    <mask id="mask-68"  fill="white">
                        <use xlink:href="#path-67"></use>
                    </mask>
                    <g id="Clip-109"></g>
                    <path d="M-1.38567797,-0.874813559 L9.24341808,-0.874813559 L9.24341808,10.3029887 L-1.38567797,10.3029887 L-1.38567797,-0.874813559 Z" id="Fill-108" fill="#FFFFFF" mask="url(#mask-68)"></path>
                </g>
                <g id="Group-113" transform="translate(166.949153, 55.649718)">
                    <mask id="mask-70"  fill="white">
                        <use xlink:href="#path-69"></use>
                    </mask>
                    <g id="Clip-112"></g>
                    <path d="M-0.811372881,-0.874813559 L8.8249322,-0.874813559 L8.8249322,10.3018757 L-0.811372881,10.3018757 L-0.811372881,-0.874813559 Z" id="Fill-111" fill="#FFFFFF" mask="url(#mask-70)"></path>
                </g>
                <g id="Group-116" transform="translate(175.853107, 55.649718)">
                    <mask id="mask-72"  fill="white">
                        <use xlink:href="#path-71"></use>
                    </mask>
                    <g id="Clip-115"></g>
                    <path d="M-1.51033333,-0.874813559 L8.09480791,-0.874813559 L8.09480791,10.1237966 L-1.51033333,10.1237966 L-1.51033333,-0.874813559 Z" id="Fill-114" fill="#FFFFFF" mask="url(#mask-72)"></path>
                </g>
                <g id="Group-119" transform="translate(182.531073, 54.536723)">
                    <mask id="mask-74"  fill="white">
                        <use xlink:href="#path-73"></use>
                    </mask>
                    <g id="Clip-118"></g>
                    <path d="M-0.97720904,-1.53815819 L6.79371751,-1.53815819 L6.79371751,11.4148701 L-0.97720904,11.4148701 L-0.97720904,-1.53815819 Z" id="Fill-117" fill="#FFFFFF" mask="url(#mask-74)"></path>
                </g>
                <g id="Group-122" transform="translate(188.096045, 55.649718)">
                    <mask id="mask-76"  fill="white">
                        <use xlink:href="#path-75"></use>
                    </mask>
                    <g id="Clip-121"></g>
                    <path d="M-1.61272881,-0.874813559 L8.02580226,-0.874813559 L8.02580226,10.3018757 L-1.61272881,10.3018757 L-1.61272881,-0.874813559 Z" id="Fill-120" fill="#FFFFFF" mask="url(#mask-76)"></path>
                </g>
                <g id="Group-125" transform="translate(46.745763, 71.231638)">
                    <mask id="mask-78"  fill="white">
                        <use xlink:href="#path-77"></use>
                    </mask>
                    <g id="Clip-124"></g>
                    <path d="M-1.48584746,-1.01505085 L8.12151977,-1.01505085 L8.12151977,9.98467232 L-1.48584746,9.98467232 L-1.48584746,-1.01505085 Z" id="Fill-123" fill="#FFFFFF" mask="url(#mask-78)"></path>
                </g>
                <g id="Group-128" transform="translate(54.536723, 71.231638)">
                    <mask id="mask-80"  fill="white">
                        <use xlink:href="#path-79"></use>
                    </mask>
                    <g id="Clip-127"></g>
                    <path d="M-1.75741808,-1.01505085 L7.88,-1.01505085 L7.88,10.1627514 L-1.75741808,10.1627514 L-1.75741808,-1.01505085 Z" id="Fill-126" fill="#FFFFFF" mask="url(#mask-80)"></path>
                </g>
                <g id="Group-131" transform="translate(66.779661, 69.005650)">
                    <mask id="mask-82"  fill="white">
                        <use xlink:href="#path-81"></use>
                    </mask>
                    <g id="Clip-130"></g>
                    <path d="M-1.69620339,-1.52480226 L7.91116384,-1.52480226 L7.91116384,12.022565 L-1.69620339,12.022565 L-1.69620339,-1.52480226 Z" id="Fill-129" fill="#FFFFFF" mask="url(#mask-82)"></path>
                </g>
                <path d="M74.4370621,76.1043277 L77.9908531,76.1043277 L77.9908531,75.1260056 L74.4370621,75.1260056 L74.4370621,76.1043277 Z" id="Fill-132" fill="#FFFFFF"></path>
                <path d="M82.5215192,69.3157299 L78.5381124,79.1968938 L79.9438243,79.1968938 L80.8164119,76.989826 L85.7347339,76.989826 L86.6095475,79.1968938 L88.0163723,79.1968938 L84.0463215,69.3157299 L82.5215192,69.3157299 Z M83.2772424,70.5734136 L85.3808017,75.9079955 L81.187039,75.9079955 L83.2772424,70.5734136 Z" id="Fill-133" fill="#FFFFFF"></path>
                <path d="M89.1330395,79.194 L90.2438079,79.194 L90.2438079,69.3150621 L89.1330395,69.3150621 L89.1330395,79.194 Z" id="Fill-134" fill="#FFFFFF"></path>
                <g id="Group-137" transform="translate(92.378531, 69.005650)">
                    <mask id="mask-84"  fill="white">
                        <use xlink:href="#path-83"></use>
                    </mask>
                    <g id="Clip-136"></g>
                    <path d="M-1.66170056,-1.52480226 L8.71697175,-1.52480226 L8.71697175,12.2017571 L-1.66170056,12.2017571 L-1.66170056,-1.52480226 Z" id="Fill-135" fill="#FFFFFF" mask="url(#mask-84)"></path>
                </g>
                <g id="Group-140" transform="translate(100.169492, 71.231638)">
                    <mask id="mask-86"  fill="white">
                        <use xlink:href="#path-85"></use>
                    </mask>
                    <g id="Clip-139"></g>
                    <path d="M-1.24989266,-1.01505085 L8.38641243,-1.01505085 L8.38641243,10.1627514 L-1.24989266,10.1627514 L-1.24989266,-1.01505085 Z" id="Fill-138" fill="#FFFFFF" mask="url(#mask-86)"></path>
                </g>
                <path d="M57.5432548,11.9696977 L57.5432548,20.8358107 L51.004413,11.9696977 L47.9147407,11.9696977 L47.9147407,26.0846921 L50.9175994,26.0846921 L50.9175994,16.8791158 L57.6489893,26.0846921 L60.5483395,26.0846921 L60.5483395,11.9696977 L57.5432548,11.9696977 Z" id="Fill-141" fill="#FFFFFF"></path>
                <path d="M47.107152,90.0199847 L192.97174,90.0199847" id="Stroke-142" stroke="#FFFFFF" stroke-width="0.659" stroke-linecap="square"></path>
                <g id="Group-145" transform="translate(46.745763, 99.056497)">
                    <mask id="mask-88"  fill="white">
                        <use xlink:href="#path-87"></use>
                    </mask>
                    <g id="Clip-144"></g>
                    <path d="M-0.917107345,-0.841423729 L147.747774,-0.841423729 L147.747774,15.5819209 L-0.917107345,15.5819209 L-0.917107345,-0.841423729 Z" id="Fill-143" fill="#FFFFFF" mask="url(#mask-88)"></path>
                </g>
            </g>
        </g>
    </g>
</svg>