<?xml version="1.0" encoding="UTF-8" standalone="no"?>
<svg width="285px" height="92px" viewBox="0 0 285 92" version="1.1" xmlns="http://www.w3.org/2000/svg" xmlns:xlink="http://www.w3.org/1999/xlink">
    <defs></defs>
    <g id="Page-1" stroke="none" stroke-width="1" fill="none" fill-rule="evenodd">
        <g id="sos-logo">
            <g id="sos-logo-copy">
                <path d="M16.9424512,6 C10.9089931,6 6,11.0954105 6,17.3579873 L6,76.6420127 C6,82.9045895 10.9089931,88 16.9424512,88 L74.0575488,88 C80.0910069,88 85,82.9045895 85,76.6420127 L85,17.3579873 C85,11.0954105 80.0910069,6 74.0575488,6 L16.9424512,6 L16.9424512,6 Z M74.2313113,92 L16.7679817,92 C8.6245916,92 2,85.1469742 2,76.7227776 L2,17.2779539 C2,8.85375725 8.6245916,2 16.7679817,2 L74.2313113,2 C82.3747013,2 89,8.85375725 89,17.2779539 L89,76.7227776 C89,85.1469742 82.3747013,92 74.2313113,92 L74.2313113,92 Z" id="Fill-12" fill="#FFFFFF"></path>
                <path d="M88,75.1487692 C88,82.2455702 82.2448652,88 75.1480641,88 L17.8512308,88 C10.7537248,88 5,82.2455702 5,75.1487692 L5,17.8519359 C5,10.7544298 10.7537248,5 17.8512308,5 L75.1480641,5 C82.2448652,5 88,10.7544298 88,17.8519359 L88,75.1487692" id="Fill-3" fill="#003451"></path>
                <path d="M17.5982347,6.71630825 C11.5977634,6.71630825 6.7156093,11.5984623 6.7156093,17.5989337 L6.7156093,74.4017653 C6.7156093,80.4022366 11.5977634,85.2843907 17.5982347,85.2843907 L74.4010663,85.2843907 C80.4015377,85.2843907 85.2836917,80.4022366 85.2836917,74.4017653 L85.2836917,17.5989337 C85.2836917,11.5984623 80.4015377,6.71630825 74.4010663,6.71630825 L17.5982347,6.71630825 L17.5982347,6.71630825 Z M74.4010663,89 L17.5982347,89 C9.54844687,89 3,82.4515531 3,74.4017653 L3,17.5989337 C3,9.54914582 9.54844687,3 17.5982347,3 L74.4010663,3 C82.4508542,3 89,9.54914582 89,17.5989337 L89,74.4017653 C89,82.4515531 82.4508542,89 74.4010663,89 L74.4010663,89 Z" id="Fill-4" fill="#FFFFFF"></path>
                <path d="M17,32 L32,23.4993073 L17,15 L17,32" id="Fill-5" fill="#FFFFFF"></path>
                <path d="M37,69 L52,60.4996537 L37,52 L37,69" id="Fill-6" fill="#00A3DB"></path>
                <path d="M47.0003525,35.2830335 C33.3714557,35.2830335 22.2830856,46.3705639 22.2830856,60 C22.2830856,73.6287312 33.3714557,84.7162615 47.0003525,84.7162615 C60.6292493,84.7162615 71.7169144,73.6287312 71.7169144,60 C71.7169144,46.3705639 60.6292493,35.2830335 47.0003525,35.2830335 L47.0003525,35.2830335 Z M47.0003525,89 C31.0092733,89 18,75.9901799 18,60 C18,44.0091152 31.0092733,31 47.0003525,31 C62.9907267,31 76,44.0091152 76,60 C76,75.9901799 62.9907267,89 47.0003525,89 L47.0003525,89 Z" id="Fill-7" fill="#FFFFFF"></path>
                <path d="M63,60.0003492 C63,68.8364359 55.8371342,76 47.0003492,76 C38.1642625,76 31,68.8364359 31,60.0003492 C31,51.1635641 38.1642625,44 47.0003492,44 C55.8371342,44 63,51.1635641 63,60.0003492" id="Fill-8" fill="#00A3DB"></path>
                <path d="M48.0003616,45.7801997 C39.6514454,45.7801997 32.859634,52.3833497 32.859634,60.5003516 C32.859634,68.6166503 39.6514454,75.2205034 48.0003616,75.2205034 C56.3492778,75.2205034 63.1410893,68.6166503 63.1410893,60.5003516 C63.1410893,52.3833497 56.3492778,45.7801997 48.0003616,45.7801997 M48.0003616,78 C38.0755369,78 30,70.1494867 30,60.5003516 C30,50.8505133 38.0755369,43 48.0003616,43 C57.9251863,43 66,50.8505133 66,60.5003516 C66,70.1494867 57.9251863,78 48.0003616,78" id="Fill-9" fill="#FFFFFF"></path>
                <path d="M88,75.1487692 C88,82.2455702 82.2448652,88 75.1480641,88 L17.8512308,88 C10.7537248,88 5,82.2455702 5,75.1487692 L5,17.8519359 C5,10.7544298 10.7537248,5 17.8512308,5 L75.1480641,5 C82.2448652,5 88,10.7544298 88,17.8519359 L88,75.1487692" id="Fill-11" fill="#003451"></path>
                <path d="M17.5982347,6.71630825 C11.5977634,6.71630825 6.7156093,11.5984623 6.7156093,17.5989337 L6.7156093,74.4017653 C6.7156093,80.4022366 11.5977634,85.2843907 17.5982347,85.2843907 L74.4010663,85.2843907 C80.4015377,85.2843907 85.2836917,80.4022366 85.2836917,74.4017653 L85.2836917,17.5989337 C85.2836917,11.5984623 80.4015377,6.71630825 74.4010663,6.71630825 L17.5982347,6.71630825 L17.5982347,6.71630825 Z M74.4010663,89 L17.5982347,89 C9.54844687,89 3,82.4515531 3,74.4017653 L3,17.5989337 C3,9.54914582 9.54844687,3 17.5982347,3 L74.4010663,3 C82.4508542,3 89,9.54914582 89,17.5989337 L89,74.4017653 C89,82.4515531 82.4508542,89 74.4010663,89 L74.4010663,89 Z" id="Fill-12" fill="#FFFFFF"></path>
                <path d="M18,32 L33,23.4993073 L18,15 L18,32" id="Fill-13" fill="#FFFFFF"></path>
                <path d="M37,69 L52,60.4996537 L37,52 L37,69" id="Fill-14" fill="#00A3DB"></path>
                <path d="M47,35.2830335 C33.3712688,35.2830335 22.2837385,46.3705639 22.2837385,60 C22.2837385,73.6287312 33.3712688,84.7162615 47,84.7162615 C60.6294361,84.7162615 71.7169665,73.6287312 71.7169665,60 C71.7169665,46.3705639 60.6294361,35.2830335 47,35.2830335 L47,35.2830335 Z M47,89 C31.0098201,89 18,75.9901799 18,60 C18,44.0091152 31.0098201,31 47,31 C62.9908848,31 76,44.0091152 76,60 C76,75.9901799 62.9908848,89 47,89 L47,89 Z" id="Fill-15" fill="#FFFFFF"></path>
                <path d="M62,60.0003492 C62,68.8364359 54.8368215,76 45.9996508,76 C37.1631785,76 30,68.8364359 30,60.0003492 C30,51.1635641 37.1631785,44 45.9996508,44 C54.8368215,44 62,51.1635641 62,60.0003492" id="Fill-16" fill="#00A9DC"></path>
                <path d="M61.4173714,64.9873781 L54.9271431,61 L37,71.6475904 C42.7216393,77.4508032 51.9991515,77.4508032 57.7214979,71.6475904 C60.4677716,68.8614458 61.8911107,65.2441193 62,61.5938038 C61.9363634,62.7204532 61.7482818,63.85786 61.4173714,64.9873781" id="Fill-18" fill="#008EBE"></path>
                <path d="M61.975797,61 C62.0803612,59.2507726 62.1846556,57.1901605 61.5423584,55.4622803 C59.8258121,50.8445014 55.3253612,46.9847203 50.4645002,45.5915923 C45.5875315,44.1963685 40.5555353,45.3450137 36.9002978,48.2375173 C36.5895315,48.482726 36.2894322,48.7416335 36,49.0115 L54.9499512,61 L61.9757977,57.423584 C62.0853126,57.7968765 61.6422744,57.4752963 61.7183659,57.8547534 C61.9267286,58.8924382 62.0092204,59.9472465 61.975797,61 Z" id="Fill-19" fill="#008EBE"></path>
                <path d="M61.002,64 L61,63.9993176 C61.513,62.7627389 61.788,61.4585987 61.788,60.1121474 C61.788,59.3949045 61.71,58.689263 61.559,58 C61.747,58.7704732 61.837,59.5491356 61.836,60.327798 C61.836,60.4758872 61.832,60.6232939 61.826,60.7707006 C61.736,61.8428116 61.47,62.9251592 61.002,64" id="Fill-23" fill="#63AEC6"></path>
                <path d="M62.3409977,65 L55,61 L62.3393982,64.9992806 L62.3409977,65 C62.7152854,63.8669065 62.9280216,62.7258993 63,61.5956835 C62.9280216,62.7258993 62.7152854,63.8669065 62.3409977,65" id="Fill-24" fill="#0083AF"></path>
                <path d="M62.7026921,58.2034624 C62.6172043,57.7996355 62.5125415,56.9916269 62.389503,56.5943604 L54.9025879,60.9870605 L62.389503,65.6586914 C62.7634123,64.5106276 62.9200069,62.6965831 62.9919126,61.5507062 C63.0294633,60.4303417 62.9367849,59.3077904 62.7026921,58.2034624 Z" id="Fill-25" fill="#007298"></path>
                <path d="M15.2232938,3 C8.48367138,3 3,8.48297671 3,15.2232938 L3,76.7767062 C3,83.5163286 8.48367138,89 15.2232938,89 L76.7767062,89 C83.5163286,89 89,83.5163286 89,76.7767062 L89,15.2232938 C89,8.48297671 83.5163286,3 76.7767062,3 L15.2232938,3 L15.2232938,3 Z M76.6663206,92 L15.3336794,92 C6.87880224,92 0,85.1218382 0,76.6668974 L0,15.3337948 C0,6.878854 6.87880224,0 15.3336794,0 L76.6663206,0 C85.1211978,0 92,6.878854 92,15.3337948 L92,76.6668974 C92,85.1218382 85.1211978,92 76.6663206,92 L76.6663206,92 Z" id="Fill-26" fill="#2D3030"></path>
                <path d="M46.9996384,45.7801997 C38.65111,45.7801997 31.8590256,52.3833497 31.8590256,60.5003516 C31.8590256,68.6166503 38.65111,75.2205034 46.9996384,75.2205034 C55.3481668,75.2205034 62.1409744,68.6166503 62.1409744,60.5003516 C62.1409744,52.3833497 55.3481668,45.7801997 46.9996384,45.7801997 M46.9996384,78 C37.0744149,78 29,70.1494867 29,60.5003516 C29,50.8505133 37.0744149,43 46.9996384,43 C56.9248619,43 65,50.8505133 65,60.5003516 C65,70.1494867 56.9248619,78 46.9996384,78" id="Fill-17" fill="#FFFFFF"></path>
                <g id="Group" transform="translate(106.000000, 19.000000)">
                    <path d="M0.197109648,19.2149416 L2.36820383,16.2207522 C3.84905324,17.8330081 6.25046968,19.2806448 9.31036232,19.2806448 C12.4691708,19.2806448 13.6872073,17.7340922 13.6872073,16.2532428 C13.6872073,11.6475196 0.921289051,14.5095805 0.921289051,6.44902336 C0.921289051,2.79707977 4.0793755,0 8.91542101,0 C12.3052737,0 15.1016315,1.11912071 17.1073846,3.09310525 L14.9362904,5.95588823 C13.1933502,4.21150395 10.8569149,3.42306535 8.55369231,3.42306535 C6.31689491,3.42306535 4.86925812,4.54074204 4.86925812,6.15299788 C4.86925812,10.265586 17.6344544,7.7320411 17.6344544,15.8922361 C17.6344544,19.5434577 15.0359283,22.7022662 9.14646528,22.7022662 C5.09958038,22.7022662 2.17109418,21.2546294 0.197109648,19.2149416" id="Fill-27" fill="#0087B4"></path>
                    <path d="M20.2019339,11.3507721 C20.2019339,4.57395465 25.2358111,0 31.717325,0 C36.1259386,0 38.8890838,2.27073203 40.5020616,4.90319275 L37.2450593,6.61364241 C36.1916418,4.7710643 34.0537603,3.42306535 31.717325,3.42306535 C27.3744146,3.42306535 24.150625,6.71255824 24.150625,11.3507721 C24.150625,15.9240047 27.3744146,19.2806448 31.717325,19.2806448 C34.0537603,19.2806448 36.1916418,17.8987113 37.2450593,16.0893458 L40.5352742,17.7340922 C38.8573152,20.3665529 36.1259386,22.7022662 31.717325,22.7022662 C25.2358111,22.7022662 20.2019339,18.0958209 20.2019339,11.3507721" id="Fill-28" fill="#0087B4"></path>
                    <path d="M61.1321494,11.3507721 C61.1321494,6.81147407 58.2700885,3.42306535 53.8614749,3.42306535 C49.4189266,3.42306535 46.5893563,6.81147407 46.5893563,11.3507721 C46.5893563,15.8590235 49.4189266,19.2806448 53.8614749,19.2806448 C58.2700885,19.2806448 61.1321494,15.8590235 61.1321494,11.3507721 L61.1321494,11.3507721 Z M42.6413872,11.3507721 C42.6413872,4.8035549 47.2810451,0 53.8614749,0 C60.408692,0 65.0801185,4.8035549 65.0801185,11.3507721 C65.0801185,17.8987113 60.408692,22.7022662 53.8614749,22.7022662 C47.2810451,22.7022662 42.6413872,17.8987113 42.6413872,11.3507721 L42.6413872,11.3507721 Z" id="Fill-29" fill="#0087B4"></path>
                    <path d="M73.1753323,22.3073249 L73.1753323,3.75085942 L66.5291993,3.75085942 L66.5291993,0.362450708 L83.6712406,0.362450708 L83.6712406,3.75085942 L77.0243856,3.75085942 L77.0243856,22.3073249 L73.1753323,22.3073249" id="Fill-30" fill="#0087B4"></path>
                    <path d="M86.66543,22.3073249 L86.66543,0.362450708 L90.5152053,0.362450708 L90.5152053,18.9181941 L100.188018,18.9181941 L100.188018,22.3073249 L86.66543,22.3073249" id="Fill-31" fill="#0087B4"></path>
                    <path d="M112.329395,4.21150395 L108.380704,14.6749216 L116.278086,14.6749216 L112.329395,4.21150395 L112.329395,4.21150395 Z M118.975528,22.3073249 L117.363272,18.0633303 L107.294796,18.0633303 L105.683262,22.3073249 L101.307139,22.3073249 L109.927979,0.362450708 L114.730089,0.362450708 L123.350929,22.3073249 L118.975528,22.3073249 L118.975528,22.3073249 Z" id="Fill-32" fill="#0087B4"></path>
                    <path d="M141.019318,22.3073249 L129.570352,6.61364241 L129.570352,22.3073249 L125.720577,22.3073249 L125.720577,0.362450708 L129.668546,0.362450708 L140.887912,15.562998 L140.887912,0.362450708 L144.737687,0.362450708 L144.737687,22.3073249 L141.019318,22.3073249" id="Fill-33" fill="#0087B4"></path>
                    <path d="M165.10424,11.3182815 C165.10424,7.10749955 162.472501,3.75085942 157.602521,3.75085942 L153.259611,3.75085942 L153.259611,18.9181941 L157.57003,18.9181941 C162.340373,18.9181941 165.10424,15.4972948 165.10424,11.3182815 L165.10424,11.3182815 Z M149.409835,22.3073249 L149.409835,0.362450708 L157.57003,0.362450708 C164.445764,0.362450708 169.052209,4.90319275 169.052209,11.3182815 C169.052209,17.8005175 164.445764,22.3073249 157.602521,22.3073249 L149.409835,22.3073249 L149.409835,22.3073249 Z" id="Fill-34" fill="#0087B4"></path>
                    <path d="M18.4907622,44.2543651 C18.4907622,39.714345 15.6272572,36.3252143 11.2193656,36.3252143 C6.77753944,36.3252143 3.94724706,39.714345 3.94724706,44.2543651 C3.94724706,48.7611725 6.77753944,52.1835158 11.2193656,52.1835158 C15.6272572,52.1835158 18.4907622,48.7611725 18.4907622,44.2543651 L18.4907622,44.2543651 Z M0,44.2543651 C0,37.7064259 4.63821384,32.902871 11.2193656,32.902871 C17.7665828,32.902871 22.4387313,37.7064259 22.4387313,44.2543651 C22.4387313,50.8015822 17.7665828,55.6044151 11.2193656,55.6044151 C4.63821384,55.6044151 0,50.8015822 0,44.2543651 L0,44.2543651 Z" id="Fill-35" fill="#003451"></path>
                    <path d="M41.4240727,55.2101958 L29.9736628,39.5165134 L29.9736628,55.2101958 L26.1246095,55.2101958 L26.1246095,33.2653217 L30.0733006,33.2653217 L41.2919442,48.465147 L41.2919442,33.2653217 L45.1417195,33.2653217 L45.1417195,55.2101958 L41.4240727,55.2101958" id="Fill-36" fill="#003451"></path>
                    <path d="M56.8881549,52.1178126 L59.0592491,49.1236232 C60.5400985,50.735879 62.9422369,52.1835158 66.0014076,52.1835158 C69.160216,52.1835158 70.3775305,50.6376852 70.3775305,49.1561138 C70.3775305,44.5496685 57.6116123,47.4131735 57.6116123,39.3518943 C57.6116123,35.6999507 60.7711428,32.902871 65.6071883,32.902871 C68.995597,32.902871 71.7919547,34.0219917 73.7998739,35.9959762 L71.6280577,38.8587592 C69.8843954,37.1143749 67.5479602,36.3252143 65.2447376,36.3252143 C63.0079402,36.3252143 61.5595813,37.443613 61.5595813,39.0558688 C61.5595813,43.168457 74.3262216,40.6349121 74.3262216,48.7951071 C74.3262216,52.4463287 71.7262515,55.6044151 65.8375105,55.6044151 C61.7899036,55.6044151 58.8621394,54.1575003 56.8881549,52.1178126" id="Fill-37" fill="#003451"></path>
                    <path d="M76.8922571,44.2543651 C76.8922571,37.4768256 81.9261343,32.902871 88.4076483,32.902871 C92.8169839,32.902871 95.580851,35.174325 97.1923848,37.8060637 L93.9361046,39.5165134 C92.8834091,37.6746573 90.7448055,36.3252143 88.4076483,36.3252143 C84.0654599,36.3252143 80.8409482,39.6147072 80.8409482,44.2543651 C80.8409482,48.8268757 84.0654599,52.1835158 88.4076483,52.1835158 C90.7448055,52.1835158 92.8834091,50.8015822 93.9361046,48.9922167 L97.2255975,50.6376852 C95.5476384,53.2694239 92.8169839,55.6044151 88.4076483,55.6044151 C81.9261343,55.6044151 76.8922571,50.9994139 76.8922571,44.2543651" id="Fill-38" fill="#003451"></path>
                    <path d="M113.184259,40.1085643 C113.184259,38.0031734 111.605216,36.6537304 109.433399,36.6537304 L104.135987,36.6537304 L104.135987,43.6291015 L109.433399,43.6291015 C111.605216,43.6291015 113.184259,42.2471679 113.184259,40.1085643 L113.184259,40.1085643 Z M112.821808,55.2101958 L107.985763,47.0182322 L104.135987,47.0182322 L104.135987,55.2101958 L100.286934,55.2101958 L100.286934,33.2653217 L109.926535,33.2653217 C114.269445,33.2653217 117.132228,36.0616794 117.132228,40.1417769 C117.132228,44.0233208 114.56547,46.1626464 111.900519,46.5900783 L117.296125,55.2101958 L112.821808,55.2101958 L112.821808,55.2101958 Z" id="Fill-39" fill="#003451"></path>
                    <path d="M120.982725,55.2101958 L120.982725,33.2653217 L136.018653,33.2653217 L136.018653,36.6537304 L124.8325,36.6537304 L124.8325,42.3135931 L135.788331,42.3135931 L135.788331,45.7020019 L124.8325,45.7020019 L124.8325,51.8210651 L136.018653,51.8210651 L136.018653,55.2101958 L120.982725,55.2101958" id="Fill-40" fill="#003451"></path>
                    <path d="M139.968067,55.2101958 L139.968067,33.2653217 L155.003995,33.2653217 L155.003995,36.6537304 L143.81712,36.6537304 L143.81712,42.3135931 L154.772951,42.3135931 L154.772951,45.7020019 L143.81712,45.7020019 L143.81712,51.8210651 L155.003995,51.8210651 L155.003995,55.2101958 L139.968067,55.2101958" id="Fill-41" fill="#003451"></path>
                    <path d="M174.251427,55.2101958 L162.802461,39.5165134 L162.802461,55.2101958 L158.952686,55.2101958 L158.952686,33.2653217 L162.901377,33.2653217 L174.120021,48.465147 L174.120021,33.2653217 L177.969796,33.2653217 L177.969796,55.2101958 L174.251427,55.2101958" id="Fill-42" fill="#003451"></path>
                </g>
            </g>
        </g>
    </g>
</svg>