<?xml version="1.0" encoding="UTF-8" standalone="no"?>
<svg width="197px" height="111px" viewBox="0 0 197 111" version="1.1" xmlns="http://www.w3.org/2000/svg" xmlns:xlink="http://www.w3.org/1999/xlink">
    <defs>
        <path id="path-1" d="M0.144146341,0.365170732 L196.841439,0.365170732 L196.841439,110.512195 L0.144146341,110.512195"></path>
    </defs>
    <g id="Page-1" stroke="none" stroke-width="1" fill="none" fill-rule="evenodd">
        <g id="3-1366x768" transform="translate(-409.000000, -511.000000)">
            <g id="footer-partner-nls" transform="translate(409.000000, 511.000000)">
                <path d="M56.2098659,26.3139146 L49.5551098,17.2086707 L49.5551098,26.3139146 L46.5832927,26.3139146 L46.5832927,12.3533415 L49.6391951,12.3533415 L56.106561,21.1222439 L56.106561,12.3533415 L59.078378,12.3533415 L59.078378,26.3139146 L56.2098659,26.3139146" id="Fill-1" fill="#FFFFFF"></path>
                <path d="M68.5199634,23.049 L68.5199634,19.4885854 C68.0803171,18.8207073 67.116939,18.3185976 66.2376463,18.3185976 C64.7096951,18.3185976 63.6646341,19.5102073 63.6646341,21.2495732 C63.6646341,23.0057561 64.7096951,24.1997683 66.2376463,24.1997683 C67.116939,24.1997683 68.0803171,23.7192805 68.5199634,23.049 L68.5199634,23.049 Z M68.5199634,26.3139146 L68.5199634,25.0165976 C67.7247561,26.0208171 66.6364512,26.5661707 65.4015976,26.5661707 C62.8670244,26.5661707 60.9210488,24.6394146 60.9210488,21.2495732 C60.9210488,17.9630366 62.8261829,15.9545976 65.4015976,15.9545976 C66.5956098,15.9545976 67.7031341,16.4567073 68.5199634,17.5017683 L68.5199634,16.2044512 L71.1986829,16.2044512 L71.1986829,26.3139146 L68.5199634,26.3139146 L68.5199634,26.3139146 Z" id="Fill-2" fill="#FFFFFF"></path>
                <path d="M74.1705,23.7793415 L74.1705,18.5276098 L72.4984024,18.5276098 L72.4984024,16.2044512 L74.1705,16.2044512 L74.1705,13.4416463 L76.83,13.4416463 L76.83,16.2044512 L78.8816829,16.2044512 L78.8816829,18.5276098 L76.83,18.5276098 L76.83,23.070622 C76.83,23.7192805 77.163939,24.1997683 77.7501341,24.1997683 C78.148939,24.1997683 78.526122,24.0532195 78.6726707,23.8850488 L79.2372439,25.9151098 C78.838439,26.2730732 78.1273171,26.5661707 77.0173902,26.5661707 C75.1555,26.5661707 74.1705,25.6027927 74.1705,23.7793415" id="Fill-3" fill="#FFFFFF"></path>
                <path d="M80.4937195,16.2044512 L83.1508171,16.2044512 L83.1508171,26.3139146 L80.4937195,26.3139146 L80.4937195,16.2044512 Z M80.2414634,13.5257317 C80.2414634,12.646439 80.9549878,11.956939 81.8126585,11.956939 C82.6919512,11.956939 83.4030732,12.646439 83.4030732,13.5257317 C83.4030732,14.402622 82.6919512,15.1161463 81.8126585,15.1161463 C80.9549878,15.1161463 80.2414634,14.402622 80.2414634,13.5257317 L80.2414634,13.5257317 Z" id="Fill-4" fill="#FFFFFF"></path>
                <path d="M92.863878,21.2495732 C92.863878,19.678378 91.9437439,18.3185976 90.2692439,18.3185976 C88.6163659,18.3185976 87.6938293,19.678378 87.6938293,21.2495732 C87.6938293,22.8399878 88.6163659,24.1997683 90.2692439,24.1997683 C91.9437439,24.1997683 92.863878,22.8399878 92.863878,21.2495732 L92.863878,21.2495732 Z M84.9310244,21.2495732 C84.9310244,18.381061 86.9394634,15.9545976 90.2692439,15.9545976 C93.6182439,15.9545976 95.6266829,18.381061 95.6266829,21.2495732 C95.6266829,24.1156829 93.6182439,26.5661707 90.2692439,26.5661707 C86.9394634,26.5661707 84.9310244,24.1156829 84.9310244,21.2495732 L84.9310244,21.2495732 Z" id="Fill-5" fill="#FFFFFF"></path>
                <path d="M104.23222,26.3139146 L104.23222,20.2021098 C104.23222,18.7990854 103.499476,18.3185976 102.367927,18.3185976 C101.322866,18.3185976 100.527659,18.9047927 100.06639,19.4885854 L100.06639,26.3139146 L97.4068902,26.3139146 L97.4068902,16.2044512 L100.06639,16.2044512 L100.06639,17.5017683 C100.715049,16.7498049 101.971524,15.9545976 103.60278,15.9545976 C105.844256,15.9545976 106.910939,17.2086707 106.910939,19.1762683 L106.910939,26.3139146 L104.23222,26.3139146" id="Fill-6" fill="#FFFFFF"></path>
                <path d="M116.266037,23.049 L116.266037,19.4885854 C115.828793,18.8207073 114.865415,18.3185976 113.986122,18.3185976 C112.458171,18.3185976 111.410707,19.5102073 111.410707,21.2495732 C111.410707,23.0057561 112.458171,24.1997683 113.986122,24.1997683 C114.865415,24.1997683 115.828793,23.7192805 116.266037,23.049 L116.266037,23.049 Z M116.266037,26.3139146 L116.266037,25.0165976 C115.470829,26.0208171 114.382524,26.5661707 113.150073,26.5661707 C110.6155,26.5661707 108.669524,24.6394146 108.669524,21.2495732 C108.669524,17.9630366 110.574659,15.9545976 113.150073,15.9545976 C114.341683,15.9545976 115.45161,16.4567073 116.266037,17.5017683 L116.266037,16.2044512 L118.947159,16.2044512 L118.947159,26.3139146 L116.266037,26.3139146 L116.266037,26.3139146 Z" id="Fill-7" fill="#FFFFFF"></path>
                <path d="M121.376024,23.7793415 L121.376024,12.3533415 L124.033122,12.3533415 L124.033122,23.070622 C124.033122,23.7192805 124.369463,24.1997683 124.955659,24.1997683 C125.352061,24.1997683 125.729244,24.0532195 125.875793,23.8850488 L126.440366,25.9151098 C126.043963,26.2730732 125.31122,26.5661707 124.222915,26.5661707 C122.358622,26.5661707 121.376024,25.6027927 121.376024,23.7793415" id="Fill-8" fill="#FFFFFF"></path>
                <path d="M132.513732,26.3139146 L132.513732,12.3533415 L135.504768,12.3533415 L135.504768,23.6976585 L141.407561,23.6976585 L141.407561,26.3139146 L132.513732,26.3139146" id="Fill-9" fill="#FFFFFF"></path>
                <path d="M143.146927,16.2044512 L145.804024,16.2044512 L145.804024,26.3139146 L143.146927,26.3139146 L143.146927,16.2044512 Z M142.894671,13.5257317 C142.894671,12.646439 143.608195,11.956939 144.465866,11.956939 C145.345159,11.956939 146.05628,12.646439 146.05628,13.5257317 C146.05628,14.402622 145.345159,15.1161463 144.465866,15.1161463 C143.608195,15.1161463 142.894671,14.402622 142.894671,13.5257317 L142.894671,13.5257317 Z" id="Fill-10" fill="#FFFFFF"></path>
                <path d="M153.193927,24.1997683 C154.721878,24.1997683 155.74772,23.0057561 155.74772,21.2495732 C155.74772,19.5102073 154.721878,18.3185976 153.193927,18.3185976 C152.314634,18.3185976 151.351256,18.8207073 150.889988,19.4885854 L150.889988,23.070622 C151.351256,23.7192805 152.314634,24.1997683 153.193927,24.1997683 L153.193927,24.1997683 Z M148.23289,26.3139146 L148.23289,12.3533415 L150.889988,12.3533415 L150.889988,17.5017683 C151.687598,16.4567073 152.816744,15.9545976 154.010756,15.9545976 C156.586171,15.9545976 158.491305,17.9630366 158.491305,21.2495732 C158.491305,24.6394146 156.564549,26.5661707 154.010756,26.5661707 C152.795122,26.5661707 151.687598,26.0208171 150.889988,25.0165976 L150.889988,26.3139146 L148.23289,26.3139146 L148.23289,26.3139146 Z" id="Fill-11" fill="#FFFFFF"></path>
                <path d="M160.290732,26.3139146 L160.290732,16.2044512 L162.950232,16.2044512 L162.950232,17.5642317 C163.682976,16.684939 164.917829,15.9545976 166.171902,15.9545976 L166.171902,18.5492317 C165.984512,18.5059878 165.753878,18.4843659 165.441561,18.4843659 C164.559866,18.4843659 163.389878,18.9864756 162.950232,19.6375366 L162.950232,26.3139146 L160.290732,26.3139146" id="Fill-12" fill="#FFFFFF"></path>
                <path d="M174.566024,23.049 L174.566024,19.4885854 C174.126378,18.8207073 173.163,18.3185976 172.283707,18.3185976 C170.755756,18.3185976 169.710695,19.5102073 169.710695,21.2495732 C169.710695,23.0057561 170.755756,24.1997683 172.283707,24.1997683 C173.163,24.1997683 174.126378,23.7192805 174.566024,23.049 L174.566024,23.049 Z M174.566024,26.3139146 L174.566024,25.0165976 C173.770817,26.0208171 172.682512,26.5661707 171.447659,26.5661707 C168.913085,26.5661707 166.96711,24.6394146 166.96711,21.2495732 C166.96711,17.9630366 168.872244,15.9545976 171.447659,15.9545976 C172.641671,15.9545976 173.749195,16.4567073 174.566024,17.5017683 L174.566024,16.2044512 L177.244744,16.2044512 L177.244744,26.3139146 L174.566024,26.3139146 L174.566024,26.3139146 Z" id="Fill-13" fill="#FFFFFF"></path>
                <path d="M179.67361,26.3139146 L179.67361,16.2044512 L182.33311,16.2044512 L182.33311,17.5642317 C183.065854,16.684939 184.300707,15.9545976 185.557183,15.9545976 L185.557183,18.5492317 C185.369793,18.5059878 185.136756,18.4843659 184.824439,18.4843659 C183.945146,18.4843659 182.772756,18.9864756 182.33311,19.6375366 L182.33311,26.3139146 L179.67361,26.3139146" id="Fill-14" fill="#FFFFFF"></path>
                <path d="M186.87372,28.9085488 L188.067732,27.0034146 C188.800476,27.8827073 190.035329,28.2406707 191.104415,28.2406707 C192.819756,28.2406707 193.823976,27.0682805 193.823976,25.6436341 L193.823976,24.5961707 C193.134476,25.352939 191.918841,26.1265244 190.265963,26.1265244 C188.04611,26.1265244 187.001049,24.9108902 187.001049,22.9456951 L187.001049,16.2044512 L189.658146,16.2044512 L189.658146,21.8958293 C189.658146,23.2988537 190.39089,23.7625244 191.522439,23.7625244 C192.54828,23.7625244 193.36511,23.1955488 193.823976,22.6093537 L193.823976,16.2044512 L196.483476,16.2044512 L196.483476,25.6436341 C196.483476,28.6803171 194.326085,30.4172805 191.104415,30.4172805 C189.408293,30.4172805 188.04611,29.9343902 186.87372,28.9085488" id="Fill-15" fill="#FFFFFF"></path>
                <path d="M53.802622,40.7934146 C53.802622,39.2222195 52.8824878,37.862439 51.2079878,37.862439 C49.5551098,37.862439 48.6325732,39.2222195 48.6325732,40.7934146 C48.6325732,42.3838293 49.5551098,43.7436098 51.2079878,43.7436098 C52.8824878,43.7436098 53.802622,42.3838293 53.802622,40.7934146 L53.802622,40.7934146 Z M45.8697683,40.7934146 C45.8697683,37.9249024 47.8806098,35.4960366 51.2079878,35.4960366 C54.5569878,35.4960366 56.5654268,37.9249024 56.5654268,40.7934146 C56.5654268,43.6595244 54.5569878,46.1076098 51.2079878,46.1076098 C47.8806098,46.1076098 45.8697683,43.6595244 45.8697683,40.7934146 L45.8697683,40.7934146 Z" id="Fill-16" fill="#FFFFFF"></path>
                <path d="M59.0591585,45.8577561 L59.0591585,38.0714512 L57.3846585,38.0714512 L57.3846585,35.7482927 L59.0591585,35.7482927 L59.0591585,35.3278659 C59.0591585,32.9638659 60.5030244,31.6857683 62.449,31.6857683 C63.2249878,31.6857683 63.8952683,31.853939 64.3757561,32.1037927 L63.8304024,34.0737927 C63.6213902,33.9272439 63.3282927,33.8647805 62.9727317,33.8647805 C62.2183659,33.8647805 61.7162561,34.3452683 61.7162561,35.3278659 L61.7162561,35.7482927 L63.767939,35.7482927 L63.767939,38.0714512 L61.7162561,38.0714512 L61.7162561,45.8577561 L59.0591585,45.8577561" id="Fill-17" fill="#FFFFFF"></path>
                <path d="M69.5650244,43.8877561 L71.1986829,41.567 C72.1812805,42.5928415 73.7116341,43.4721341 75.6359878,43.4721341 C77.2888659,43.4721341 78.0624512,42.7393902 78.0624512,41.922561 C78.0624512,39.4936951 70.0262927,41.1898171 70.0262927,35.9356829 C70.0262927,33.6125244 72.0347317,31.6857683 75.3212683,31.6857683 C77.541122,31.6857683 79.3837927,32.3560488 80.7651951,33.6341463 L79.1123171,35.8515976 C77.9807683,34.8041341 76.4720366,34.3236463 75.0497927,34.3236463 C73.7933171,34.3236463 73.0821951,34.869 73.0821951,35.7050488 C73.0821951,37.9032805 81.0991341,36.4161707 81.0991341,41.6294634 C81.0991341,44.1832561 79.2588659,46.1076098 75.511061,46.1076098 C72.8107195,46.1076098 70.8839634,45.2066951 69.5650244,43.8877561" id="Fill-18" fill="#FFFFFF"></path>
                <path d="M82.2715244,40.7934146 C82.2715244,37.6918659 84.5322195,35.4960366 87.6313659,35.4960366 C89.7046707,35.4960366 90.9587439,36.3945488 91.6290244,37.3170854 L89.892061,38.9507439 C89.4115732,38.2372195 88.6788293,37.862439 87.7562927,37.862439 C86.1442561,37.862439 85.0151098,39.0324268 85.0151098,40.7934146 C85.0151098,42.5495976 86.1442561,43.7436098 87.7562927,43.7436098 C88.6788293,43.7436098 89.4115732,43.3231829 89.892061,42.6336829 L91.6290244,44.2673415 C90.9587439,45.1874756 89.7046707,46.1076098 87.6313659,46.1076098 C84.5322195,46.1076098 82.2715244,43.909378 82.2715244,40.7934146" id="Fill-19" fill="#FFFFFF"></path>
                <path d="M100.546878,40.7934146 C100.546878,39.2222195 99.6267439,37.862439 97.9498415,37.862439 C96.2969634,37.862439 95.3768293,39.2222195 95.3768293,40.7934146 C95.3768293,42.3838293 96.2969634,43.7436098 97.9498415,43.7436098 C99.6267439,43.7436098 100.546878,42.3838293 100.546878,40.7934146 L100.546878,40.7934146 Z M92.6140244,40.7934146 C92.6140244,37.9249024 94.6224634,35.4960366 97.9498415,35.4960366 C101.298841,35.4960366 103.309683,37.9249024 103.309683,40.7934146 C103.309683,43.6595244 101.298841,46.1076098 97.9498415,46.1076098 C94.6224634,46.1076098 92.6140244,43.6595244 92.6140244,40.7934146 L92.6140244,40.7934146 Z" id="Fill-20" fill="#FFFFFF"></path>
                <path d="M105.738549,43.3231829 L105.738549,38.0714512 L104.064049,38.0714512 L104.064049,35.7482927 L105.738549,35.7482927 L105.738549,32.9830854 L108.398049,32.9830854 L108.398049,35.7482927 L110.449732,35.7482927 L110.449732,38.0714512 L108.398049,38.0714512 L108.398049,42.612061 C108.398049,43.263122 108.731988,43.7436098 109.318183,43.7436098 C109.714585,43.7436098 110.094171,43.5946585 110.24072,43.4288902 L110.80289,45.4589512 C110.406488,45.8145122 109.695366,46.1076098 108.585439,46.1076098 C106.723549,46.1076098 105.738549,45.1466341 105.738549,43.3231829" id="Fill-21" fill="#FFFFFF"></path>
                <path d="M112.162671,43.3231829 L112.162671,31.8947805 L114.822171,31.8947805 L114.822171,42.612061 C114.822171,43.263122 115.15611,43.7436098 115.742305,43.7436098 C116.14111,43.7436098 116.518293,43.5946585 116.664841,43.4288902 L117.229415,45.4589512 C116.83061,45.8145122 116.100268,46.1076098 115.009561,46.1076098 C113.147671,46.1076098 112.162671,45.1466341 112.162671,43.3231829" id="Fill-22" fill="#FFFFFF"></path>
                <path d="M125.246354,42.5928415 L125.246354,39.0324268 C124.806707,38.3645488 123.843329,37.862439 122.964037,37.862439 C121.436085,37.862439 120.391024,39.0540488 120.391024,40.7934146 C120.391024,42.5495976 121.436085,43.7436098 122.964037,43.7436098 C123.843329,43.7436098 124.806707,43.263122 125.246354,42.5928415 L125.246354,42.5928415 Z M125.246354,45.8577561 L125.246354,44.560439 C124.451146,45.5646585 123.362841,46.1076098 122.127988,46.1076098 C119.593415,46.1076098 117.647439,44.1832561 117.647439,40.7934146 C117.647439,37.5044756 119.552573,35.4960366 122.127988,35.4960366 C123.319598,35.4960366 124.429524,35.9981463 125.246354,37.0456098 L125.246354,35.7482927 L127.925073,35.7482927 L127.925073,45.8577561 L125.246354,45.8577561 L125.246354,45.8577561 Z" id="Fill-23" fill="#FFFFFF"></path>
                <path d="M137.282573,45.8577561 L137.282573,39.7459512 C137.282573,38.3429268 136.549829,37.862439 135.420683,37.862439 C134.37322,37.862439 133.578012,38.4486341 133.116744,39.0324268 L133.116744,45.8577561 L130.459646,45.8577561 L130.459646,35.7482927 L133.116744,35.7482927 L133.116744,37.0456098 C133.765402,36.2912439 135.021878,35.4960366 136.655537,35.4960366 C138.89461,35.4960366 139.961293,36.7525122 139.961293,38.7201098 L139.961293,45.8577561 L137.282573,45.8577561" id="Fill-24" fill="#FFFFFF"></path>
                <path d="M149.4245,42.5928415 L149.4245,39.0132073 C148.984854,38.3429268 148.021476,37.862439 147.142183,37.862439 C145.614232,37.862439 144.569171,39.0540488 144.569171,40.7934146 C144.569171,42.5495976 145.614232,43.7436098 147.142183,43.7436098 C148.021476,43.7436098 148.984854,43.263122 149.4245,42.5928415 L149.4245,42.5928415 Z M149.4245,45.8577561 L149.4245,44.560439 C148.629293,45.5646585 147.538585,46.1076098 146.306134,46.1076098 C143.771561,46.1076098 141.825585,44.1832561 141.825585,40.7934146 C141.825585,37.5044756 143.73072,35.4960366 146.306134,35.4960366 C147.497744,35.4960366 148.629293,35.9981463 149.4245,37.0456098 L149.4245,31.8947805 L152.10322,31.8947805 L152.10322,45.8577561 L149.4245,45.8577561 L149.4245,45.8577561 Z" id="Fill-25" fill="#FFFFFF"></path>
                <path d="M46.1820854,63.0832439 L46.1820854,53.3029146 L47.400122,53.3029146 L47.400122,61.9997439 L51.9455366,61.9997439 L51.9455366,63.0832439 L46.1820854,63.0832439" id="Fill-26" fill="#FFFFFF"></path>
                <path d="M56.2867439,56.7335976 C54.7756098,56.7335976 54.0284512,58.0092927 53.9683902,59.0807805 L58.6171098,59.0807805 C58.6026951,58.038122 57.8987805,56.7335976 56.2867439,56.7335976 L56.2867439,56.7335976 Z M52.8104146,59.5348415 C52.8104146,57.4807561 54.2783049,55.8230732 56.2987561,55.8230732 C58.4417317,55.8230732 59.7006098,57.4975732 59.7006098,59.6213293 L59.7006098,59.9024146 L53.9852073,59.9024146 C54.0716951,61.2333659 54.9942317,62.3505 56.5197805,62.3505 C57.3414146,62.3505 58.1486341,62.0261707 58.7204146,61.4399756 L59.2489512,62.1583049 C58.5282195,62.8622195 57.5768537,63.258622 56.4332927,63.258622 C54.3215488,63.258622 52.8104146,61.7474878 52.8104146,59.5348415 L52.8104146,59.5348415 Z" id="Fill-27" fill="#FFFFFF"></path>
                <path d="M66.6028171,61.146878 L66.6028171,57.9492317 C66.2208293,57.3342073 65.3559512,56.8080732 64.4910732,56.8080732 C63.0544146,56.8080732 62.2015488,57.9804634 62.2015488,59.5492561 C62.2015488,61.1156463 63.0544146,62.2760244 64.4910732,62.2760244 C65.3559512,62.2760244 66.2208293,61.7643049 66.6028171,61.146878 L66.6028171,61.146878 Z M66.6028171,63.0832439 L66.6028171,62.0261707 C66.0742805,62.7445 65.2094024,63.258622 64.2123902,63.258622 C62.3649146,63.258622 61.0603902,61.8507927 61.0603902,59.5492561 C61.0603902,57.2765488 62.3649146,55.8230732 64.2123902,55.8230732 C65.1661585,55.8230732 66.0310366,56.2939512 66.6028171,57.0723415 L66.6028171,56.0008537 L67.7031341,56.0008537 L67.7031341,63.0832439 L66.6028171,63.0832439 L66.6028171,63.0832439 Z" id="Fill-28" fill="#FFFFFF"></path>
                <path d="M73.1206341,62.2760244 C74.542878,62.2760244 75.3933415,61.1156463 75.3933415,59.5492561 C75.3933415,57.9804634 74.542878,56.8080732 73.1206341,56.8080732 C72.2413415,56.8080732 71.3764634,57.3342073 70.9944756,57.9492317 L70.9944756,61.1612927 C71.3764634,61.7787195 72.2413415,62.2760244 73.1206341,62.2760244 L73.1206341,62.2760244 Z M69.896561,63.0832439 L69.896561,53.3029146 L70.9944756,53.3029146 L70.9944756,57.0723415 C71.5662561,56.2939512 72.4311341,55.8230732 73.3849024,55.8230732 C75.2467927,55.8230732 76.5369024,57.2765488 76.5369024,59.5492561 C76.5369024,61.8507927 75.232378,63.258622 73.3849024,63.258622 C72.3878902,63.258622 71.5230122,62.7445 70.9944756,62.0261707 L70.9944756,63.0832439 L69.896561,63.0832439 L69.896561,63.0832439 Z" id="Fill-29" fill="#FFFFFF"></path>
                <path d="M83.1147805,63.0832439 L83.1147805,58.4177073 C83.1147805,57.1588293 82.4853415,56.8080732 81.5171585,56.8080732 C80.6666951,56.8080732 79.845061,57.3342073 79.4342439,57.9083902 L79.4342439,63.0832439 L78.3339268,63.0832439 L78.3339268,53.3029146 L79.4342439,53.3029146 L79.4342439,57.0266951 C79.9195366,56.4236829 80.8853171,55.8230732 81.9568049,55.8230732 C83.4367073,55.8230732 84.2150976,56.5414024 84.2150976,58.0837683 L84.2150976,63.0832439 L83.1147805,63.0832439" id="Fill-30" fill="#FFFFFF"></path>
                <path d="M91.5401341,61.146878 L91.5401341,57.9492317 C91.1581463,57.3342073 90.2932683,56.8080732 89.4283902,56.8080732 C87.9917317,56.8080732 87.1412683,57.9804634 87.1412683,59.5492561 C87.1412683,61.1156463 87.9917317,62.2760244 89.4283902,62.2760244 C90.2932683,62.2760244 91.1581463,61.7643049 91.5401341,61.146878 L91.5401341,61.146878 Z M91.5401341,63.0832439 L91.5401341,62.0261707 C91.014,62.7445 90.1467195,63.258622 89.1497073,63.258622 C87.3022317,63.258622 85.9977073,61.8507927 85.9977073,59.5492561 C85.9977073,57.2765488 87.3022317,55.8230732 89.1497073,55.8230732 C90.1034756,55.8230732 90.9683537,56.2939512 91.5401341,57.0723415 L91.5401341,56.0008537 L92.6404512,56.0008537 L92.6404512,63.0832439 L91.5401341,63.0832439 L91.5401341,63.0832439 Z" id="Fill-31" fill="#FFFFFF"></path>
                <path d="M94.8314756,63.0832439 L94.8314756,56.0008537 L95.9317927,56.0008537 L95.9317927,57.1275976 C96.5059756,56.3972561 97.3276098,55.8374878 98.2933902,55.8374878 L98.2933902,56.9690366 C98.1612561,56.954622 98.0315244,56.9378049 97.8681585,56.9378049 C97.1786585,56.9378049 96.256122,57.4975732 95.9317927,58.0669512 L95.9317927,63.0832439 L94.8314756,63.0832439" id="Fill-32" fill="#FFFFFF"></path>
                <path d="M99.6675854,61.6033415 L99.6675854,53.3029146 L100.767902,53.3029146 L100.767902,61.3679024 C100.767902,61.896439 101.003341,62.2760244 101.486232,62.2760244 C101.793744,62.2760244 102.089244,62.1294756 102.221378,61.9685122 L102.55772,62.804561 C102.264622,63.0688293 101.882634,63.258622 101.236378,63.258622 C100.196122,63.258622 99.6675854,62.6580122 99.6675854,61.6033415" id="Fill-33" fill="#FFFFFF"></path>
                <path d="M108.744,61.146878 L108.744,57.9492317 C108.35961,57.3342073 107.497134,56.8080732 106.632256,56.8080732 C105.193195,56.8080732 104.342732,57.9804634 104.342732,59.5492561 C104.342732,61.1156463 105.193195,62.2760244 106.632256,62.2760244 C107.497134,62.2760244 108.35961,61.7643049 108.744,61.146878 L108.744,61.146878 Z M108.744,63.0832439 L108.744,62.0261707 C108.215463,62.7445 107.348183,63.258622 106.351171,63.258622 C104.503695,63.258622 103.199171,61.8507927 103.199171,59.5492561 C103.199171,57.2765488 104.503695,55.8230732 106.351171,55.8230732 C107.304939,55.8230732 108.169817,56.2939512 108.744,57.0723415 L108.744,56.0008537 L109.841915,56.0008537 L109.841915,63.0832439 L108.744,63.0832439 L108.744,63.0832439 Z" id="Fill-34" fill="#FFFFFF"></path>
                <path d="M116.83061,63.0832439 L116.83061,58.448939 C116.83061,57.190061 116.184354,56.8080732 115.232988,56.8080732 C114.365707,56.8080732 113.558488,57.3342073 113.135659,57.9083902 L113.135659,63.0832439 L112.035341,63.0832439 L112.035341,56.0008537 L113.135659,56.0008537 L113.135659,57.0266951 C113.632963,56.4236829 114.601146,55.8230732 115.670232,55.8230732 C117.138122,55.8230732 117.91411,56.5726341 117.91411,58.1101951 L117.91411,63.0832439 L116.83061,63.0832439" id="Fill-35" fill="#FFFFFF"></path>
                <path d="M124.91722,63.0832439 L124.91722,58.448939 C124.91722,57.190061 124.273366,56.8080732 123.319598,56.8080732 C122.45472,56.8080732 121.649902,57.3342073 121.222268,57.9083902 L121.222268,63.0832439 L120.124354,63.0832439 L120.124354,56.0008537 L121.222268,56.0008537 L121.222268,57.0266951 C121.721976,56.4236829 122.690159,55.8230732 123.759244,55.8230732 C125.227134,55.8230732 126.003122,56.5726341 126.003122,58.1101951 L126.003122,63.0832439 L124.91722,63.0832439" id="Fill-36" fill="#FFFFFF"></path>
                <path d="M138.9835,63.0832439 L133.277707,55.2825244 L133.277707,63.0832439 L132.062073,63.0832439 L132.062073,53.3029146 L133.308939,53.3029146 L138.940256,60.9426707 L138.940256,53.3029146 L140.15589,53.3029146 L140.15589,63.0832439 L138.9835,63.0832439" id="Fill-37" fill="#FFFFFF"></path>
                <path d="M145.736756,54.9293659 L143.259841,52.817622 L144.401,52.817622 L146.572805,54.9293659 L145.736756,54.9293659 L145.736756,54.9293659 Z M147.509756,61.146878 L147.509756,57.9492317 C147.130171,57.3342073 146.265293,56.8080732 145.398012,56.8080732 C143.963756,56.8080732 143.11089,57.9804634 143.11089,59.5492561 C143.11089,61.1156463 143.963756,62.2760244 145.398012,62.2760244 C146.265293,62.2760244 147.130171,61.7643049 147.509756,61.146878 L147.509756,61.146878 Z M147.509756,63.0832439 L147.509756,62.0261707 C146.983622,62.7445 146.118744,63.258622 145.121732,63.258622 C143.274256,63.258622 141.969732,61.8507927 141.969732,59.5492561 C141.969732,57.2765488 143.274256,55.8230732 145.121732,55.8230732 C146.0755,55.8230732 146.937976,56.2939512 147.509756,57.0723415 L147.509756,56.0008537 L148.610073,56.0008537 L148.610073,63.0832439 L147.509756,63.0832439 L147.509756,63.0832439 Z" id="Fill-38" fill="#FFFFFF"></path>
                <path d="M150.805902,56.0008537 L151.90622,56.0008537 L151.90622,63.0832439 L150.805902,63.0832439 L150.805902,56.0008537 Z M150.61611,54.2566829 C150.61611,53.8434634 150.952451,53.507122 151.363268,53.507122 C151.774085,53.507122 152.096012,53.8434634 152.096012,54.2566829 C152.096012,54.6650976 151.774085,54.9894268 151.363268,54.9894268 C150.952451,54.9894268 150.61611,54.6650976 150.61611,54.2566829 L150.61611,54.2566829 Z" id="Fill-39" fill="#FFFFFF"></path>
                <path d="M153.501439,62.1438902 L154.058805,61.3510854 C154.52728,61.896439 155.420988,62.3649146 156.389171,62.3649146 C157.475073,62.3649146 158.075683,61.8507927 158.075683,61.146878 C158.075683,59.4315366 153.693634,60.4886098 153.693634,57.8627439 C153.693634,56.7480122 154.630585,55.8230732 156.317098,55.8230732 C157.532732,55.8230732 158.385598,56.2795366 158.940561,56.8513171 L158.428841,57.6128902 C158.001207,57.1011707 157.239634,56.7191829 156.317098,56.7191829 C155.348915,56.7191829 154.748305,57.2044756 154.748305,57.8315122 C154.748305,59.373878 159.132756,58.3624512 159.132756,61.1156463 C159.132756,62.3072561 158.178988,63.258622 156.360341,63.258622 C155.185549,63.258622 154.219768,62.8934512 153.501439,62.1438902" id="Fill-40" fill="#FFFFFF"></path>
                <path d="M163.980878,56.7335976 C162.469744,56.7335976 161.722585,58.0092927 161.662524,59.0807805 L166.311244,59.0807805 C166.296829,58.038122 165.592915,56.7335976 163.980878,56.7335976 L163.980878,56.7335976 Z M160.504549,59.5348415 C160.504549,57.4807561 161.972439,55.8230732 163.995293,55.8230732 C166.135866,55.8230732 167.397146,57.4975732 167.397146,59.6213293 L167.397146,59.9024146 L161.679341,59.9024146 C161.765829,61.2333659 162.690768,62.3505 164.213915,62.3505 C165.035549,62.3505 165.842768,62.0261707 166.414549,61.4399756 L166.943085,62.1583049 C166.222354,62.8622195 165.270988,63.258622 164.127427,63.258622 C162.015683,63.258622 160.504549,61.7474878 160.504549,59.5348415 L160.504549,59.5348415 Z" id="Fill-41" fill="#FFFFFF"></path>
                <path d="M174.296951,61.146878 L174.296951,57.9492317 C173.914963,57.3342073 173.050085,56.8080732 172.185207,56.8080732 C170.748549,56.8080732 169.898085,57.9804634 169.898085,59.5492561 C169.898085,61.1156463 170.748549,62.2760244 172.185207,62.2760244 C173.050085,62.2760244 173.914963,61.7643049 174.296951,61.146878 L174.296951,61.146878 Z M174.296951,63.0832439 L174.296951,62.0261707 C173.768415,62.7445 172.903537,63.258622 171.906524,63.258622 C170.059049,63.258622 168.754524,61.8507927 168.754524,59.5492561 C168.754524,57.2765488 170.059049,55.8230732 171.906524,55.8230732 C172.860293,55.8230732 173.725171,56.2939512 174.296951,57.0723415 L174.296951,56.0008537 L175.397268,56.0008537 L175.397268,63.0832439 L174.296951,63.0832439 L174.296951,63.0832439 Z" id="Fill-42" fill="#FFFFFF"></path>
                <path d="M182.383561,63.0832439 L182.383561,58.448939 C182.383561,57.190061 181.739707,56.8080732 180.785939,56.8080732 C179.921061,56.8080732 179.113841,57.3342073 178.68861,57.9083902 L178.68861,63.0832439 L177.590695,63.0832439 L177.590695,56.0008537 L178.68861,56.0008537 L178.68861,57.0266951 C179.188317,56.4236829 180.1565,55.8230732 181.225585,55.8230732 C182.693476,55.8230732 183.469463,56.5726341 183.469463,58.1101951 L183.469463,63.0832439 L182.383561,63.0832439" id="Fill-43" fill="#FFFFFF"></path>
                <path d="M185.898329,61.6033415 L185.898329,56.9690366 L184.725939,56.9690366 L184.725939,56.0008537 L185.898329,56.0008537 L185.898329,54.0644878 L187.013061,54.0644878 L187.013061,56.0008537 L188.44972,56.0008537 L188.44972,56.9690366 L187.013061,56.9690366 L187.013061,61.3679024 C187.013061,61.896439 187.246098,62.2760244 187.716976,62.2760244 C188.038902,62.2760244 188.317585,62.1294756 188.464134,61.9685122 L188.786061,62.804561 C188.507378,63.0688293 188.113378,63.258622 187.481537,63.258622 C186.426866,63.258622 185.898329,62.6580122 185.898329,61.6033415" id="Fill-44" fill="#FFFFFF"></path>
                <path d="M195.11889,61.146878 L195.11889,57.9492317 C194.7345,57.3342073 193.872024,56.8080732 193.007146,56.8080732 C191.568085,56.8080732 190.720024,57.9804634 190.720024,59.5492561 C190.720024,61.1156463 191.568085,62.2760244 193.007146,62.2760244 C193.872024,62.2760244 194.7345,61.7643049 195.11889,61.146878 L195.11889,61.146878 Z M195.11889,63.0832439 L195.11889,62.0261707 C194.590354,62.7445 193.725476,63.258622 192.726061,63.258622 C190.878585,63.258622 189.574061,61.8507927 189.574061,59.5492561 C189.574061,57.2765488 190.878585,55.8230732 192.726061,55.8230732 C193.679829,55.8230732 194.544707,56.2939512 195.11889,57.0723415 L195.11889,56.0008537 L196.216805,56.0008537 L196.216805,63.0832439 L195.11889,63.0832439 L195.11889,63.0832439 Z" id="Fill-45" fill="#FFFFFF"></path>
                <path d="M51.0950732,78.4180122 L51.0950732,73.7837073 C51.0950732,72.5248293 50.4488171,72.140439 49.4950488,72.140439 C48.6325732,72.140439 47.8253537,72.6689756 47.400122,73.2407561 L47.400122,78.4180122 L46.2998049,78.4180122 L46.2998049,71.3332195 L47.400122,71.3332195 L47.400122,72.3614634 C47.8974268,71.7584512 48.8656098,71.1578415 49.9370976,71.1578415 C51.4025854,71.1578415 52.1809756,71.9074024 52.1809756,73.4449634 L52.1809756,78.4180122 L51.0950732,78.4180122" id="Fill-46" fill="#FFFFFF"></path>
                <path d="M59.5204268,76.4816463 L59.5204268,73.284 C59.138439,72.6689756 58.273561,72.140439 57.4086829,72.140439 C55.9720244,72.140439 55.121561,73.3152317 55.121561,74.8840244 C55.121561,76.4504146 55.9720244,77.6107927 57.4086829,77.6107927 C58.273561,77.6107927 59.138439,77.0990732 59.5204268,76.4816463 L59.5204268,76.4816463 Z M59.5204268,78.4180122 L59.5204268,77.360939 C58.9942927,78.0792683 58.1270122,78.5933902 57.13,78.5933902 C55.2825244,78.5933902 53.978,77.185561 53.978,74.8840244 C53.978,72.6113171 55.2825244,71.1578415 57.13,71.1578415 C58.0837683,71.1578415 58.9486463,71.6263171 59.5204268,72.4071098 L59.5204268,71.3332195 L60.6207439,71.3332195 L60.6207439,78.4180122 L59.5204268,78.4180122 L59.5204268,78.4180122 Z" id="Fill-47" fill="#FFFFFF"></path>
                <path d="M71.4028902,78.4180122 L71.4028902,73.7524756 C71.4028902,72.4935976 70.7734512,72.140439 69.8052683,72.140439 C68.9548049,72.140439 68.1331707,72.6689756 67.7223537,73.2407561 L67.7223537,78.4180122 L66.6220366,78.4180122 L66.6220366,68.6352805 L67.7223537,68.6352805 L67.7223537,72.3614634 C68.2052439,71.7584512 69.1734268,71.1578415 70.2449146,71.1578415 C71.7248171,71.1578415 72.5032073,71.8761707 72.5032073,73.4185366 L72.5032073,78.4180122 L71.4028902,78.4180122" id="Fill-48" fill="#FFFFFF"></path>
                <path d="M74.0359634,74.3843171 L77.5555366,74.3843171 L77.5555366,75.3525 L74.0359634,75.3525 L74.0359634,74.3843171 Z" id="Fill-49" fill="#FFFFFF"></path>
                <path d="M82.816878,69.8821463 L80.748378,75.1603049 L84.8997927,75.1603049 L82.816878,69.8821463 L82.816878,69.8821463 Z M86.1154268,78.4180122 L85.2505488,76.2317927 L80.3832073,76.2317927 L79.5183293,78.4180122 L78.1225122,78.4180122 L82.0673171,68.6352805 L83.5784512,68.6352805 L87.5088415,78.4180122 L86.1154268,78.4180122 L86.1154268,78.4180122 Z" id="Fill-50" fill="#FFFFFF"></path>
                <path d="M88.7316829,76.9357073 L88.7316829,68.6352805 L89.832,68.6352805 L89.832,76.7026707 C89.832,77.2288049 90.067439,77.6107927 90.5503293,77.6107927 C90.8602439,77.6107927 91.1533415,77.4642439 91.2854756,77.3032805 L91.6218171,78.1369268 C91.3287195,78.4035976 90.9467317,78.5933902 90.302878,78.5933902 C89.2602195,78.5933902 88.7316829,77.9927805 88.7316829,76.9357073" id="Fill-51" fill="#FFFFFF"></path>
                <path d="M95.900561,77.6107927 C97.3228049,77.6107927 98.1732683,76.4504146 98.1732683,74.8840244 C98.1732683,73.3152317 97.3228049,72.140439 95.900561,72.140439 C95.0212683,72.140439 94.1563902,72.6689756 93.7744024,73.284 L93.7744024,76.496061 C94.1563902,77.1134878 95.0212683,77.6107927 95.900561,77.6107927 L95.900561,77.6107927 Z M92.6740854,78.4180122 L92.6740854,68.6352805 L93.7744024,68.6352805 L93.7744024,72.4071098 C94.3461829,71.6263171 95.211061,71.1578415 96.1648293,71.1578415 C98.0267195,71.1578415 99.3168293,72.6113171 99.3168293,74.8840244 C99.3168293,77.185561 98.0123049,78.5933902 96.1648293,78.5933902 C95.1678171,78.5933902 94.302939,78.0792683 93.7744024,77.360939 L93.7744024,78.4180122 L92.6740854,78.4180122 L92.6740854,78.4180122 Z" id="Fill-52" fill="#FFFFFF"></path>
                <path d="M106.233451,76.4816463 L106.233451,73.284 C105.849061,72.6689756 104.986585,72.140439 104.121707,72.140439 C102.682646,72.140439 101.834585,73.3152317 101.834585,74.8840244 C101.834585,76.4504146 102.682646,77.6107927 104.121707,77.6107927 C104.986585,77.6107927 105.849061,77.0990732 106.233451,76.4816463 L106.233451,76.4816463 Z M106.233451,78.4180122 L106.233451,77.360939 C105.704915,78.0792683 104.840037,78.5933902 103.840622,78.5933902 C101.993146,78.5933902 100.688622,77.185561 100.688622,74.8840244 C100.688622,72.6113171 101.993146,71.1578415 103.840622,71.1578415 C104.79439,71.1578415 105.659268,71.6263171 106.233451,72.4071098 L106.233451,71.3332195 L107.331366,71.3332195 L107.331366,78.4180122 L106.233451,78.4180122 L106.233451,78.4180122 Z" id="Fill-53" fill="#FFFFFF"></path>
                <g id="Group-58">
                    <mask id="mask-2" fill="white">
                        <use xlink:href="#path-1"></use>
                    </mask>
                    <g id="Clip-55"></g>
                    <path d="M20.6153293,22.4171585 L40.6636829,33.9921098 L40.6636829,11.9377195 L20.6153293,0.365170732 L20.6153293,22.4171585" id="Fill-54" fill="#FFFFFF" mask="url(#mask-2)"></path>
                    <path d="M20.1372439,46.5808902 L40.1855976,35.005939 L20.0483537,23.3805366 L0,34.9530854 L20.1372439,46.5808902" id="Fill-56" fill="#FFFFFF" mask="url(#mask-2)"></path>
                </g>
                <path d="M54.235061,107.564402 L54.235061,100.337866 L51.4073902,107.564402 L50.4776463,107.564402 L47.6499756,100.337866 L47.6499756,107.564402 L45.5166098,107.564402 L45.5166098,97.5390244 L48.5076463,97.5390244 L50.9413171,103.806988 L53.3773902,97.5390244 L56.3828415,97.5390244 L56.3828415,107.564402 L54.235061,107.564402" id="Fill-59" fill="#FFFFFF"></path>
                <path d="M63.5469146,103.929512 C63.5469146,102.800366 62.8862439,101.824976 61.6850244,101.824976 C60.4982195,101.824976 59.8351463,102.800366 59.8351463,103.929512 C59.8351463,105.070671 60.4982195,106.048463 61.6850244,106.048463 C62.8862439,106.048463 63.5469146,105.070671 63.5469146,103.929512 L63.5469146,103.929512 Z M57.8507317,103.929512 C57.8507317,101.86822 59.2945976,100.126451 61.6850244,100.126451 C64.0898659,100.126451 65.5313293,101.86822 65.5313293,103.929512 C65.5313293,105.986 64.0898659,107.746988 61.6850244,107.746988 C59.2945976,107.746988 57.8507317,105.986 57.8507317,103.929512 L57.8507317,103.929512 Z" id="Fill-60" fill="#FFFFFF"></path>
                <path d="M68.8370854,107.564402 L65.9205244,100.306634 L67.965,100.306634 L69.858122,105.356561 L71.7656585,100.306634 L73.8101341,100.306634 L70.8959756,107.564402 L68.8370854,107.564402" id="Fill-61" fill="#FFFFFF"></path>
                <path d="M74.663,100.306634 L76.5705366,100.306634 L76.5705366,107.564402 L74.663,107.564402 L74.663,100.306634 Z M74.4828171,98.3822805 C74.4828171,97.750439 74.9945366,97.2531341 75.609561,97.2531341 C76.2414024,97.2531341 76.753122,97.750439 76.753122,98.3822805 C76.753122,99.014122 76.2414024,99.5258415 75.609561,99.5258415 C74.9945366,99.5258415 74.4828171,99.014122 74.4828171,98.3822805 L74.4828171,98.3822805 Z" id="Fill-62" fill="#FFFFFF"></path>
                <path d="M83.3646341,107.564402 L83.3646341,103.175146 C83.3646341,102.168524 82.8385,101.824976 82.0264756,101.824976 C81.2745122,101.824976 80.7051341,102.245402 80.3735976,102.665829 L80.3735976,107.564402 L78.4636585,107.564402 L78.4636585,100.306634 L80.3735976,100.306634 L80.3735976,101.23878 C80.8396707,100.695829 81.7405854,100.126451 82.915378,100.126451 C84.5226098,100.126451 85.2889878,101.027366 85.2889878,102.44 L85.2889878,107.564402 L83.3646341,107.564402" id="Fill-63" fill="#FFFFFF"></path>
                <path d="M92.1551585,104.996195 L92.1551585,102.637 C91.823622,102.168524 91.1317195,101.824976 90.5166951,101.824976 C89.4187805,101.824976 88.6668171,102.574537 88.6668171,103.823805 C88.6668171,105.070671 89.4187805,105.822634 90.5166951,105.822634 C91.1317195,105.822634 91.823622,105.459866 92.1551585,104.996195 L92.1551585,104.996195 Z M87.013939,109.428695 L87.8716098,108.061707 C88.4578049,108.691146 89.2385976,108.948207 90.1395122,108.948207 C91.0572439,108.948207 92.1551585,108.559012 92.1551585,107.083915 L92.1551585,106.377598 C91.583378,107.098329 90.8025854,107.504341 89.8992683,107.504341 C88.097439,107.504341 86.6992195,106.243061 86.6992195,103.823805 C86.6992195,101.450195 88.0662073,100.126451 89.8992683,100.126451 C90.7713537,100.126451 91.5689634,100.486817 92.1551585,101.23878 L92.1551585,100.306634 L94.0626951,100.306634 L94.0626951,107.083915 C94.0626951,109.834707 91.9293293,110.512195 90.1395122,110.512195 C88.907061,110.512195 87.9316707,110.226305 87.013939,109.428695 L87.013939,109.428695 Z" id="Fill-64" fill="#FFFFFF"></path>
                <path d="M99.8597805,97.5390244 L101.993146,97.5390244 L101.993146,107.564402 L99.8597805,107.564402 L99.8597805,97.5390244 Z" id="Fill-65" fill="#FFFFFF"></path>
                <path d="M112.933854,107.564402 L112.933854,102.980549 C112.933854,102.305463 112.633549,101.824976 111.850354,101.824976 C111.175268,101.824976 110.620305,102.274232 110.348829,102.665829 L110.348829,107.564402 L108.424476,107.564402 L108.424476,102.980549 C108.424476,102.305463 108.124171,101.824976 107.343378,101.824976 C106.682707,101.824976 106.125341,102.274232 105.839451,102.665829 L105.839451,107.564402 L103.931915,107.564402 L103.931915,100.306634 L105.839451,100.306634 L105.839451,101.23878 C106.154171,100.818354 107.103134,100.126451 108.215463,100.126451 C109.282146,100.126451 109.974049,100.621354 110.228707,101.433378 C110.649134,100.787122 111.61011,100.126451 112.724841,100.126451 C114.060598,100.126451 114.858207,100.832768 114.858207,102.319878 L114.858207,107.564402 L112.933854,107.564402" id="Fill-66" fill="#FFFFFF"></path>
                <path d="M121.73639,105.222024 L121.73639,102.665829 C121.421671,102.185341 120.729768,101.824976 120.097927,101.824976 C119.002415,101.824976 118.250451,102.680244 118.250451,103.929512 C118.250451,105.190793 119.002415,106.048463 120.097927,106.048463 C120.729768,106.048463 121.421671,105.702512 121.73639,105.222024 L121.73639,105.222024 Z M121.73639,107.564402 L121.73639,106.634659 C121.16461,107.35539 120.383817,107.746988 119.497317,107.746988 C117.678671,107.746988 116.280451,106.363183 116.280451,103.929512 C116.280451,101.567915 117.649841,100.126451 119.497317,100.126451 C120.354988,100.126451 121.150195,100.486817 121.73639,101.23878 L121.73639,100.306634 L123.660744,100.306634 L123.660744,107.564402 L121.73639,107.564402 L121.73639,107.564402 Z" id="Fill-67" fill="#FFFFFF"></path>
                <path d="M130.541329,104.996195 L130.541329,102.637 C130.209793,102.168524 129.520293,101.824976 128.902866,101.824976 C127.804951,101.824976 127.052988,102.574537 127.052988,103.823805 C127.052988,105.070671 127.804951,105.822634 128.902866,105.822634 C129.520293,105.822634 130.209793,105.459866 130.541329,104.996195 L130.541329,104.996195 Z M125.40011,109.428695 L126.25778,108.061707 C126.843976,108.691146 127.624768,108.948207 128.525683,108.948207 C129.443415,108.948207 130.541329,108.559012 130.541329,107.083915 L130.541329,106.377598 C129.969549,107.098329 129.188756,107.504341 128.285439,107.504341 C126.48361,107.504341 125.08539,106.243061 125.08539,103.823805 C125.08539,101.450195 126.452378,100.126451 128.285439,100.126451 C129.157524,100.126451 129.955134,100.486817 130.541329,101.23878 L130.541329,100.306634 L132.448866,100.306634 L132.448866,107.083915 C132.448866,109.834707 130.3155,110.512195 128.525683,110.512195 C127.293232,110.512195 126.317841,110.226305 125.40011,109.428695 L125.40011,109.428695 Z" id="Fill-68" fill="#FFFFFF"></path>
                <path d="M137.630927,101.688037 C136.444122,101.688037 135.932402,102.516878 135.857927,103.23761 L139.435159,103.23761 C139.375098,102.545707 138.89461,101.688037 137.630927,101.688037 L137.630927,101.688037 Z M133.873512,103.929512 C133.873512,101.824976 135.4375,100.126451 137.630927,100.126451 C139.812341,100.126451 141.270622,101.7505 141.270622,104.109695 L141.270622,104.558951 L135.872341,104.558951 C136.00928,105.447854 136.730012,106.183 137.962463,106.183 C138.577488,106.183 139.420744,105.928341 139.886817,105.476683 L140.742085,106.740366 C140.021354,107.401037 138.880195,107.746988 137.753451,107.746988 C135.543207,107.746988 133.873512,106.259878 133.873512,103.929512 L133.873512,103.929512 Z" id="Fill-69" fill="#FFFFFF"></path>
                <path d="M150.702598,99.6747927 L149.13861,103.987171 L152.266585,103.987171 L150.702598,99.6747927 L150.702598,99.6747927 Z M153.484622,107.564402 L152.85278,105.865878 L148.554817,105.865878 L147.922976,107.564402 L145.50372,107.564402 L149.366841,97.5390244 L152.040756,97.5390244 L155.903878,107.564402 L153.484622,107.564402 L153.484622,107.564402 Z" id="Fill-70" fill="#FFFFFF"></path>
                <path d="M156.785573,107.564402 L156.785573,100.306634 L158.69311,100.306634 L158.69311,101.282024 C159.221646,100.652585 160.108146,100.126451 161.009061,100.126451 L161.009061,101.988341 C160.874524,101.95711 160.708756,101.945098 160.482927,101.945098 C159.851085,101.945098 159.010232,102.305463 158.69311,102.769134 L158.69311,107.564402 L156.785573,107.564402" id="Fill-71" fill="#FFFFFF"></path>
                <path d="M161.729793,103.929512 C161.729793,101.704854 163.351439,100.126451 165.576098,100.126451 C167.063207,100.126451 167.966524,100.770305 168.447012,101.433378 L167.200146,102.605768 C166.854195,102.094049 166.328061,101.824976 165.66739,101.824976 C164.509415,101.824976 163.69739,102.665829 163.69739,103.929512 C163.69739,105.190793 164.509415,106.048463 165.66739,106.048463 C166.328061,106.048463 166.854195,105.748159 167.200146,105.250854 L168.447012,106.423244 C167.966524,107.083915 167.063207,107.746988 165.576098,107.746988 C163.351439,107.746988 161.729793,106.166183 161.729793,103.929512" id="Fill-72" fill="#FFFFFF"></path>
                <path d="M174.606866,107.564402 L174.606866,103.14872 C174.606866,102.139695 174.080732,101.824976 173.268707,101.824976 C172.516744,101.824976 171.930549,102.245402 171.615829,102.665829 L171.615829,107.564402 L169.691476,107.564402 L169.691476,97.5390244 L171.615829,97.5390244 L171.615829,101.23878 C172.081902,100.695829 172.968402,100.126451 174.155207,100.126451 C175.750427,100.126451 176.516805,100.996134 176.516805,102.411171 L176.516805,107.564402 L174.606866,107.564402" id="Fill-73" fill="#FFFFFF"></path>
                <path d="M178.405122,100.306634 L180.312659,100.306634 L180.312659,107.564402 L178.405122,107.564402 L178.405122,100.306634 Z M178.224939,98.3822805 C178.224939,97.750439 178.736659,97.2531341 179.351683,97.2531341 C179.983524,97.2531341 180.495244,97.750439 180.495244,98.3822805 C180.495244,99.014122 179.983524,99.5258415 179.351683,99.5258415 C178.736659,99.5258415 178.224939,99.014122 178.224939,98.3822805 L178.224939,98.3822805 Z" id="Fill-74" fill="#FFFFFF"></path>
                <path d="M184.084488,107.564402 L181.167927,100.306634 L183.214805,100.306634 L185.107927,105.356561 L187.015463,100.306634 L189.059939,100.306634 L186.143378,107.564402 L184.084488,107.564402" id="Fill-75" fill="#FFFFFF"></path>
                <path d="M193.204146,101.688037 C192.017341,101.688037 191.505622,102.516878 191.431146,103.23761 L195.008378,103.23761 C194.948317,102.545707 194.467829,101.688037 193.204146,101.688037 L193.204146,101.688037 Z M189.446732,103.929512 C189.446732,101.824976 191.01072,100.126451 193.204146,100.126451 C195.383159,100.126451 196.841439,101.7505 196.841439,104.109695 L196.841439,104.558951 L191.445561,104.558951 C191.5825,105.447854 192.303232,106.183 193.535683,106.183 C194.150707,106.183 194.993963,105.928341 195.460037,105.476683 L196.315305,106.740366 C195.594573,107.401037 194.453415,107.746988 193.326671,107.746988 C191.116427,107.746988 189.446732,106.259878 189.446732,103.929512 L189.446732,103.929512 Z" id="Fill-76" fill="#FFFFFF"></path>
                <path d="M45,88 L196,88 L196,88.9672 L45,88.9672 L45,88 Z" id="Fill-49" fill="#FFFFFF"></path>
            </g>
        </g>
    </g>
</svg>