<svg width="593" height="348" viewBox="0 0 593 348" xmlns="http://www.w3.org/2000/svg" xmlns:xlink="http://www.w3.org/1999/xlink"><title>body-background</title><defs><path id="a" d="M0 0l598 3.04v341.436L0 362.336V0z"/><path id="c" d="M106.675 300.144c0 67.624-12.695 133.395-37.157 192.193.08.08 37.157 122.756 37.157 189.574 0 115.865-39.696 222.42-106.11 307.05C247.887 959.865 439.84 749.617 439.84 494.474 439.84 241.426 251.072 32.71 6.65.83c62.787 83.343 100.025 187.036 100.025 299.314z"/><path id="e" d="M.127 191.177C.127 466.27 223.11 689.13 498.12 689.13c159.148 0 300.764-74.757 391.924-190.903-19.263 2.257-38.89 3.546-58.798 3.546-162.613 0-301.408-80.64-392.326-201.26C259.864 277.177 105.07 161.555 38.09.272 13.668 59.073.127 123.553.127 191.177z"/><path id="g" d="M59.508 306.01c-21.964 0-37.923-3.91-59.202-6.61 1.895 2.7 1.814 2.62 2.942 3.91.968 1.25 2.015 2.378 2.862 3.506C97.028 423.526 233.284 500.34 392.633 500.34c19.948 0 39.535-1.29 58.798-3.547 66.417-84.63 106.113-191.186 106.113-307.05 0-66.818-13.18-131.42-37.037-189.655C444.822 178.62 265.646 306.01 59.508 306.01z"/></defs><g transform="translate(-2)" fill="none" fill-rule="evenodd" opacity=".4"><mask id="b" fill="#fff"><use xlink:href="#a"/></mask><use xlink:href="#a"/><g opacity=".195" style="mix-blend-mode:saturation" mask="url(#b)"><g transform="translate(277.795 -818.723)"><mask id="d" fill="#fff"><use xlink:href="#c"/></mask><path d="M-74.597 1064.08H514.92V-74.29H-74.597v1138.37z" fill="#6381BF" mask="url(#d)"/></g><g transform="translate(-611.685 -327.99)"><mask id="f" fill="#fff"><use xlink:href="#e"/></mask><path d="M-74.993 764.332H965.245v-839.22H-74.993v839.22z" fill="#412773" mask="url(#f)"/></g><g transform="translate(-173.072 -326.555)"><mask id="h" fill="#fff"><use xlink:href="#g"/></mask><path d="M-74.814 575.46h707.517V-74.992H-74.814V575.46z" fill="#A493D2" mask="url(#h)"/></g></g></g></svg>