<svg width="318" height="115" viewBox="0 0 318 115" xmlns="http://www.w3.org/2000/svg"><title>los-logo</title><g fill="none" fill-rule="evenodd"><path d="M297.098 47.853l2.197-3.03c1.498 1.63 3.93 3.096 7.025 3.096 3.197 0 4.43-1.566 4.43-3.064 0-4.66-12.92-1.764-12.92-9.92 0-3.697 3.197-6.526 8.09-6.526 3.43 0 6.26 1.13 8.292 3.13l-2.2 2.896c-1.763-1.765-4.127-2.564-6.457-2.564-2.264 0-3.73 1.13-3.73 2.763 0 4.162 12.92 1.598 12.92 9.856 0 3.695-2.63 6.892-8.59 6.892-4.096 0-7.06-1.465-9.057-3.53" fill="#6BB74C"/><path d="M299.586 84.4L288 68.52V84.4h-3.896V62.193h3.996l11.353 15.38v-15.38h3.895V84.4h-3.762M17.42 69.316L7.14 59.036c-.45-.45-.7-1.052-.7-1.692 0-.64.25-1.243.7-1.695l10.28-10.28v-6.277L4.002 52.51C2.71 53.8 2 55.516 2 57.343c0 1.826.71 3.542 2.002 4.833L17.42 75.594v-6.278" fill="#FFF"/><path d="M94.748 18.015H19.902V92.86h9.594v13.807L53.41 92.86h41.338V18.015" fill="#4DAF46"/><path d="M47.91 42.558l23.3 13.452-23.3 13.452V42.558" fill="#FFF"/><path d="M94.748 18.015H19.902V92.86h9.594v13.807L53.41 92.86h41.338V18.015" fill="#4DAF46"/><path d="M47.91 42.558l23.3 13.452-23.3 13.452V42.558" fill="#FFF"/><path d="M94.748 18.015H19.902V92.86h9.594v13.807L53.41 92.86h41.338V18.015" fill="#4DAF46"/><path d="M29.496 92.86h-9.594V18.015h42.822L29.496 92.86" fill="#448242"/><path d="M47.91 42.558l23.3 13.45-23.3 13.454V42.558" fill="#FFF"/><path d="M17.35 15.67v79.537h9.51v15.948l27.453-15.948H97.5V15.67H17.35z" fill="#102E09"/><path d="M94.748 18.015H19.902V92.86h9.594v13.807L53.41 92.86h41.338V18.015" fill="#6BB74C"/><path d="M94.748 18.015H19.902V92.86h9.594v13.807l65.23-62.014.022-26.638" fill="#588D49"/><path d="M62.724 18.015H19.902V92.86h9.594" fill="#43693C"/><path d="M48.488 43.713l23.3 13.45-23.3 13.453V43.713M109.123 52.662L97.575 41.114v6.278l8.41 8.41c.452.452.7 1.054.7 1.695 0 .64-.248 1.24-.7 1.694l-8.41 8.41v6.278l11.547-11.548c1.292-1.29 2.003-3.007 2.003-4.833 0-1.828-.71-3.544-2.002-4.835" fill="#FFF"/><path d="M123.85 50.906V28.698h3.896v18.78h9.788v3.428H123.85M149.73 32.594l-3.995 10.588h7.99l-3.995-10.588zm6.725 18.312l-1.632-4.295h-10.187l-1.63 4.296h-4.43l8.724-22.208h4.86l8.724 22.208h-4.43zM178.89 50.906l-11.586-15.882v15.882h-3.895V28.698h3.994l11.354 15.383V28.7h3.895v22.208h-3.762M186.508 39.895c0-6.992 5.194-11.485 11.653-11.485 4.33 0 7.16 2.063 8.924 4.593l-3.163 1.832c-1.197-1.665-3.295-2.963-5.76-2.963-4.394 0-7.657 3.33-7.657 8.023 0 4.63 3.263 8.024 7.658 8.024 2.265 0 4.263-1.033 5.262-1.998v-3.43h-6.66v-3.43h10.52v8.29c-2.162 2.432-5.292 4.064-9.12 4.064-6.46 0-11.654-4.562-11.654-11.52" fill="#6BB74C"/><path d="M141.984 73.103c0-4.595-2.897-8.025-7.357-8.025-4.495 0-7.36 3.43-7.36 8.025 0 4.56 2.865 8.023 7.36 8.023 4.46 0 7.357-3.462 7.357-8.023zm-18.71 0c0-6.627 4.693-11.488 11.353-11.488 6.625 0 11.352 4.86 11.352 11.488 0 6.624-4.728 11.485-11.353 11.485-6.66 0-11.354-4.86-11.354-11.485zM165.03 84.4l-11.584-15.88V84.4h-3.897V62.193h3.995l11.353 15.38v-15.38h3.895V84.4h-3.762M180.733 81.06l2.198-3.03c1.5 1.632 3.93 3.096 7.026 3.096 3.196 0 4.428-1.565 4.428-3.062 0-4.662-12.917-1.766-12.917-9.922 0-3.696 3.195-6.527 8.09-6.527 3.43 0 6.26 1.132 8.29 3.13l-2.197 2.897c-1.766-1.765-4.13-2.564-6.46-2.564-2.264 0-3.73 1.133-3.73 2.764 0 4.162 12.92 1.598 12.92 9.855 0 3.696-2.63 6.89-8.59 6.89-4.096 0-7.06-1.463-9.057-3.527" fill="#FFF"/><path d="M211.34 42.117v-13.42h3.962v13.32c0 3.53 1.965 5.826 5.66 5.826 3.696 0 5.66-2.297 5.66-5.827V28.698h3.963v13.42c0 5.49-3.164 9.187-9.623 9.187-6.426 0-9.622-3.696-9.622-9.188M242.994 32.594L239 43.182h7.99l-3.996-10.588zm6.726 18.312l-1.633-4.295H237.9l-1.63 4.296h-4.43l8.724-22.208h4.86l8.723 22.208h-4.427zM254.363 39.895c0-6.992 5.195-11.485 11.654-11.485 4.328 0 7.16 2.063 8.923 4.593l-3.163 1.832c-1.2-1.665-3.296-2.963-5.76-2.963-4.395 0-7.658 3.33-7.658 8.023 0 4.63 3.262 8.024 7.657 8.024 2.264 0 4.262-1.033 5.26-1.998v-3.43h-6.66v-3.43h10.523v8.29c-2.164 2.432-5.295 4.064-9.123 4.064-6.46 0-11.654-4.562-11.654-11.52M279.196 50.906V28.698h15.214v3.43h-11.32v5.727h11.088v3.43H283.09v6.192h11.32v3.43h-15.214" fill="#6BB74C"/><path d="M200.946 73.103c0-6.86 5.093-11.488 11.652-11.488 4.462 0 7.26 2.298 8.89 4.962l-3.296 1.73c-1.065-1.863-3.23-3.23-5.594-3.23-4.395 0-7.658 3.33-7.658 8.026 0 4.628 3.263 8.023 7.658 8.023 2.365 0 4.53-1.4 5.594-3.23l3.33 1.665c-1.7 2.665-4.462 5.028-8.924 5.028-6.56 0-11.652-4.66-11.652-11.485M237.674 69.117c0-2.13-1.598-3.495-3.796-3.495h-5.36v7.058h5.36c2.198 0 3.796-1.397 3.796-3.563zm-.366 15.283l-4.895-8.29h-3.895v8.29h-3.895V62.193h9.755c4.395 0 7.29 2.83 7.29 6.958 0 3.93-2.596 6.094-5.293 6.527l5.46 8.723h-4.527zM245.7 84.4V62.193h15.217v3.43h-11.32v5.726h11.087v3.428h-11.087v6.192h11.32v3.43H245.7M264.758 84.4V62.193h15.216v3.43h-11.32v5.726h11.086v3.428h-11.086v6.192h11.32v3.43h-15.216M47.547 15.522l7.38-7.38c.453-.453 1.055-.702 1.695-.702.64 0 1.242.25 1.694.702l7.38 7.38h6.28l-10.52-10.52C60.164 3.713 58.446 3 56.622 3c-1.827 0-3.543.71-4.834 2.003l-10.52 10.52h6.28M69.457 95.4L58.1 106.754c-.905.905-2.483.907-3.39 0l-7.434-7.435-3.985 2.293 8.28 8.28c1.292 1.292 3.01 2.004 4.835 2.004 1.825 0 3.542-.71 4.834-2.003L75.734 95.4h-6.278" fill="#FFF"/></g></svg>